<?xml version="1.0" encoding="UTF-8"?><svg preserveAspectRatio="none" id="Layer_2" xmlns="http://www.w3.org/2000/svg" viewBox="0 0 365.08 280.38"><g id="Layer_1-2"><path d="m51.37,25.54c.43-.19.88-.35,1.3-.57.25-.13.39-.02.5.16.35.6.73,1.17,1.54,1.17.05,0,.16.07.16.11,0,.12,0,.31-.07.35-.28.16-.72.19-.31.68.05.06-.06.24-.08.37-.08.5.04.7.4.71.75.02,1.5,0,2.24.06.73.05,1.16-.25,1.31-.97.02-.08.17-.12.27-.18.06.11.13.22.17.34.04.13.03.27.07.4.05.17.16.23.32.16.42-.2.84-.4,1.27-.6l-.04-.04c0,.13,0,.27,0,.4,0,.3.11.55.42.6,1.2.17,2.4.32,3.6.47.35.04.66-.04.93-.29.33-.29.72-.35,1.12-.17.97.43,1.99.17,2.98.25.1,0,.23-.12.33-.2.35-.25.32-.56-.07-.73-.51-.22-.51-.23-.25-.62.11-.17.24-.33.35-.49l.03-.07v.11c-.19-.05-.39-.15-.58-.14-.19.01-.39.24-.55.21-.6-.14-.83.17-.99.66-.02.07-.25.13-.35.11-.09-.02-.22-.19-.21-.27.04-.19.19-.35.23-.54.09-.39.14-.78.23-1.17.05-.22.23-.36.45-.3.6.16,1.14.18,1.73-.17.47-.28.93.15,1.01.83.01.12.07.23.11.35.12-.06.25-.1.34-.18.14-.12.28-.41.45-.27.51.39.88-.04,1.31-.14.06-.01.16,0,.18.04.05.11.15.29.1.35-.27.38-.66.71-.85,1.12-.27.59-.73.94-1.2,1.32-.1.08-.19.2-.21.32-.01.05.15.17.25.19,1.46.35,2.94.38,4.43.2.47-.06.94-.07,1.37-.3.25-.14.52-.09.77.06.17.1.35.22.54.23.31.01.42-.3.57-.5.53-.71.51-1.66,1.1-2.36.1-.11,0-.39-.01-.59l-.04.04c.74,0,1.48.03,2.15-.41.22-.15.52.02.67.27.14.23.25.48.43.68.35.38.96.27,1.17-.18.11-.24.23-.49.29-.75.1-.37.31-.58.69-.64.06-.01.13-.04.19-.07.43-.23.58-.58.44-1-.09-.28-.69-.42-1.07-.21-.23.13-.45.31-.59.52-.18.27-.26.6-.4.9-.02.04-.11.07-.15.06-.06-.02-.11-.08-.13-.14-.03-.06-.01-.14-.04-.2-.3-.85-.43-.9-1.29-.41l.05-.05c-.26-.05-.53-.07-.78-.14-.17-.05-.25-.42-.13-.5.27-.19.56-.36.82-.57.08-.06.12-.25.09-.36-.03-.11-.16-.25-.27-.27-1.14-.17-2.29-.22-3.44-.14-.5.3-1.03.4-1.54.09-1.03-.64-2.16-.68-3.32-.6-.05,0-.11-.06-.17-.1.03-.04.05-.09.09-.11.06-.03.13-.06.19-.06,1.08.03,2.16-.01,3.23-.23.32-.06.67.07,1,.07.68,0,1.35-.02,2.03-.05.29-.01.48-.21.66-.42.21-.24.44-.2.71-.04.22.13.5.22.75.23.41.01.81-.05,1.08-.43.19-.28.39-.55.6-.82.32-.43.8-.48,1.21-.12.25.22.49.47.72.72.43.46.92.48,1.48.26.5-.19.74-.39.58-.88-.17-.54.07-.9.26-1.32.13-.28.02-.49-.17-.72-.36-.43-.34-.49-.07-.84.2-.27.4-.54.61-.8.13-.15.27-.39.42-.4.82-.03,1.18-.9,1.95-1.01.62-.09.92-.52,1.11-1.06.07-.19.13-.39.19-.58.11-.35.33-.57.69-.67.19-.06.37-.16.55-.25.4-.2.41-.22.14-.56-.12-.16-.27-.3-.38-.47-.12-.17-.08-.49.07-.54,1.02-.32,1.73-1.03,2.4-1.8.09-.1.19-.21.31-.26.11-.05.26-.05.38-.02.14.03.18.16.11.32-.1.25-.2.5-.3.75-.12.05-.25.1-.37.16-.18.09-.3.23-.22.45.02.05.11.09.16.09.24,0,.35-.17.4-.37.03-.12-.01-.25-.02-.38,1.04-.46,2.13.13,3.18-.13.06-.01.15,0,.2.04.75.65,1.68.28,2.51.43.85.15,1.74.07,2.62.04.4-.01.89-.03,1.17-.25.94-.71,2.08-.9,3.12-1.34.24-.1.46-.28.68-.44.13-.09.24-.08.32.06.03.05.02.15,0,.2-.26.45.08.76.26,1.11-.21.07-.42.15-.48.4-.18.02-.18.14-.09.1.25-.08-.03.12.05-.14.16-.14.32-.27.47-.41.24.12.49.22.71.36.61.41,1.29.77,1.79,1.29.45.48.71,1.14,1.02,1.74.34.66,1.1,1.01,1.27,1.8.02.09.22.14.34.21.92.53.99.58.46,1.31-.42.58-.25,1,.07,1.46.05.07.26.13.33.09.58-.35,1.11-.8,1.71-1.08.55-.25.94-.49.85-1.18-.02-.16.13-.43.28-.51.78-.38,1.46-.97,2.32-1.16.1-.02.28.07.33.16.14.23.19.51.34.73.49.7,1.37.68,1.86-.04.11-.17.14-.41.28-.53.12-.12.35-.15.53-.16.05,0,.14.21.17.33.04.13.02.27.04.4.04.24.24.4.4.35.25-.09.51-.17.76-.27,1.41-.63,1-.39,1.99.52.47.43.44,1.12.93,1.52.02.18.02.37.08.55.02.06.18.07.28.1.01-.11.08-.26.03-.31-.12-.12-.29-.2-.44-.29.38-.87,1.06-1.54,1.59-2.31.1-.14.34-.2.52-.28.04-.02.12.02.16.05.04.04.09.13.08.16-.25.53-.24,1.18-.8,1.56-.3.2-.16.49.01.69.29.33.03.43-.17.61-.09.08-.16.22-.2.34-.11.33.11.7.44.77.53.11.67.02.85-.67.14-.53.42-.98.75-1.4.23-.29.58-.38.84-.06.35.42,1.04.36,1.23.96l.04-.05c-.05.04-.11.08-.16.13-.48.47-.54.63-.36.8.23.21.49.22.75.13.32-.1.63-.24.95-.35.19-.07.24-.29.09-.51-.22-.34-.47-.66-.7-.98-.17-.23-.13-.49.12-.7.2-.18.41-.36.63-.51.22-.16.48-.25.76-.15.32.12.64.23.94.37.34.16.46.49.52.82.05.31-.18.48-.43.62-.11.07-.22.16-.32.25-.24.23-.09.7.25.79.53.14,1.05.19,1.59-.03.55-.23,1.13-.4,1.71-.55.17-.04.41.01.57.1.59.34,1.03.02,1.46-.31.07-.06.11-.27.06-.35-.17-.28-.33-.6-.58-.8-.32-.25-.72-.33-1.14-.13-.14.06-.29-.05-.26-.2.02-.11.16-.28.24-.28.33,0,.69,0,.99.12.5.2.9.04,1.34-.17.31-.15.66-.18.55.42-.06.34.38.3.6.41.41.21.78.17,1.11-.17.19-.2.36-.41.55-.59.56-.51,1.54-.22,1.8.49.18.49.15.89-.29,1.22-.01.01.01.12.05.15.05.03.14.05.18.02.23-.13.52-.24.67-.44.47-.61.97-1.09,1.79-1.17.12-.01.23-.28.33-.45.23-.39.29-.43.57-.25.22.14.39.5.67.38.59-.25,1.18.33,1.77-.06.42-.28.91-.2,1.38-.06.08.09.16.18.26.26.04.03.14.02.17-.02.11-.12.06-.23-.11-.25-.12,0-.24.03-.35.05.17-.43.34-.86.51-1.29l-.02.02c.35.02.79.06.79.46,0,.77.51,1.08,1.07,1.3.29.12.68.12.99.03.4-.12.29-.54.31-.86.01-.2.09-.39.14-.59l-.03.04c.29.02.51.16.62.42.17.36.32.74.66.98.1.07.24.09.37.1.26.02.37-.17.36-.37-.02-.42.1-.76.33-1.11.22-.35-.06-.61-.3-.84l.04.04c.15-.5.36-.74.58-.61.76.48,1.64.51,2.48.71.26.06.51.18.77.26.29.08.59-.1.81-.47.11-.19.07-.45-.11-.52-.19-.08-.39-.11-.57-.19-.12-.05-.29-.14-.3-.23-.01-.1.11-.27.21-.31.43-.18.87-.35,1.32-.46.17-.04.4.05.58.13.74.3.75.31,1.09-.17.27-.38.56-.76.8-1.17.31-.54.62-1.02,1.27-1.23.22-.07.36-.37.54-.56.32-.34.63-.7.99-1.01.12-.11.46-.17.54-.09.44.45,1.15.34,1.56.85.17.21.52.26.76.12,1.15-.65,2.3-.56,3.48-.09.11.05.27-.01.4-.03v.15s.01-.09.01-.09c-.14-.22-.31-.43-.4-.66-.07-.19.02-.4.24-.46.32-.09.65-.17.97-.21.08-.01.24.12.26.22.12.44.29.88-.07,1.31-.1.12.04.25.21.24.41-.01.87-.04,1-.48.18-.58.59-.64,1.06-.66.13,0,.27,0,.4-.01l-.05-.04c-.03.19-.09.39-.07.57,0,.09.19.25.25.23.76-.18,1.49-.43,2.13-.88.09-.06.09-.24.14-.36l-.05.05c.63-.41,1.25-.47,1.87.05.28.24.58.31.93.12,1.18-.63,2.52-.99,3.47-2.03.12-.13.37-.15.56-.17.13-.01.26.05.39.1.86.3,1.59.23,2.07-.66.23-.42.66-.4,1.05-.49.6-.14.74-.36.77-1.02.01-.26,0-.53.02-.79,0-.04.1-.11.14-.1.12.02.33.08.33.12-.04.75.22,1.45.35,2.17.03.21.28.26.46.09.24-.23.48-.47.7-.72.43-.48.96-.51,1.38-.05.27.3.51.63.77.95.2.23.45.23.7,0,.19-.17.15-.34-.04-.49-.14-.1-.2-.23-.08-.32.09-.08.24-.13.36-.12.13,0,.26.08.38.14.56.29,1.03.16,1.47-.26.16-.15.4.01.36.28-.05.36-.05.65.29.87.46.29.88.66,1.37.87.51.22.93.49,1.3.9.28.31.67.41,1.11.22.56-.24,1.11-.41,1.77-.25.4.1.84-.3.86-.69.05-1.17.91-1.39,1.76-1.64.11-.03.26.03.39.07.49.19.6.8.2,1.15-.1.09-.24.12-.35.2-.27.2-.38.24.25.66.04,0,.09.02.13.02-.06,0-.12.01-.18.02.14-.14.26-.31.43-.41.24-.14.5-.13.74.03.21.13.2.56.54.46.14-.04.21-.29.33-.43.08-.09.21-.23.3-.21.82.16,1.5-.45,2.3-.39-.02.18.02.22.09.14-.05-.03-.09-.07-.14-.1.03-.13.04-.27.09-.39.14-.37.38-.48.55-.21.29.46.55.5.92.13.27-.27.62-.19.94-.16.1,0,.24.12.28.22.04.09-.03.23-.07.34-.02.05-.1.07-.15.11-.5.38-.49.38-.28.72.49.8,1.15,1.45,1.74,2.17.18.08.36.21.54.23.25.03.31-.16.25-.38l.15.04h-.11c-.29.05-.58.1-.88.15.1-.17.21-.35.31-.53.14-.26.16-.53-.07-.73-.25-.22-.53-.41-.64-.75-.06-.18-.01-.5.13-.55.12-.05.29-.13.36-.08.42.28,1.05.09,1.35.68.16.32.59.22.93.22.45,0,.46,0,.39.56-.03.21-.07.44.16.51.44.15.85.34,1.24.62.29.21.78.14,1.14.29.74.31,1.64.06,2.28.7.03.03.12,0,.19,0,.14.01.43-.24.4-.39-.02-.12-.06-.29-.15-.33-.36-.18-.74-.32-1.11-.47-.67-.28-1.09-.77-1.29-1.47-.08-.31-.04-.58.23-.68.44-.17.88-.3,1.2-.7.24-.3.61-.19.94-.13.18.03.2.12.14.3-.16.48-.61.46-.96.61-.1.04-.15.21-.21.32,0,.02.07.09.12.11.3.15.6.29.9.43.06.03.11.08.17.11.84.45,1.09.57,1.85-.44l-.05.05c.75.36,1.38.18,2-.35.33-.29.58-.14.83.38l.04-.05c-.6.54-.79,1.24-.78,2.02,0,.26.3.55.54.47.68-.23,1.47-.19,2.02-.78.02-.02.3.1.31.17.04.33.03.67.03,1.01l-.14.04h.09c.25-.16.5-.31.76-.46l-.05-.05c.18.28.36.57.55.85.1.16.22.15.33.01.25-.31.46-.66.88-.81.32-.11.29-.42.29-.68,0-.36.14-.65.42-.88.26-.21.63-.38.74-.66.11-.26-.05-.64-.08-.97,0-.05.06-.12.11-.15.05-.03.12-.04.18-.02.06.01.14.05.16.1.27.73.75,1.25,1.43,1.62.04.02.06.13.05.19,0,.05-.07.12-.12.12-.26.05-.53.08-.79.13-.2.04-.42.06-.58.17-.14.1-.31.32-.28.46.03.15.27.39.4.38.73-.05,1.47-.09,2.15-.45.11-.06.27-.08.38-.03.1.04.16.18.21.29.03.05.02.16-.01.19-.1.09-.23.22-.33.2-.85-.11-1.4.28-1.81.97-.1-.09-.2-.19-.31-.25-.35-.2-.59-.14-.83.22-.03.05-.02.14,0,.19.03.05.12.11.16.1.32-.09.63-.21.94-.31.23-.18.49-.27.75-.14.3.14.57.36.87.5.1.05.34.03.36-.02.24-.54.75-.95.77-1.62.01-.4.09-.81.23-1.19.09-.23.32-.43.52-.6.16-.14.39-.13.55.02.34.32.53.76.96,1.02.28.17.22.63-.07.89-.3.26-.65.47-.96.73-.08.07-.13.26-.1.36.03.1.21.23.3.21.76-.16,1.58.01,2.28-.51.25-.18.65-.15.96-.26.1-.03.22-.18.24-.29.04-.25-.06-.57.05-.77.13-.22.31-.4.39-.67.13-.43.31-.47.74-.27.22.1.29.33.09.45-.54.34-.65.85-.62,1.41,0,.17.15.38.29.49.18.16.43.05.51-.13.25-.51.6-.63,1.16-.53.81.14,1.59-.25,2.4-.28.37-.51.7-.46,1.08.03.32.41.87.49,1.31.46,1.15-.08,2.29.19,3.43.06.2-.02.4-.09.57-.17.18-.09.31-.24.27-.48-.13-.68-.4-1.29-.84-1.82-.1-.13-.03-.29.12-.32.12-.02.27,0,.37.05.11.06.2.18.26.3.18.33.42.51.82.44.2-.03.41,0,.61.01.4.02.56.24.66.62.06.23.5.32.69.19.16-.11.3-.25.42-.41.3-.42.69-.47,1.06-.25.57.34,1.1.83,1.71,1,.55.15,1.21-.01,1.81-.09,1.96-.26,3.93-.22,5.9-.31,1.97-.09,3.93-.22,5.87-.59,2.01-.37,4.05-.46,6.09-.49,1.85-.03,3.65-.25,5.45-.68,2.05-.49,4.15-.7,6.23-1.01,2.08-.31,4.16-.67,6.15-1.36.81-.29,1.56-.4,2.36-.06.25.11.55.2.78.03.76-.55,1.71-.27,2.53-.59.34-.13.81-.03,1.2.06.73.17,1.31.02,1.83-.55.3-.33.58-.25.84.1.08.11.18.22.22.34.25.74.87.76,1.49.82.06,0,.12.06.15.11.08.1.02.2-.16.25-.71.2-1.43.38-2.14.58-.45.13-.9.28-1.34.45-.11.04-.17.19-.25.29-.19,0-.37-.01-.56-.01-.19,0-.24.09-.12.22.03.03.13.04.18.02.16-.08.31-.18.47-.27.4.02.81-.09,1.2.1.17.08.42.17.58.12.88-.29,1.75-.03,2.63-.03.95,0,1.9-.18,2.84.08.06.02.14.02.2,0,1.21-.4,2.42-.04,3.63,0,1.89.06,3.79-.16,5.68,0,1.42.11,2.84.06,4.25-.14.2-.03.41-.06.61-.03,1.68.24,3.37.27,5.06.16,1.38.31,2.87.28,4.04,1.22.79.63,1.68.84,2.62,1,.4.07.82.13,1.17.3.97.49,1.96.91,3.02,1.19.68.18,1.17.68,1.64,1.17.33.34.57.77.9,1.1,1.42,1.38,1.82,3.15,1.91,5.01.05,1.15-.02,2.31-.1,3.46-.1,1.49-.14,2.98-.07,4.48.05,1.01-.08,2.03-.19,3.04-.13,1.21-.32,2.42-.47,3.63-.17,1.37-.73,2.61-1.23,3.87-.3.76-.68,1.4-1.35,1.96-.61.51-1.11,1.14-1.93,1.33-.05.01-.1.09-.13.15-.03.06-.08.14-.06.19.36.99-.15,1.51-.99,1.86,0-.38.01-.77,0-1.15,0-.07-.2-.2-.24-.18-.1.06-.23.18-.22.28,0,.41.28.7.52,1,.18.2.37.39.52.61.04.06-.06.32-.11.33-.46.05-.94,0-1.35.29-.09.06-.21.23-.19.29.13.31.26.62.47.88.19.25.51.04.76.08.1.02.27.13.27.19-.06.72-.14,1.44-.25,2.16-.01.1-.15.22-.26.25-.63.21-1.29.25-1.95.23.34-.31.69-.61,1.02-.93.31-.31.37-.79.1-1.08-.31-.34-.65-.66-.99-.97-.06-.05-.28-.02-.33.04-.55.73-.64,1.57-.57,2.45,0,.1.15.21.26.27.18.08.38.12.57.18.28.66.7,1.17,1.47,1.24.77.07.22.28.07.49-.07.1-.13.27-.09.37.63,1.6.59,3.33.98,4.98.1.43.3.48.68.54.51.08.58.26.28.62-.62.74-1.13,1.51-.8,2.55-.21,1.71.24,3.37.33,5.06.01.26.12.53.21.78.23.65.29,1.34.24,2.01-.07.89-.06,1.76.14,2.62.08.35.04.68-.11.99-.41.85-.82,1.69-.78,2.68,0,.18-.18.36-.23.56-.08.31-.29.43-.59.45-.29.02-.56.12-.55.46.02.67-.14,1.33,0,2.01.11.53.16.61.82.66.13,0,.27-.02.41-.03l-.02-.05c-.03.39.02.73.45.87l-.05-.02c-.21.17-.42.33-.62.5-.33.29-.36.47-.02.79.36.33.59.72.74,1.17.08.25.13.52.25.75.3.57.31.56-.18.99-.15.13-.33.24-.45.39-.05.07-.02.27.05.35.06.08.23.16.33.13.25-.07.51-.16.73-.3.31-.21.51-.02.68.16.22.24.38.53.57.8l-.03-.05q.23.33.48,0l-.05.06c.27,0,.54-.03.82-.02.29,0,.52.13.64.42.1.25.2.5.31.75.09.21.05.36-.11.53-.31.32-.42.8-.99.92-.25.05-.46.45-.63.73-.08.14.08.43,0,.53-.11.13-.36.13-.55.2-.06.02-.12.07-.15.13-.03.05-.03.12-.02.18.01.06.06.16.09.16.26,0,.52,0,.78-.03.43-.04.81.07,1.1.4.22.26.46.5.66.78.07.09.13.29.08.35-.66.84.07,1.88-.42,2.76-.1.18.07.51.11.77.08.42-.12.86-.5.98-.51.17-1.05.28-1.57.42-.11-.06-.22-.15-.35-.19-.44-.16-.55-.11-.78.31-.06.11-.09.25-.14.37-.22-.13-.43-.27-.66-.37-.09-.04-.24.02-.34.08-.11.06,0,.37.17.44.31.14.61.18.79-.2.45-.16.9-.33,1.34-.49.1.28.34.35.6.39.19.03.37.09.56.13l-.04-.04c.06.12.06.25-.02.36l-.02.08v-.13c.12.07.24.13.35.21.24.17.35.41.34.7-.01.32-.24.42-.51.53-.24.1-.27-.17-.18.08.02.05.09.1.14.11.32.05.79-.04.9.29.14.4.33.69.69.91.03.02,0,.27-.07.33-.36.29-.86.39-1.1.83-.03.05-.02.13,0,.19.02.05.08.11.14.12.06.02.13,0,.2,0,.2.01.49-.04.57.06.17.24.24.55.34.84.01.04-.04.15-.08.16-.33.07-.67.09-.99.19-.48.15-.88.14-1.31-.21-.37-.3-.86-.37-1.35-.3-.25.03-.32.21-.23.41.16.34.21.64-.2.83-.17.08-.23.16-.14.26.23.27.8.4,1.1.24.1-.06.13-.23.22-.32.16-.17.46-.17.52-.01.23.62.46,1.24.69,1.86l.05-.05c-.6-.12-1.2-.2-1.79.04-.12.05-.23.13-.35.19.11.06.22.13.33.19.12.06.26.09.36.18.09.08.17.22.17.34,0,.1-.12.23-.22.27-.18.08-.41.07-.57.17-.12.07-.08.26.07.32.44.16.24.29.02.47-.08.07-.14.25-.11.35.02.08.2.18.29.17.59-.07,1.24-.02,1.54-.74.02-.05.28-.08.35-.02.35.31.67.66,1.03.96.14.12.23.18.11.23-.11.05-.25.06-.38.06-.2,0-.4-.03-.6-.02-.03,0-.08.11-.09.17,0,.06.02.15.06.17.17.1.34.21.52.24.39.06.81-.05,1.18.19.24.15.48.3.43.61-.08.57.11,1.16-.32,1.73-.3.4-.3,1.01-.43,1.53l.04-.02c-1.01.04-2-.01-2.94-.44-.12-.05-.27-.09-.39-.05-.1.03-.22.15-.25.26-.12.52.1.81.56.79.2,0,.4-.06.59-.03.11.01.25.13.28.23.04.1,0,.27-.07.36-.07.1-.24.13-.33.22-.07.08-.09.2-.13.31.12.02.25.08.37.06.5-.08.91-.24.82-.88-.01-.08.13-.21.23-.27.14-.08.27-.01.33.14.1.25.21.5.49.59l-.06-.04c.24.4.82.49.9,1.05.02.11.32.18.5.27.1.05.21.1.32.14-.05.04-.09.11-.15.13-.19.07-.41.08-.57.19-.27.19-.86.23-.43.83.08.1-.09.22-.26.24-.47.06-.93.14-1.39.24-.09.02-.19.21-.19.32,0,.09.13.24.22.25.4.05.8.06,1.2.09.04,0,.09.08.09.12,0,.06-.02.16-.06.19-.24.13-.49.23-.73.35-.17.09-.34.19-.51.28.17.28.44.19.69.2.27.01.54.01.8.05.17.02.22.15.18.32-.13.45-.06.79.43.97.19.07.38.17.54.29.08.06.16.27.13.3-.09.09-.24.17-.36.16-.53-.04-1.06-.11-1.59-.16-.04,0-.1.08-.13.14-.02.05-.04.16,0,.18.32.25.63.51,1.07.51.2,0,.4.04.59.08.2.04.22.23-.01.43-.13.11-.26.21-.17.26.24.12.51.17.77.27.31.12-.07.51.26.64.28.11.52.29.07.49-.49.22-.55.61-.4,1,.17.46-.03.58-.4.69-.19.06-.17.2.01.23.34.06.65.15.86.47.15.23.06.58-.17.69-.38.19-.78.19-1.19.17l-.11-.06.16.02c-.07.26-.2.61.09.73.92.36.99,1.37,1.55,1.99.15.16.13.52.09.78-.03.16-.26.27-.39.41-.09.1-.18.2-.27.3l.04-.05c-.18.18-.39.34-.55.55-.16.22-.21.47.06.69.06.05.07.27.03.29-.72.39-.35,1.21-.7,1.75-.13.03-.27.03-.38.09-.14.08-.09.16.06.11.11-.04.19-.16.29-.24.68.03,1.35.05,2.03.09.05,0,.15.07.15.08-.04.12-.07.31-.15.35-.37.14-.77.22-1.15.34-.05.02-.1.1-.12.16,0,.03.05.11.08.11.4.03.81.05,1.21.07.39.02.4.05.41.61,0,.33.04.67.1.99.04.25.07.58.23.73.18.16.51.13.76.23.08.03.17.23.14.29-.2.37-.47.68-.9.75-.47.08-.94.12-1.41.17-.57.05-.78.48-.98.91-.03.06.11.26.19.27.26.05.54.02.81.06.46.07.71.36.73.83-.3-.01-.6-.22-.91-.03-.03.02-.06.09-.05.13.01.05.05.13.1.14.35.13.6-.01.8-.29.33,0,.66-.01.99-.01.06,0,.17.05.17.08,0,.1,0,.27-.05.28-.72.28-1.16.88-1.68,1.4.02-.13.06-.26.07-.4,0-.05-.04-.1-.07-.14,0,.17.02.33.03.5,0,.25.01.51.02.76l.04-.04c-.13-.02-.27-.04-.4-.06-.36-.06-.68.02-.88.34-.22.34-.41.69-.6,1.04-.17.32.04,1.07.36,1.27.86.51,1.74,1,2.78,1.08.32.03.53.54.38.8-.17.29-.36.57-.56.84-.18.23-.25.49-.17.76.14.48-.05.76-.47.96-.3.14-.63.26-.9.46-.14.1-.19.34-.24.53-.08.3.13.58.41.52.39-.08.77-.2,1.16-.3l-.05-.04c.2.17.43.32.61.52.13.14.26.35.25.52-.02.26-.22.5-.24.75-.02.25.13.51.14.76,0,.19-.1.38-.14.58-.05.26-.07.53-.14.78-.03.1-.2.24-.28.23-1.08-.18-.9.77-1.13,1.3-.06.14.18.53.37.64.25.13.49-.08.6-.36l-.04.04c.52.09,1.04.17,1.56.29.07.02.14.32.13.33-.44.23-.66.65-.98.98-.31.33-.79.5-1.19.74-.28.17-.33.57-.11.89.17.24.5.39.69.25.57-.42,1.19-.63,1.9-.54.07,0,.13.03.2.05-.04.12-.04.28-.13.35-.31.26-.65.48-.97.72-.17.13-.11.35.14.47.24.12.54.3.74.04.24-.32.46-.47.8-.2.32.25.64.49.94.76.08.08.09.24.11.37,0,.03-.1.08-.16.1-.06.03-.13.05-.19.06-1.29.18-1.28.18-1.2.37.22.55.83.37,1.2.62.17.11.38.15.55.25.18.11.3.27.23.5-.04.13-.08.26-.11.39-.09.34-.23.62-.62.71-.33.07-.66.16-.97.27-.1.04-.17.19-.24.3-.01.02.05.12.1.14.43.19.86.38,1.3.56.32.13.27.4.3.67.07.79-.54,1.01-1.04,1.34-.07.05-.08.22-.08.33,0,.04.09.11.15.13.2.04.4.08.6.09.2.01.41-.02.61,0,.11.02.21.11.3.2.1.09-.11.38-.33.45-.52.15-1.04.29-1.56.43-.68.18-.7.22-.56.3.22.13.48.21.73.28.42.12.78-.05,1.14-.27.36-.22.62-.09.79.3.1.22.05.48-.11.54-.63.24-1.32.29-1.88.71-.04.03-.06.11-.08.17-.05.15,0,.26.17.3.26.06.53.09.8.15.22.05.26.22.13.44-.21.35-.41.7-.88.77-.2.03-.36.17-.4.39-.08.09-.16.17-.24.26.03.02.06.03.09.05.04-.11.07-.23.11-.34.07.01.13.02.2.03.33.06.71.06.54.58.21.14.43.27.63.42.04.03.04.13.02.18-.14.35-.15.71.16.92.73.49.94,1.27,1.28,2,.73,1.61,1.57,3.16,2.06,4.87.5,1.76,1.16,3.48,1.42,5.3.03.2.09.4.16.59.2.57.53.93,1.2.82.22-.04.36.14.42.35.1.3.03.57-.19.73-.11.08-.22.18-.35.21-.64.11-.7.54-.63,1.06.07.57.17.7.7.84.13.03.27.08.4.07.21-.01.31.08.19.19-.32.29-.06.65-.16.96-.06.22-.17.31-.41.32-.08,0-.23.16-.23.25-.01.81-.08,1.64.02,2.44.41,3.06-.05,6.09-.24,9.13-.12,1.87-.72,3.57-1.44,5.25-.38.88-.8,1.73-1.51,2.39-.58.54-.51,1.2-.39,1.87.02.13.1.26.18.36.43.6.48,1.28.34,1.95-.09.48-.06.91.06,1.38.07.31-.04.66-.09.99-.05.34-.65.4-.47.81.13.3.42.52.62.79.08.11.19.25.17.36-.2.93.31,1.88-.09,2.8-.18.42-.1.8.17,1.14.32.4.47.81.26,1.32-.11.27-.06.56.13.76.62.66.49,1.35.16,2.07-.11.24-.31.57-.08.76.61.51.46,1.23.64,1.86.07.25.24.47.36.7l-.02-.05c.05.19.03.44.15.56.47.48.99.91,1.48,1.37.13.12.11.26-.03.34-.53.3-1.09.56-1.59.89-.31.2-.58.25-.94.22-.39-.03-.8.07-1.19.15-.3.06-.32.16-.22.75.02.11-.03.29-.11.33-.09.05-.26.02-.37-.02-.12-.05-.23-.15-.31-.25-.23-.29-.52-.41-.89-.38-.67.04-1.34.14-2.02-.08-.53-.17-1.08-.06-1.56.25-.17.11-.38.28-.54.26-1.39-.19-1.85.83-2.39,1.76-.23.4.02.75.52.78.57.04.59.04.7.67.05.3.15.57.45.6.73.08,1.45.36,2.21.09.23-.08.54,0,.8.07.77.2,1.52.07,2.18-.27.59-.3,1.1-.48,1.73-.21.07.03.21-.14.32-.2.23-.13.39-.01.45.19.08.28.16.48.52.48.73,0,1.47.07,2.21-.02.1-.01.23.12.33.21.12.12-.1.34-.37.33-1.85-.07-3.65.33-5.47.54-2.5.29-5,.52-7.5.77-1.62.16-3.25.2-4.85.47-.69.12-1.02.48-.87,1.1.23.92.53,1.82.81,2.72.18.56.79.44,1.18.68.13.08.17.21.05.33-.14.13-.35.2-.49.34-.14.13-.31.31-.31.47-.01.54.03,1.09.08,1.63.13,1.49.24,2.97-.09,4.45-.2.88-.13,1.76.2,2.61.31.78.33,1.59.13,2.41-.16.66-.26,1.34-.46,1.98-.23.71-.48,1.41-.52,2.17-.01.19-.14.38-.22.56-.11.25-.48.36-.68.18-.15-.13-.29-.28-.43-.43-.47-.52-.92-.52-1.22.12-.39.82-.93,1.48-1.6,2.07-.45.39-.98.46-1.52.38-1.04-.17-1.93-.68-2.59-1.5-.31-.38-.6-.67-1.13-.76-.29-.05-.53-.39-.8-.59-.94-.69-1.97-.88-3.09-.54-.19.06-.38.15-.57.21-1.17.39-2.35.63-3.6.6-.54-.01-1.08.06-1.63.08-1.07.04-2.14.24-3.22.12-1-.11-2.01-.09-3-.21-1.15-.14-2.3-.04-3.44-.15-.13-.01-.28-.04-.41,0-1.31.4-2.69.33-4.02.55-.26.04-.5.22-.76.29-.92.23-1.79.61-2.77.59-.68-.02-1.43.07-1.93.53-.58.54-1.2.52-1.88.58-2.11.21-4.2-.16-6.28-.35-1.14-.1-2.24-.37-3.4-.12-.38.08-.8-.07-1.2-.12-1.27-.15-2.54-.19-3.81-.47-1.25-.28-2.54-.46-3.78-.8-.86-.24-1.72-.02-2.57-.05-.96.46-2.01.38-3.01.31-1.43-.1-2.85.08-4.27.06-1.56-.02-3.09.4-4.65.29-1.02-.07-2.03-.06-3.05.09-.4.06-.81-.03-1.22-.02-.4,0-.84-.03-1.2.11-.61.23-1.17.19-1.79.02-.3-.09-.68-.05-.99.05-2.35.74-4.79.9-7.2,1.28-.67.11-1.35.18-2.01.32-1.13.23-2.24.55-3.41.41-1.3.4-2.71.03-4.01.54-.3.12-.72.22-1,.11-1.31-.53-2.53.16-3.79.21-.46.02-.92.12-1.39.02-.18-.04-.49,0-.56.12-.31.54-.83.62-1.34.76-.05.01-.09.32-.05.35.23.13.49.2.73.31.59.29.65.95.11,1.28-.23.14-.51.21-.72.38-.14.11-.29.35-.26.5.33,1.38.08,1.55,1.74,1.78.2.03.4.04.61.05.51.02.75-.14.98-.79.11-.32.28-.43.58-.43l-.05-.04c.58.49,1.32.55,2.02.73.04.01.14-.06.15-.1.04-.12.1-.3.05-.36-.3-.35-.65-.66-.96-1.01-.23-.26-.1-.72.22-.82.44-.14.89-.27,1.35-.36.31-.06.74.27.67.57-.17.76.67,1.16.59,1.86.28.27.63.15.95.18.24.02.41-.16.39-.35,0-.07-.02-.13-.02-.2-.03-.73-.49-1.22-.96-1.71l-.05.04c1.64-.85,2.02-.51,2.5,1.04.06.19.09.4.16.59.13.36.56.65.97.62.54-.04,1.09-.06,1.62-.2,1.12-.3,2.26-.33,3.4-.25.47.03.95.03,1.43.03.23,0,.37-.13.38-.37.01-.2-.01-.41,0-.61.02-.27.25-.45.39-.32.85.83,1.84,1.05,2.98.79.14-.03.38.11.5.24.13.14-.14.5-.39.61-.51.23-1.05.36-1.59.29-1.73-.25-3.38.18-5.03.53-1.22.26-2.4.39-3.63.08-.39-.1-.81-.12-1.21-.1-1.15.08-2.31.13-3.45.31-1.34.22-2.7.32-4.05.46-.95.1-1.89.14-2.84.18-.95.03-1.9.07-2.85.14-2.85.2-5.7.42-8.54.62-.41.03-.82.01-1.22.02-1.97.04-3.94.06-5.91.12-1.22.04-2.44.08-3.65.34-1.54.33-3.1.4-4.66.09-.78-.16-1.65-.01-2.33-.58-.13-.11-.23-.04-.35.06-.72.58-1.47.61-2.2.03-.33-.26-.59-.27-.83.09-.04.05-.09.14-.14.14-.74.05-1.48.1-2.23.11-.18,0-.37-.15-.55-.24-.24-.12-.27-.56-.04-.68.23-.12.49-.18.74-.27.06-.02.11-.06.16-.1-.05-.05-.1-.15-.14-.14-.5.12-.83-.52-1.35-.3-.51.22-.89-.26-1.36-.27-.47-.02-.95-.05-1.42-.06-.06,0-.13.05-.17.1-.11.14-.08.24.06.3.37.18.77.31,1.09.55.31.23.63.17.96.21.34.04.58.29.51.49-.07.23-.31.34-.68.32-.54-.04-1.09-.08-1.63-.12-.95-.07-1.89-.04-2.85.06-.94.1-1.9.11-2.84.02-2.38-.23-4.76-.2-7.14-.25-2.92-.06-5.84.12-8.75.35-1.69.13-3.4.09-5.1.15-1.97.08-3.94.11-5.91.04-.2,0-.42-.04-.61,0-1.47.3-2.98.17-4.46.37-1.69.22-3.38.34-5.07.43-.4.02-.8.14-1.21.19-.47.06-.94.14-1.41.16-.95.05-1.89.1-2.83.31-.99.22-2.02.25-3.04.05-.03,0-.07-.09-.06-.11.02-.06.07-.14.12-.14.34-.04.68-.06,1.01-.1.31-.04.61-.29.57-.47-.06-.22-.59-.57-.82-.51-.2.05-.42.07-.57.19-.73.55-1.53.51-2.34.31-.54-.14-1.04-.19-1.58.04-.57.25-1.2.28-1.81.19-.77-.11-1.48.05-2.19.31-.63.24-.65.29-.07.84.04.04.08.11.08.17,0,.03-.07.1-.11.1-1.5-.03-2.94.56-4.45.41-.43-.04-.9.29-1.28-.14.35-.39.88-.3,1.31-.43.51-.15,1.08-.1,1.61-.17.18-.02.34-.16.51-.24-.19-.06-.38-.18-.56-.18-.82,0-1.63.03-2.44.09-1.36.1-2.71.14-4.06-.02-.65-.08-.83.09-1.03.71-.27.82-.43.94-1.27.94-.13,0-.27-.05-.39-.09-.06-.02-.17-.07-.17-.1,0-.12,0-.29.07-.35.26-.2.56-.36.83-.56.08-.06.12-.21.15-.32,0-.02-.1-.11-.15-.11-.34,0-.68.05-1.01,0-.48-.06-.79.11-.94.56-.09.29-.28.45-.58.48-.13.01-.34.02-.37.09-.34.77-.9.36-1.4.29l.02.05c-.02-.26-.03-.52-.29-.67-.32-.18-.63-.1-.9.1-.2.15-.34.37-.51.56l.03-.05c-.37-.14-.75-.37-1.1.05-.13.15-.25.31-.49.3-.54-.02-1.09,0-1.63-.02-.26,0-.58.06-.72-.24-.08-.17-.02-.4-.07-.59-.03-.09-.17-.21-.27-.22-.19-.02-.47.42-.55-.12-.05-.35-.09-.61-.56-.69-.66-.12-1.32-.32-1.95-.57-.78-.31-1.58-.38-2.4-.37-2.03,0-4.06.03-6.1.03-2.17,0-4.34.14-6.48.49-.61.1-1.18.16-1.79.11-.52-.04-1.02.35-1.59.21-.25-.06-.57-.07-.8.02-.92.35-1.84.35-2.79.13-.19-.04-.41,0-.61.04-.45.11-.9.35-1.35.36-.48,0-.93.06-1.4.15-.53.1-1.08.18-1.62.16-1.29-.05-2.57-.06-3.84.28-1.06.28-2.17.25-3.24.22-2.37-.09-4.74,0-7.11.01-1.49.02-2.99-.11-4.48-.2-1.23-.07-2.38-.53-3.53-.92-.79-.27-1.54-.5-2.38-.35-.48.08-.96,0-1.38-.24-.37-.21-.64-.02-.93.14-.25.14-.54.16-.77,0-.47-.33-.99-.36-1.55-.4-.52-.04-.99-.48-1.56-.23-.86-.2-1.72-.22-2.62-.19-.86.03-1.73-.3-2.6-.43-.32-.05-.71-.06-.99.07-1.25.6-2.52.34-3.79.14-.67-.11-1.34-.24-2.02-.21-.2,0-.42-.06-.6-.01-1.79.48-3.61.44-5.44.41-.67,0-1.34.15-2.02.19-.81.05-1.63.06-2.45.09-.41.02-.84-.04-1.21.09-.81.28-1.59.31-2.39,0-.12-.05-.27-.07-.4-.06-1.95.22-3.93-.05-5.86.38-.49.11-.93.13-1.35-.2-.34-.26-.7-.35-1.14-.18-.24.09-.53.06-.8.05-.37-.02-.65.16-.91.38-.3.25-.69.27-.94.03-.49-.48-1.05-.51-1.68-.56-.81-.06-1.61-.24-2.4-.4-.81-.16-1.61-.07-2.42-.03-.72.03-1.45-.32-2.19-.35-.95-.04-1.9.04-2.81-.32-.54.15-1.07.23-1.53-.21-.47,0-.93-.06-1.33-.37-.48-.37-1.07-.06-1.59-.21-.4-.12-.77-.2-.85-.73-.1-.71-.87-.98-1.13-1.6-.02-.04-.12-.07-.18-.07-.85.05-1.23-.44-1.37-1.19-.07-.4-.31-.56-.69-.6-.29-.03-.51-.17-.56-.48-.06-.4-.15-.81-.17-1.21-.04-.85-.31-1.62-.94-2.17-.39-.34-.3-.69-.3-1.09,0-.46-.42-.85-.25-1.36.12-.38.13-.8.25-1.18.16-.51.41-.98.23-1.55-.08-.26.09-.53.33-.69.37-.24.57-.57.64-.99.16-.89.47-1.69,1.28-2.22.16-.11.16-.58.04-.77-.22-.34-.45-.67-.67-1.01-.1-.15-.22-.17-.33-.05-.04.04-.06.13-.05.17.11.33.15.63-.08.95-.19.26-.35.38-.46.23-.08-.1-.22-.23-.2-.32.14-.69-.01-1.35-.15-2.01-.11-.51-.08-.48.43-.68.53-.22,1-.29,1.52.07.33.23.8-.07.69-.4-.28-.85.05-1.44.66-1.97.15-.13.23-.33.34-.5l-.05.05c.07-.01.14-.01.19-.04.87-.55,1.3-1.51,2.01-2.2.05-.05,0-.28-.07-.35-.29-.3-.49-.57-.29-1.04.2-.46-.08-.9-.26-1.33-.01-.03.04-.12.09-.15.05-.03.13-.05.18-.03.3.15.58.32.87.47.43.22.63.12.88-.44.03-.06.05-.12.07-.19l-.04.03c.27-.33.88-.54.34-1.12-.08-.09-.08-.25-.11-.39-.01-.06,0-.13,0-.2-.01-.19.23-.37.43-.3.13.04.24.12.36.17.53.19.56.2.64-.33.06-.38.14-.62.6-.59.15.01.41-.17.45-.31.15-.44.2-.92.33-1.37.08-.28.28-.39.61-.34.4.07.73-.15.76-.42.03-.27-.01-.55.04-.81.13-.67.28-1.33.88-1.77.26-.19.26-.45.2-.73-.14-.67-.2-1.32.16-1.98.17-.3-.02-.65-.28-.91-.32-.32-.45-.72-.22-1.1.35-.59.19-1.2.1-1.79-.12-.73-.29-1.48-.6-2.14-.31-.67-.2-1.46-.71-2.05-.21-.24-.04-.48.17-.69.33-.33.32-.35-.2-.55-.46-.17-.51-.26-.42-.75.02-.13.1-.25.15-.37l-.05.03c.3-.13.63-.22.73-.6.26-1.05-.27-1.93-.58-2.86-.02-.05-.11-.07-.16-.1-.7-.51-1.14-1.1-.59-1.99.02-.04-.12-.27-.2-.27-.39-.02-.79,0-1.18,0l.05.05c.29-.34.84-.48.82-1.08,0-.18.09-.41.22-.53.61-.61.95-1.29.72-2.17.36-.58.02-1.17.04-1.75,0-.26.08-.56.22-.77.09-.13.37-.14.55-.22.37-.15.76-.28,1.1-.48.12-.07.2-.39.13-.52-.06-.13-.32-.2-.5-.22-.11-.02-.24.1-.37.16-.12.05-.28.18-.36.14-.43-.19-.85-.4-1.23-.67-.12-.08-.16-.39-.12-.57.06-.26.2-.5.34-.73.11-.19.28-.26.5-.15.12.06.25.11.36.18.42.31.85.42,1.32.14.45-.26.9-.23,1.37-.04.37.15.57-.03.7-.48.03-.1,0-.32-.07-.34-.5-.2-1.01-.4-1.53-.52-.49-.12-.93.01-1.24.47-.09.13-.23.08-.27-.07-.06-.26-.06-.54-.16-.78-.21-.53.04-.92.33-1.31l-.04.04c.43-.08.83-.21,1.2-.48.24-.18.55-.25.84-.36.14.47,0,.91-.1,1.37-.02.08.11.24.2.28.1.05.25.02.38,0,.06,0,.13-.05.16-.1.22-.39.44-.78.66-1.17.08-.15.02-.25-.16-.26-.4-.03-.79-.04-1.19-.06.2-.42.41-.84.31-1.34-.02-.08.12-.27.2-.28.18-.02.39.01.55.09.1.04.17.19.23.31.07.15.24.23.31.09.24-.44.87-.36,1.06-.99.2-.67.72-1.27,1.17-1.84.27-.34.4-.66.36-1.09-.03-.27.11-.51.35-.69.29-.21.4-.53.46-.87l-.05.05c.16-.03.32-.06.48-.09v.15s-.05-.11-.05-.11c.09-.18.17-.37.27-.55.23-.41.87-.11,1.03-.5.12-.29.03-.62.35-.87.34-.27.3-.35-.11-.48-.06-.02-.14,0-.2-.03-.37-.11-.54-.31-.47-.53.09-.27.24-.51.52-.58.25-.06.53-.02.79-.04.04,0,.09-.09.1-.15.01-.06.01-.18-.02-.19-.3-.16-.6-.31-.91-.44-.26-.1-.54.06-.67.31-.16.31-.24.62-.23.98.01.26-.03.53-.07.8,0,.04-.11.07-.17.08-.05,0-.15,0-.16-.04-.08-.18-.2-.36-.21-.54-.02-.38-.15-.64-.5-.8-.11-.05-.28-.2-.27-.26.1-.4.28-.76.6-1.04.04-.04.14-.07.17-.05.79.48,1.57-.1,2.36-.02.35.04.65-.18.84-.49.07-.11.12-.26.09-.37-.02-.1-.16-.23-.26-.25-.63-.08-1.21-.05-1.62.56-.16.24-.52.15-.67-.1-.18-.3-.29-.6-.16-.96.11-.31.23-.64.26-.96.03-.33-.02-.66-.37-.88-.28-.18-.53-.42-.77-.65-.21-.19-.08-.53.23-.61.13-.03.27,0,.4-.04.45-.1.61-.27.53-.47-.08-.21-.24-.29-.43-.37-.25-.09-.49-.2-.71-.35-.06-.04-.08-.3-.02-.35.26-.2.55-.36.82-.54.69.27,1.33,0,1.99-.14.25-.05.52-.03.77-.06.03,0,.05-.12.05-.19,0-.06-.03-.15-.08-.17-.11-.05-.25-.1-.36-.08-.88.15-1.72-.08-2.57-.22-.08-.01-.2-.2-.19-.3,0-.11.11-.25.21-.32.11-.07.27-.04.39-.09.47-.16.47-.21.07-.59-.22-.21-.22-.35,0-.42.44-.14.81-.41,1.36-.23.56.19,1.2.16,1.8.22.07,0,.13-.03.2-.03.18-.01.39-.31.3-.44-.07-.1-.17-.25-.26-.25-.81,0-1.62-.07-2.43.05-.71.11-1.15-.24-1.4-.91-.07-.17-.1-.43-.02-.57.34-.57.8-1.07,1.09-1.69.13-.27.52-.42.8-.61.25-.16.42-.35.3-.66-.26-.65-.58-.88-.99-.85-.44.03-.72.33-1.07.52-.17.09-.27.02-.28-.16,0-.27-.03-.54-.02-.81.01-.32.18-.47.52-.47.81,0,1.63,0,2.44,0,.64.01,1-.23,1.14-.9.07-.32.8-.39,1.06-.15.34.33.43.86.9,1.09.27.38.66.35,1.05.28.05,0,.1-.08.12-.13.01-.02-.04-.1-.08-.11-.38-.15-.76-.11-1.14.01.04-.27.1-.53.12-.8.02-.49-.1-.65-.45-.79-1.04-.4-2.1-.47-3.18-.22-.09.02-.23.18-.22.22.05.11.16.19.25.27.05.05.12.07.16.12.18.23.06.59-.2.64-.5.09-.87-.04-1.05-.39-.06-.12-.11-.25-.13-.38-.09-.6-.5-.69-1.01-.77-.63-.09-1.21.14-1.81.14-.12,0-.28-.06-.34-.15-.05-.08-.04-.31.02-.34.92-.55,1.19-1.42,1.22-2.41.01-.46-.01-.93.01-1.39,0-.1.15-.27.25-.28.66-.07,1.33-.11,2-.17.05,0,.13-.06.14-.11.02-.05,0-.14-.04-.18-.32-.34-.87-.41-1.08-.88-.03-.06-.05-.14-.03-.2.02-.05.1-.11.16-.11.2-.02.4-.06.59-.02.39.09.77.23,1.16.34.2.06.38.13.38.39.02.61.47,1.13.36,1.76-.52-.38-1.05-.54-1.68-.2-.23.12-.52.13-.77.21-.04.01-.11.11-.09.14.05.11.14.29.19.28.46-.05.91,0,1.37.08.37.07.81-.07.95-.56.28-.17.56-.35.84-.52.02.12.03.25.06.37.01.05.05.12.09.15.04.02.13.01.16-.02.12-.11.09-.2-.04-.27-.11-.05-.21-.12-.32-.17.12-.15.22-.34.37-.42.17-.09.39-.09.59-.08.27,0,.62.17.78.06.66-.48,1.45-.23,2.14-.45.06-.02.11-.08.17-.11.55-.27.6-.51.15-.86-.21-.16-.46-.27-.69-.41.07-.18.15-.36.22-.55.02-.05,0-.13-.02-.18-.02-.05-.08-.1-.13-.11-.14-.02-.2.07-.17.23.04.19.09.38.13.56.13.3.05.54-.28.6-.19.04-.42,0-.59-.07-.43-.2-.78-.11-1.13.17-.44.36-.93.55-1.51.39-.17-.05-.31-.32-.2-.48.11-.17.28-.3.38-.47.06-.1.09-.27.04-.36-.05-.09-.22-.18-.32-.17-1.27.21-2.55.35-3.85.32-.39-.01-.62-.27-.79-.56-.09-.15-.11-.42-.04-.56.13-.26.32-.45-.12-.56-.13-.03-.27-.08-.37-.16-.09-.08-.15-.21-.18-.34-.04-.15.05-.26.22-.29.33-.05.7-.01.99-.14.7-.31,1.41-.46,2.16-.49.16,0,.3-.13.23-.27-.24-.53-.04-1.25-.67-1.61l.05.05c-.05-.47.04-.89.39-1.24.25-.08.51-.14.74-.26.07-.04.12-.26.08-.34-.05-.08-.23-.15-.33-.13-.4.1-.5.4-.43.78-.17-.1-.33-.22-.51-.31-.11-.06-.25-.08-.38-.1-.3-.04-.55.22-.45.48.14.37.29.74.44,1.11l.06-.05c-.47.02-.94.07-1.41.05-.55-.02-.8-.44-.63-1.01.04-.13.16-.23.17-.36.02-.11-.03-.33-.09-.34-.18-.05-.43-.1-.55,0-.31.25-.54.61-.85.86-.33.26-.73.34-1.14.12-.06-.03-.11-.08-.17-.12-.11-.08-.22-.16-.34-.22-.26-.13-.53-.06-.69.21-.1.17-.15.37-.25.55-.09.16-.38.1-.5-.08-.17-.25-.22-.52-.04-.75.67-.86,1.42-1.62,2.52-1.96.6-.19,1.05-.13,1.45.34.12.14.25.12.34-.03.46-.82,1.45-1.24,1.66-2.23.16.07.32.17.49.2.06.01.15-.14.22-.22-.08-.07-.16-.17-.25-.19-.2-.04-.35.07-.43.26-.62-.04-1.21.06-1.76.35-.73-.1-1.29.2-1.81.69-.36.34-.83.42-1.33.3-.52-.13-1.05-.25-1.58-.32-.2-.03-.35.13-.33.38.01.13.01.28-.03.4-.04.12-.13.23-.21.32-.02.02-.12-.02-.17-.05-.06-.03-.11-.08-.15-.13-.55-.81-1.27-1.14-2.27-.96-.59.11-1.21.06-1.81.05-.19,0-.4-.08-.57-.17-.07-.04-.13-.26-.08-.33.71-1.08,1.73-1.27,2.72-.47.36.29.7.39,1.11.29.59-.14,1.16-.24,1.55-.84.31-.47.86-.62,1.45-.5,1.3.27,2.55-.16,3.82-.34.27-.04.41-.32.48-.6.09-.38-.35-.85-.73-.74-.65.2-1.28.44-1.92.64-.41.13-.76-.04-.98-.44-.78-1.44-.96-1.91-2.84-1.3-.45.15-.93.19-1.39.29-.6.13-1.18.19-1.81.05-.65-.15-1.34-.13-2.02-.18-.4-.03-.72-.23-.59-.35.14-.12.33-.23.51-.25.33-.03.67.03,1.01.03.35,0,.4-.16.2-.52-.03-.06-.11-.1-.13-.16-.03-.12-.08-.28-.02-.35.07-.09.24-.14.36-.13.28.01.5.15.66.4.1.16.23.4.46.18.43-.41.92-.49,1.5-.4,1.27.21,2.54.38,3.82.55.43.05.8-.13,1.06-.49.17-.24.16-.5.03-.76-.11-.2-.27-.27-.49-.27-.2,0-.45.04-.57-.06-.11-.1-.08-.36-.12-.56-.04-.2-.05-.42-.32-.43-.27-.01-.54,0-.81.02-.34.03-.68.13-1.01.11-.47-.02-.94-.1-1.4-.21-.16-.04-.4-.25-.4-.38.02-.5-.23-.7-.66-.88-.9-.39-1.84-.4-2.8-.4-.44,0-.69-.27-.79-.77-.04-.18.14-.43.31-.44.07,0,.14-.04.2-.03,1.53.27,3.1.27,4.63.58.59.12,1.21.21,1.81.21.56,0,1.03-.29,1.17-.91.12,0,.24,0,.36.03.18.04.24,0,.18-.15,0,0-.11.03-.16.05-.11.03-.22.06-.33.1-.28.04-.53.06-.59-.32-.07-.39-.07-.86-.29-1.15-.34-.46-.96-.49-1.5-.47-.74.03-1.49.13-2.22.24-.67.11-1.32.33-1.96-.15-.11-.09-.38.02-.57.05-.26.05-.51.14-.77.18-.17.03-.31-.27-.25-.46.1-.29.31-.49.58-.51,1.35-.08,2.7-.13,4.06-.18.68-.03,1.36,0,2.04-.07.33-.03.65-.18.96-.31.28-.12.36-.38.34-.67-.05-.68-.22-.94-.77-1.02-.8-.12-1.58-.23-2.42-.08-.99.17-2.03.04-3.05.04-.23,0-.36-.15-.43-.35-.08-.2.22-.43.55-.43,1.22,0,2.44.04,3.67.02.61-.01,1.21-.12,1.82-.18.17-.02.41-.32.33-.42-.11-.16-.25-.39-.41-.41-.47-.06-.95-.1-1.41-.03-.88.14-1.73.28-2.61-.03-.29-.1-.66.05-.99.09-.23.03-.39-.09-.49-.27-.12-.21-.06-.65.08-.77.37-.31.78-.65,1.26-.6.94.11,1.9-.14,2.81.23,1.03.42,1.99.05,2.94-.33.2-.08.33-.37.22-.49-.09-.1-.21-.23-.32-.23-.54-.01-1.07.02-1.61.02-.34,0-.7.04-1-.08-.65-.24-1.26-.37-1.93-.03-.32.16-.7.06-.97-.14-.67-.5-1.42-.77-2.2-1.01-.31-.1-.36-.26-.26-.65.13-.53.25-.65.65-.57,1.14.25,2.29.28,3.44.22.81-.04,1.62-.1,2.41.19.28.1.52-.08.75-.23.17-.11.36-.19.32-.45-.05-.35-.37-.74-.64-.69-1.2.25-2.42-.28-3.61.11-.23.08-.54-.01-.8-.07-.46-.1-.93-.2-1.36-.38-.23-.09-.41-.34-.56-.55-.14-.2.03-.61.26-.67.19-.06.39-.1.58-.13.63-.1,1.18.32,1.78.3.53-.02,1.02-.27,1.59-.08.79.26,1.42-.25,2.09-.55.04-.02.04-.29-.03-.36-.49-.47-1-.93-1.76-.86-.66.06-1.31-.06-1.99.25-.59.26-1.33.2-2,.26-.09,0-.21-.15-.29-.25-.1-.13-.01-.45.1-.56.33-.31.76-.24,1.15-.34.03,0,.07-.09.06-.09-.05-.04-.1-.09-.15-.11-.13-.03-.28-.02-.4-.08-.1-.05-.16-.18-.24-.28.06-.03.11-.1.16-.1.33.02.67.04,1,.1.99.18,1.98.42,2.98.57.39.06.81-.02,1.21-.1.16-.04.4-.25.41-.4.02-.32-.08-.66-.14-.99,0-.05-1.7-1.22-1.79-1.23-.2-.01-.42,0-.43.28-.01.32-.15.5-.48.52-.2,0-.4-.02-.61-.01-.73.02-1.45-.38-2.18.01-.02,0-.12-.08-.14-.14-.02-.12-.07-.3,0-.37.31-.38.76-.59,1.23-.54.56.07,1.07-.13,1.61-.16.53-.03,1.07.06,1.61-.09.41-.12.76-.2.88-.69.04-.18.22-.34.37-.46.14-.11.19-.19.09-.34-.16-.22-.29-.47-.49-.64-.18-.16-.35.05-.52.14-.72.39-1.43.2-2.12-.1-.05-.02-.08-.11-.08-.17,0-.06.04-.15.09-.18.17-.1.34-.25.52-.26.54-.06,1.08-.05,1.62-.1.09,0,.22-.16.23-.26.02-.11-.04-.28-.13-.35-.36-.32-.76-.55-1.26-.6-.88-.09-1.75-.25-2.5-.77-.05-.04-.12-.15-.11-.16.07-.08.16-.16.26-.21.05-.03.14-.03.2,0,.53.14,1.06.25,1.61.16.29-.05.46.18.68.34.55.38,1.69,0,1.9-.59.19-.52,0-.97-.47-1.14-.58-.2-1.15-.41-1.73-.6-.11-.04-.35,0-.36.05-.18.6-.63.61-1.13.6-.99,0-1.67-.52-2.11-1.35-.31-.57-.29-.93.46-.94.82,0,1.55-.39,2.32-.59.05-.01.07-.11.11-.17.18.01.36.02.53.03.06.3.27.43.54.47.1.01.22-.09.33-.14-.05-.09-.09-.25-.14-.26-.25-.03-.51-.02-.76-.02-.15-.01-.31-.02-.46-.04-.54.01-1.09.05-1.63.02-.7-.04-1.32-.29-1.85-.76-.34-.31-.41-.64-.1-1.06.16-.22.34-.55.54-.57,1.47-.15,2.95-.39,4.41.06.04.01.1.11.08.16-.02.06-.09.11-.15.13-.12.05-.25.1-.39.11-.2.02-.41,0-.61,0-.07,0-.14.02-.19.05-.02,0,0,.13.03.14.37.14.74.28,1.02.59.11.12.27.07.34-.09.18-.43.55-.56.97-.64.1-.02.18-.15.24-.24.02-.02-.05-.14-.1-.17-.54-.28-1.07-.57-1.63-.81-.65-.28-1.3-.37-1.92.13-.22.18-.54.21-.76.01-.39-.35-.81-.44-1.31-.34-.44.09-.78-.19-1.12-.39-.05-.03-.09-.11-.09-.18,0-.03.06-.09.11-.11,1.03-.33,2.09-.52,3.12-.87.61-.2,1.34-.06,2.02-.08.07,0,.13-.03.2-.05-.26.09.18-.06-.06-.18-.47-.23-1.12,0-1.44-.58-.02-.04-.02-.15.02-.17.17-.1.35-.19.52-.29.15-.08.19-.22.08-.32-.47-.4-.98-.72-1.58-.9-.45-.14-.92-.27-1.35-.46-.23-.1-.51-.3-.59-.52-.31-.81-.6-1.64-.72-2.51-.05-.36.13-.66.37-.91.2-.21.45-.26.74-.22.47.08.34-.18.26-.46-.1-.35.06-.58.33-.58.47,0,.95.01,1.42.04.31.02.43.27.56.52.04.08.22.1.33.11.16.02.25-.24.18-.5-.06-.2-.13-.4-.37-.42-.88-.09-1.76-.16-2.63-.26-.11-.01-.25-.14-.29-.24-.09-.23.07-.36.27-.44.06-.03.13-.04.19-.08.21-.13.2-.13-.14-.36-.06-.04-.15-.05-.18-.1-.07-.14-.02-.26.14-.27.47,0,.95,0,1.43,0,.43,0,.46-.06.47-.64,0-.13.05-.27.05-.4,0-.33-.18-.55-.44-.57-.34-.03-.68-.03-1.02-.06-.28-.03-.49-.14-.56-.47-.06-.33-.21-.64-.3-.96-.06-.2.07-.26.44-.23.07,0,.13.03.2.05l-.04-.05c.35.3.71.6,1.07.89.03.02.14-.02.18-.06.08-.1.22-.29.19-.32-.38-.44-.52-1.09-1.15-1.33-.12-.04-.21-.14-.32-.22.15-.19.34-.36.46-.57.14-.26.31-.43.6-.46.27-.02.54-.03.8-.05.27-.01.54,0,.81-.05.1-.02.23-.15.24-.25.01-.1-.11-.32-.16-.31-.66.08-1.32-.27-2,0-.29.11-.46-.09-.51-.45-.02-.13,0-.27-.02-.4-.04-.24.03-.4.28-.42.33-.03.67,0,.99-.04.1-.01.25-.16.25-.25.02-.33-.01-.66,0-1,0-.26-.12-.37-.36-.38-.2-.01-.41.02-.6-.02-.1-.02-.18-.15-.28-.24.05-.04.1-.11.16-.12.27-.04.54-.05.8-.09.29-.05.51-.3.49-.55-.02-.29-.15-.53-.44-.6-.19-.05-.4,0-.6,0l.04.05c-.2-.18-.42-.34-.6-.54-.05-.06-.03-.31,0-.32.61-.17.41-.8.67-1.16.24-.34-.06-.44-.32-.51-.16-.04-.27-.15-.21-.29.04-.09.18-.19.29-.2.33-.04.67-.04,1.01-.07.25-.02.45-.25.33-.36-.09-.07-.22-.14-.33-.13-.19.01-.38.09-.58.13-.04,0-.14-.06-.15-.1-.02-.12-.05-.3.01-.35.21-.16.47-.26.69-.41.09-.07.17-.22.16-.33,0-.1-.12-.23-.22-.29-.11-.06-.26-.06-.39-.05-.22,0-.39-.07-.41-.3-.02-.34-.01-.67,0-1.01.01-.48.28-.7.73-.82.4-.1.39-.19.08-.72l.04.05c.23-.56.45-1.13.18-1.72-.12-.28-.07-.51-.02-.77.05-.24-.08-.36-.28-.42-.31-.1-.64-.18-.95-.31-.45-.19-.5-.44-.17-1.07.14-.27.08-.5-.02-.75l-.05.06c1.01.13,1.32-.03,1.79-.87.08-.14.1-.22.02-.37-.35-.66-.58-1.35-.53-2.11,0-.12-.06-.27-.13-.38-.4-.67-.31-1.28.21-1.84.37-.39.4-.83.22-1.31-.09-.25-.2-.5-.26-.76-.08-.34.12-.68.43-.79.32-.11.68-.15.94-.34.64-.48,1.02-1.26,1.74-1.66.16-.44.51-.83.44-1.32-.11-.73.36-.93.88-1.15.56-.24.83-.18,1.14.42.12.23.1.52.16.78.03.16.15.18.29.07.05-.04.08-.11.12-.16.23-.36-.15-.62-.16-.95,0-.37-.16-.62-.55-.74-.44-.14-.37-.68-.64-.97-.1-.11.11-.43.28-.47.75-.2,1.46-.2,2.03.44.04.05.09.1.13.15-.17.13-.27.31-.2.51.03.08.2.11.31.14.02,0,.1-.11.09-.15-.07-.18-.16-.36-.25-.53.37.09.66-.08.94-.27.15-.1.36-.16.24-.43-.14-.3-.23-.63-.37-.93-.25-.55-.49-1.12-.8-1.64-.19-.32-.81-.21-.84-.75-.03-.39.4-.54.45-.87.03-.19.03-.43-.06-.58-.2-.35-.48-.65-.72-.97l.04.04c-.28-.03-.56-.05-.84-.08l.05.05c.1-.31.28-.6.13-.96-.15-.36-.23-.77-.44-1.1-.17-.26-.18-.44-.09-.71.1-.31.12-.65.2-.97.06-.25.23-.52.02-.75-.13-.14-.33-.2-.5-.31-.36-.23-.35-.24-.23-.81.04-.19.05-.39.07-.59l-.05.05c.63-.26.66-.31.59-.79-.05-.32-.13-.63-.2-.95.13.04.26.07.38.13.25.11.49.2.73-.03.29-.29.5-.62.49-1.04,0-.05-.09-.16-.11-.15-.25.07-.51.24-.75.21-.63-.07-.57.37-.64.74-.01.07-.03.13-.05.19-.58.07-.72.01-.77-.3-.04-.26-.07-.52-.09-.79-.02-.24.15-.57-.25-.61-.28-.03-.46.2-.64.4-.34.37-.38.8-.39,1.28-.02.82-.27,1-1.15.93-.26-.02-.52-.08-.79-.12l.03.05c-.16-.18-.32-.16-.48,0l.03-.05c-.36.02-.68-.06-.83-.43-.08-.19-.15-.38-.19-.58-.07-.37-.31-.6-.61-.77-.41-.23-.85-.42-1.25-.68-.14-.09-.22-.33-.24-.51-.02-.25.21-.33.41-.33.68,0,1.39.17,2.01-.14.46-.23.86-.23,1.34-.19.67.06,1.35-.01,2.03-.04.29-.01.47-.18.59-.46.16-.37.36-.72.58-1.06.34-.52.66-1.03.32-1.69-.05-.11.12-.37.24-.51.11-.12.16-.2.08-.36-.15-.3-.3-.61-.43-.92-.09-.22.08-.59.32-.67.32-.1.66-.16.98-.25.04-.01.07-.11.07-.17,0-.05-.05-.15-.08-.15-.53-.08-1.06-.15-1.6-.21-.38-.04-.63.17-.87.43-.08.09-.29.19-.33.16-.55-.45-1.49-.31-1.77-1.15-.06-.18-.18-.24-.22-.13-.19.55-.82.44-1.13.77-.17.18-.23.47-.35.71-.06.13-.19.16-.33.05-.37-.29-.76-.55-.76-1.12,0-.53-.35-.86-.81-1.07l.03.05c-.16-.15-.32-.13-.49,0l.05-.05c-.4-.04-.81-.07-1.2-.13-.6-.09-1.2-.26-1.8-.29-.63-.03-1.19-.24-1.75-.46-.19-.07-.36-.17-.35-.43,0-.18.18-.35.41-.33.67.06,1.35.11,2.02.2,1.61.2,3.22.43,4.84.61.47.05.95-.02,1.42-.04.34-.02.7-.13,1.01-.06,1.82.45,3.47-.31,5.17-.7.17-.04.27-.37.15-.49-.19-.19-.36-.43-.59-.53-.41-.17-.65-.43-.79-.85-.12-.35-.51-.42-.8-.58l.04.04c.23-.42.49-.78.95-.98.38-.16.99-.05,1.02.31.08.79.51.8,1.1.73.33-.04.67-.03.9.29-.11.71-.03.83.53.87.25.02.5,0,.75,0,.09.07.18.14.28.2.02.01.08-.02.12-.04-.15-.04-.3-.08-.44-.13-.29-.51-.89-.58-1.29-.93.44.14.89.24,1.32,0,.34-.18.62-.04.9.13l-.04-.04c.12.16.23.34.38.48.09.09.26.19.35.16.81-.29,1.7-.46,2.06-1.44.12-.32.97-.46,1.27-.27.1.06.19.21.2.32.02.58.32.84.89.87.4.02.5.4.69.67.19.27.47.24.63-.05.21-.41.35-.87.73-1.17.03-.02.16.03.16.05.01.26-.02.52,0,.77.08.9.6,1.24,1.55,1.02.05-.01.13-.07.14-.12.02-.13.04-.26.02-.39-.08-.59-.32-1.13-.16-1.78.15-.59.24-1.18.55-1.72.03-.06.05-.13.08-.19.22-.42.16-.74-.24-1.05-.19-.15-.27-.46-.37-.7-.12-.29-.25-.2-.41-.04-.14.15-.28.29-.43.43-.35.32-.74.26-1.13.07l.04.05c-.13-.63.67-.84.63-1.43.36-.3.71-.6,1.08-.88.07-.05.33.03.34.08.12.63.6.87,1.11,1.08.75.31,1.68-.17,1.87-1.01.06-.26.03-.52.35-.64.31-.12.62-.27.92-.4.06-.03.14-.04.2-.02.12.05.26.1.32.2.19.29.23.61.15.97-.1.46.15.79.53,1,.15.08.44.12.56.03.33-.23.61-.53.89-.83.07-.07.08-.27.03-.36-.21-.39-.22-.76-.04-1.17.24-.56.42-1.14.66-1.7.02-.05.3-.09.34-.04.27.38.51.79.78,1.18.03.04.14.07.19.05.1-.05.25-.11.28-.2.07-.19.04-.41.12-.59.07-.18.19-.44.33-.47.58-.12.93-.52,1.3-.93.19-.21.5-.22.76-.09.1.05.24.21.22.28-.09.32-.25.62-.33.94-.07.26-.07.53-.11.79-.05,0-.11,0-.15.02-.02.01-.03.07-.04.11.05-.06.1-.11.16-.17.66.11.96-.37,1.28-.81l-.04.04c.53-.23.84-.56.74-1.21-.05-.3.12-.63.18-.95l-.05.05c.54.15,1.08.1,1.62.03.18-.02.34-.26.27-.45-.07-.18-.16-.45-.3-.49-.24-.07-.54-.04-.8,0-.39.07-.75.33-1.18.22-1.09-.29-2.14-.03-3.2.18-.13.03-.27.05-.4.07-.37.05-.69.12-.39.6.03.04,0,.18-.02.18-.53.09-.87.59-1.4.66-.06,0-.23-.22-.21-.3.07-.25.22-.47.31-.72.05-.14-.04-.27-.2-.28-.2,0-.4,0-.6.05-.73.16-.77.17-.96-.54-.14-.51-.43-.87-.9-1.02-.64-.21-1.25-.54-1.96-.44-.35.05-.67.11-.84.46-.08.17-.21.22-.29.09-.37-.62-.99-.65-1.6-.71-.27-.03-.54-.04-.81-.06-.31-.07-.62-.15-.93-.2-.07-.01-.38-.1-.17.19.02.03.12,0,.19,0,.32,0,.64-.02.96-.03.04.26.09.52.12.78.04.43.22.74.64.94.14.07.19.31.29.47l.04-.04c-.87-.05-1.59-.29-1.77-1.3-.03-.19-.42-.23-.46-.06-.11.49-.61.7-.75,1.15-.01.04-.11.08-.16.09-.06,0-.17,0-.19-.04-.24-.47-.48-.95-.71-1.42l.02-.07v.12c-.59-.25-1.07.05-1.55.29-.35.18-.64.15-.91-.14-.39-.43-.89-.27-1.34-.19-.38.07-.11.24,0,.38.08.1.18.27.14.35-.41.8-.25,1.57.06,2.35.1.25-.24.63-.45.51-.69-.4-1.31.05-1.96.09-.26.01-.48.23-.53.54-.06.4-.1.81-.18,1.2-.02.1-.21.24-.28.22-.18-.04-.37-.13-.49-.26-.07-.07-.03-.26,0-.39.13-.53-.02-.92-.5-1.2-.16-.09-.28-.26-.42-.4.18-.08.35-.18.53-.24.64-.21,1.26-.51,1.97-.34.05.01.17-.04.18-.08.19-.75,1.05-1.31.66-2.22-.03-.06-.23-.11-.32-.08-.12.04-.25.15-.3.26-.1.24-.14.51-.22.76-.08.26-.17.52-.3.75-.05.1-.21.18-.33.21-.47.11-1.19-.18-1.35-.65-.08-.24-.09-.42-.31-.63-.81-.75-1.75-1.27-2.73-1.73-.05-.02-.11-.13-.1-.17.04-.12.1-.3.19-.33.39-.11.79-.21,1.19-.23,2.71-.17,5.43-.31,8.14-.47.54-.03,1.1-.04,1.61-.19,1.26-.37,2.53-.5,3.83-.34.2.03.41,0,.61.04.56.08.88-.27,1.17-.66l-.04.05c.13.03.33.02.38.1.26.4.5.67,1.06.71,1.7.14,3.39-.11,5.09-.07.39,0,.78-.2,1.16-.33.04-.01.1-.13.08-.16-.04-.1-.11-.26-.19-.26-.61-.06-1.21-.11-1.82-.12-.75,0-1.49.03-2.24.04-.05,0-.09-.05-.14-.08.04-.06.06-.15.11-.17.71-.2,1.36-.56,2.17-.43.59.09,1.21-.04,1.82-.1.3-.03.47-.2.42-.54-.01-.09.15-.3.2-.29.64.1,1.38-.08,1.8.69.1.19.45.34.69.34.74,0,1.49.04,2.23.06.71.02,1.47-.26,2.14-.54.39-.16.62-.06.92.09.17.08.43.17.58.11.91-.43,1.89-.3,2.81-.32,1.42-.03,2.85-.28,4.26.03.17.04.22.17.15.3-.03.06-.06.14-.11.15-.32.1-.7.34-.95.25-.64-.24-1.17-.12-1.76.12-.7.29-1.42.36-2.19.2-.58-.12-1.21-.09-1.79.03-.5.1-.85.64-1.41.71-.05,0-.13.24-.11.34.06.26.18.51.28.76.08.21.32.23.46.05.08-.1.14-.23.22-.34.24-.34.43-.42.64-.28.19.12.21.32.18.53-.02.06-.07.12-.06.17.02.1.06.19.1.29,0,.27,0,.54,0,.8,0,.14,0,.29,0,.43,0,.13-.02.26-.04.38l.05-.04c-.08.11-.19.2-.24.32-.05.11-.05.36-.03.36.52.11,1.05.21,1.58.27.09.01.25-.13.29-.23.07-.17.16-.45.08-.55-.33-.43-.73-.79-1.3-.9-.15-.26-.01-.68-.43-.81-.01-.18-.03-.37-.04-.55ZM15.94,123.25l-.07-.03h.11s.03.12.03.12l-.07-.09Zm6.89,36.84l.04-.04s.08.06.12.08c-.05-.02-.1-.03-.15-.05Zm323.96-77.64c-.01-.06-.02-.13-.05-.19-.02-.03-.09-.03-.13-.04-.03.12.05.18.23.18l.05.1-.1-.05ZM260.18,8.52l-.03-.1.08.06.03.07-.08-.02Zm-60.84,265.47c.05.21.1.24.15.1-.06-.02-.12-.04-.19-.06-.03-.21-.18-.31-.37-.28-.17.03-.32.14-.49.21-.32-.04-.65-.1-.97-.1-.06,0-.14.21-.19.33-.02.05,0,.15.05.19.09.07.23.17.3.15.31-.11.62-.26.77-.59.31.02.62.04.93.07Zm-2.83,0s-.08-.02-.12-.03c.05,0,.11-.01.16-.02-.02.16-.12.33.08.44,0,0,.09-.09.08-.11-.06-.1-.13-.19-.2-.28ZM35.45,39.64v-.14s0,.08,0,.08c.32.37.63.19.94-.03.19.04.37.08.56.11.05,0,.11-.04.16-.07-.07-.09-.17-.27-.2-.26-.17.06-.32.17-.48.26-.33.01-.65.02-.98.03Zm313,67.68c.16-.06.31-.11.47-.17-.05-.02-.13-.07-.15-.05-.1.08-.18.18-.27.27-.21,0-.26.05-.15.12l.11-.17ZM17.51,48.95c0-.05,0-.11-.03-.15-.01-.02-.07-.03-.1-.04.06.05.12.1.17.15.07.09.13.19.21.27.01.02.13-.04.13-.05-.04-.25-.23-.18-.39-.18Zm-4.87,57.96c.04.11.04.27.12.33.08.06.23.05.35.04.05,0,.09-.08.14-.13-.09-.07-.16-.18-.26-.21-.12-.03-.25,0-.38,0-.19-.3-.47-.42-.82-.36-.05,0-.09.08-.12.13-.01.03.01.12.03.12.32.03.63.05.95.07Zm338.27.05c-.12-.06-.23-.14-.35-.16-.16-.03-.25.06-.23.21,0,.05.06.12.11.14.22.08.38.03.43-.23.03-.03.05-.07.08-.1-.01.05-.02.09-.04.14Zm-1.6,36.72c-.15-.12-.3-.25-.47-.36-.04-.03-.15,0-.19.03-.15.13-.11.22.1.23.2.02.4.03.61.04.02.12.03.25.06.37.03.17.12.2.22.07.02-.03,0-.13-.03-.16-.09-.09-.2-.15-.3-.23ZM48.61,26.51c-.15.1-.32.18-.44.3-.04.04.02.19.03.29.1-.03.27-.04.29-.1.06-.17.06-.35.08-.53l.04.04Zm294.92,50.17c.07,0,.13,0,.2,0,.19-.02.44-.05.41-.28-.02-.15-.23-.3-.39-.38-.19-.1-.36.1-.31.34.03.13.09.25.13.38-.19.01-.39,0-.57.05-.05.01-.06.2-.09.3.11.03.28.11.32.07.12-.13.2-.31.29-.47Zm1.97,51.84c-.37.04-.74.08-1.12.13-.02,0-.06.09-.04.12.02.05.08.11.13.13.42.1.74-.06.98-.41.13-.07.32.14.41-.1-.12.04-.24.09-.36.13Zm-108.2,141.81l.06.05h-.1c.02-.28.07-.54.05-.8,0-.08-.18-.16-.3-.22-.04-.02-.15.02-.17.05-.05.11-.13.28-.08.34.15.21.36.38.54.57Zm109.17-178.19c.02.06.05.12.07.18,0-.27.06.07-.12-.13.03-.2.02-.4.09-.58.06-.15.24-.26.28-.41.03-.12-.48-.1-.72.09-.16.13-.29.29-.21.52.1.28.3.43.61.35Zm-.51-4.05c.3.13.58.29.89.38.26.08.51-.04.69-.26.04-.05.09-.11.09-.17,0-.06-.04-.16-.07-.17-.38-.05-.76-.13-1.14-.11-.14,0-.28.24-.42.37-.02.04-.04.07-.06.11,0-.05,0-.1.01-.15ZM37.55,35.86c-.06-.18-.11-.2-.11-.08,0,0,.1.02.16.04-.09.18-.19.35-.26.54-.1.3.03.61.27.64.33.03.66.05.99.03.1,0,.21-.13.3-.22.13-.13.03-.29-.26-.43-.36-.17-.72-.34-1.08-.51Zm302.74,54.74c-.69-.41-.82-.41-1.18,0-.13.15-.24.32-.34.49-.17.29.09.71.43.73.44.02.76-.18,1.02-.51.19-.24.13-.5.03-.75.05,0,.12,0,.16-.02.02-.01.03-.12.02-.12-.12-.05-.17.02-.15.17ZM19.54,57.9c.02-.13.04-.26.04-.4,0-.4-.09-.48-.43-.37-.25.08-.5.15-.74.25-.2.08-.3.52-.18.71.19.3.48.48.82.48.16,0,.33-.17.49-.26.05-.04.15-.09.14-.11-.03-.1-.09-.2-.14-.3Zm168.7,216.45c.41.03.68.06.95.07.54.03.88-.26.92-.83.01-.16-.12-.38-.26-.49-.23-.19-.36-.1-.64.38-.17.29-.61.48-.87.34-.23-.13-.47-.28-.63-.48-.28-.35-.6-.47-1.05-.45-1.82.08-3.63.44-5.46-.02-.38-.09-.8-.02-1.13.31-.33.34-.74.34-1.11.1-.75-.49-1.55-.41-2.36-.3-.4.06-.79.22-1.19.26-.5.05-.87.26-1.25.58-.58.49-1.28.43-1.87.03-.61-.4-1.26-.43-1.94-.44-.2,0-.41.11-.6.07-1.36-.31-2.69-.23-4.03.13-.26.07-.54.06-.81.08-1.55.12-3.08.29-4.54.89-.68.28-1.44.53-2.16.52-.85-.01-1.53.53-2.37.5-.45-.02-.89.25-1.39.19-.24-.03-.51.14-.76.24-.24.1-.49.22-.56.52-.05.2.2.35.64.33.61-.04,1.25,0,1.82-.18.93-.3,1.86-.34,2.81-.25.43.04.75-.14,1.01-.53.32-.48.39-.48.77-.17.28.23.53.42.9.34.81-.19,1.61-.17,2.43-.08.9.1,1.72-.36,2.6-.4.34-.02.68.03,1.02.04,1.29.04,2.59-.02,3.84-.32.87-.21,1.69-.41,2.57-.11.34.12.66-.01.93-.26.36-.33.73-.28,1.11-.03.24.15.49.19.78.1.46-.13.9-.29,1.3-.55.12-.08.24.05.27.21.09.5.51.42.8.35,1.06-.26,2.12-.4,3.21-.3.44.04.77-.34,1.14-.34.36,0,.72.32,1.09.41.25.06.53,0,.8-.05,1.13-.19,2.22-.65,3.26-.38ZM20.24,175.75c-.05.5.04.63.5.64.88.02,1.76.07,2.63,0,.66-.05,1.31-.32,1.98,0,.1.05.3,0,.38-.07.39-.37.84-.33,1.3-.26.04,0,.11-.07.13-.13.02-.06.01-.15-.02-.2-.37-.48-.65-.64-.99-.42-.36.23-.71.36-1.12.38-1.14.07-2.29-.03-3.41.23-.24.06-.34-.15-.45-.31-.15-.22-.31-.44-.48-.65-.03-.04-.14-.07-.18-.04-.1.06-.23.14-.24.23-.04.19-.01.4-.01.6Zm5.37,4.44c-.21.09-.43.12-.55.25-.13.13-.19.34-.23.53-.01.06.14.19.25.23.43.18.87.33,1.29.52.08.04.12.24.11.35-.13.88-.14.88.17,1.22.09.1.15.23.26.31.21.15.43.29.67.38.19.07.2-.31.12-.86-.07-.52-.53-.76-.69-1.2-.1-.25.04-.43.39-.45.11,0,.23-.03.34-.05-.05-.11-.06-.27-.15-.33-.39-.26-.78-.52-1.2-.73-.23-.11-.51-.12-.77-.18Zm167.7,94.23c.13-.03.26-.05.39-.08.13-.03.26-.06.38-.12.11-.06.2-.16.3-.25.21-.18.16-.58-.08-.67-.12-.04-.26-.05-.38-.1-.54-.23-.88-.09-1,.52-.01.07-.24.18-.31.14-.24-.11-.44-.28-.67-.41-.29-.16-.65-.06-.66.15-.01.22.11.36.29.46.54.3,1.15.3,1.74.35ZM229.68,10.9c.13-.01.29.02.4-.05.45-.28.88-.57,1.3-.88.08-.06.09-.26.06-.37-.03-.1-.17-.22-.26-.23-.75-.05-1.42.29-2.12.49-.04.01-.06.11-.07.17-.05.38.3.83.69.86Zm117.19,73.12c-.03.26-.1.53-.07.79.03.26.15.51.25.76.06.15.39.26.52.16.1-.07.22-.19.23-.3.02-.19-.1-.42-.04-.59.15-.48-.06-.76-.41-1.03-.1-.08-.16-.22-.24-.32-.04-.04-.1-.08-.16-.09-.18-.03-.25.06-.2.24.04.13.08.26.12.38ZM13.46,117.59s.33-.03.65-.1c.08-.02.18-.19.17-.28,0-.12-.1-.25-.19-.33-.1-.08-.24-.14-.36-.14-.46.02-.92.07-1.38.12-.05,0-.12.07-.12.12,0,.06.02.13.06.19.2.28.47.46,1.17.42Zm334.38-19.74c-.05-.56-.17-.77-.57-.9-.1-.03-.3,0-.33.07-.11.24-.18.5-.24.76-.11.48.17.69.72.58.33-.07.45-.2.41-.5ZM49.4,27.24c-.12.07-.29.12-.3.2-.05.33-.08.66-.07.99,0,.12.11.33.18.33.18,0,.45-.02.53-.14.18-.27.29-.59.38-.91.03-.09-.06-.29-.15-.33-.17-.09-.38-.1-.57-.14Zm-27.49,142.2c.27-.02.53-.03.8-.05.18-.01.29-.26.21-.47-.14-.36-.47-.62-.74-.53-.31.11-.6.27-.87.45-.08.05-.12.26-.09.36.03.09.18.16.3.2.12.04.26.03.4.04ZM13.79,52.9c-.08-.09-.14-.25-.23-.27-.63-.11-1.02.22-1.29.74-.08.15-.02.28.15.32.71.16,1.28-.17,1.38-.79Zm339.81,81.06c-.01-.08,0-.17-.03-.19-.21-.17.11-.21-.15-.13-.74.25-1.47.53-2.21.8-.03.01-.05.13-.03.19.01.05.07.13.12.13.9.11,1.6-.35,2.3-.8ZM24.19,182.98s0,.03,0,.04c.27.05.53.1.8.13.05,0,.11-.05.17-.08-.05-.1-.08-.24-.16-.29-.56-.35-1.17-.24-1.77-.16-.07,0-.13.02-.2.03.06.05.11.13.17.14.33.07.66.13,1,.19Zm15.45-149.61c.05.16.08.36.16.53.05.1.22.22.29.2.17-.06.33-.18.45-.31.05-.06.04-.25-.02-.33-.11-.16-.25-.29-.41-.4-.09-.06-.27-.1-.34-.05-.08.06-.09.22-.13.37Zm300.71,56.35c.15-.01.35-.02.54-.05.06,0,.11-.06.16-.1-.07-.1-.13-.24-.22-.28-.3-.14-.62-.21-.9.06-.04.04-.07.11-.07.17,0,.04.04.12.07.13.12.03.25.05.42.07ZM27.98,193.78c-.11-.05-.24-.17-.34-.15-.19.04-.36.16-.53.26-.22.13-.2.25.05.42.15.1.3.27.51.15.2-.11.36-.48.31-.69Zm5.79-156.02c-.07-.11-.11-.29-.2-.31-.09-.03-.26.07-.34.15-.3.32-.36.7-.18,1.11.03.06.07.13.13.15.05.02.13,0,.18-.04.32-.28.47-.63.42-1.06Zm306.02,59.56c-.07-.39-.42-.63-.85-.56-.08.01-.19.17-.2.27-.03.32.22.43.47.51.12.04.27.08.37.04.09-.03.14-.17.21-.27ZM24.99,195.9c.13,0,.27,0,.4-.03.09-.02.17-.1.25-.16-.04-.05-.08-.12-.13-.14-.24-.09-.49-.19-.74-.24-.05-.01-.15.17-.2.27-.02.04.02.15.06.17.11.06.24.1.37.14Zm315.14-82c-.06.09-.17.19-.17.28.02.21.18.35.38.33.16-.01.32-.11.47-.19.02-.01.02-.14-.01-.18-.18-.2-.42-.25-.68-.24ZM33.88,66.8c-.21.08-.33.24-.32.45,0,.19.08.38.14.56,0,.01.13.01.17-.02.35-.24.45-.48.32-.84-.03-.08-.21-.1-.32-.15Zm314.58,25.22c-.11-.3-.2-.6-.33-.88-.03-.05-.27-.07-.34-.02-.22.17-.22.64.02.84.13.11.35.11.53.14.03,0,.08-.06.12-.09ZM163.34,14.5c-.05-.4-.19-.54-.45-.46-.37.11-.57.31-.47.5.14.24.34.4.64.39.18,0,.3-.19.28-.43Zm-78.59,7.44s-.01-.13-.05-.16c-.21-.17-.49-.13-.72.09-.04.04-.06.17-.03.19.1.07.22.15.34.16.2,0,.4-.04.46-.28Zm1.56.19c.1-.31.04-.42-.13-.44-.28-.03-.51.08-.7.29-.11.13-.1.43.06.53.1.06.29.11.35.06.2-.16.35-.37.41-.44ZM10.02,110.6s-.04-.02-.09,0c-.12.05-.22.13-.33.2.1.08.2.22.3.22.26,0,.53-.03.79-.08.08-.01.14-.11.21-.16-.06-.03-.12-.06-.18-.07-.2-.04-.4-.06-.7-.11Zm13.39,69.16c-.13-.12-.25-.27-.4-.34-.07-.03-.21.09-.31.14.05.11.07.26.16.31.17.09.36.09.56-.1Zm321.45-75.42c.12-.05.2-.07.21-.1.08-.24.14-.48.2-.73,0-.03-.06-.1-.11-.12-.05-.02-.13-.05-.17-.02-.09.06-.24.15-.24.23,0,.24.07.48.11.74ZM12.81,109.87c.12-.02.19-.01.24-.04.11-.06.21-.13.32-.2-.08-.08-.15-.23-.24-.24-.24-.04-.5-.03-.75-.02-.04,0-.1.09-.11.14,0,.05.03.13.07.15.17.08.34.15.47.21Zm12.94,75.76c.12-.03.27-.03.36-.1.09-.07.18-.22.17-.32,0-.08-.16-.19-.27-.22-.12-.03-.26-.02-.39.01-.19.04-.33.32-.21.45.08.09.22.13.33.19Zm321.17-79.65c-.05-.04-.1-.1-.15-.12-.06-.02-.17-.04-.19,0-.16.2-.3.41-.44.63-.02.03.04.17.05.16.11-.01.23-.02.32-.08.21-.14.46-.27.41-.59Zm-4.74-29.81c0-.06.02-.13,0-.18-.04-.1-.1-.2-.15-.3-.08.07-.21.13-.24.21-.06.17-.1.36-.09.55,0,.06.16.13.26.16.04.01.14-.03.15-.07.04-.12.05-.24.07-.37ZM26.24,166.31c-.14.11-.3.2-.42.34-.13.16-.06.42.13.47.11.03.25.02.34-.03.24-.15.28-.41.11-.65-.03-.04-.09-.07-.16-.13Zm323.79-49.18c.13-.02.28,0,.39-.05.1-.05.17-.17.26-.26-.11-.05-.23-.14-.34-.14-.13,0-.26.06-.38.12-.11.06-.2.14-.31.22.12.04.25.07.37.11ZM11.72,99.46c.26,0,.47,0,.67,0,.06,0,.12-.04.19-.06-.08-.04-.15-.11-.23-.12-.2-.03-.4-.06-.6-.05-.11,0-.22.09-.33.14.12.04.25.07.31.09Zm342.34,45.79c-.03-.19-.3-.29-.45-.18-.21.16-.26.51-.1.7.03.04.1.07.15.06.24-.01.45-.32.4-.59ZM11.91,83.91c.03.12.03.26.11.34.07.08.23.14.32.12.08-.03.17-.18.18-.28.01-.11-.04-.25-.12-.33-.08-.08-.23-.17-.32-.15-.07.01-.11.19-.16.3Zm9.67,105.96c.06,0,.12,0,.18,0,.12-.02.25-.05.37-.09.06-.02.11-.05.17-.07-.06-.09-.11-.24-.2-.27-.17-.06-.36-.09-.53-.06-.08.01-.19.16-.21.26,0,.07.14.15.22.23Zm5.17-16.05c.11-.06.28-.09.32-.18.04-.08-.02-.26-.1-.34-.15-.15-.38-.02-.38.21,0,.1.1.2.15.3Zm-1.02-.16c-.03-.17-.16-.48-.2-.47-.24.05-.2.27-.16.45.02.11.11.2.17.3.07-.09.2-.2.19-.28Zm324.87-51.42c-.05-.04-.11-.11-.15-.1-.17.02-.37.01-.51.1-.12.08-.06.28.08.29.17,0,.35-.07.52-.13.04-.01.04-.1.07-.16Zm-337.62.32s0,.11.03.13c.22.18.47.17.72.1.06-.01.11-.06.15-.11.02-.02,0-.1-.03-.12-.28-.21-.75-.21-.87,0Zm7.52,40.07c-.11.05-.27.07-.32.16-.04.07.06.22.1.33.11-.05.27-.07.31-.16.04-.07-.05-.22-.09-.33Zm.47-97.13c-.12-.05-.18-.35-.37-.09-.02.03.1.18.18.26.02.02.12.01.15-.02.03-.03.03-.1.04-.16Zm318.8,70.12c-.02-.21-.19-.34-.39-.29-.05.01-.12.07-.14.12-.06.17.11.39.31.37.08,0,.14-.13.21-.21Zm10.92-5.65c-.09.06-.18.12-.25.2-.02.02,0,.13.05.17.09.08.2.17.3.18.11.01.22-.06.34-.1-.03-.1-.04-.23-.11-.29-.08-.08-.22-.1-.33-.15Zm-6.91-34.56c-.06-.24-.24-.28-.43-.26-.06,0-.17.18-.15.25.05.2.22.32.42.29.07-.01.11-.19.16-.28ZM42.38,32.44c-.09-.13-.14-.28-.23-.3-.2-.05-.38.02-.48.22-.03.06-.04.13-.03.19.03.16.14.24.28.18.16-.07.31-.19.46-.28Zm-16.45,157.94c0-.07.05-.17.02-.19-.1-.06-.23-.16-.32-.13-.1.03-.2.17-.22.27-.01.07.13.23.19.23.11,0,.21-.11.32-.18Zm-.3,1.49c-.05.03-.13.06-.15.1-.04.11-.07.24-.08.36,0,.05.05.11.08.17.09-.08.21-.15.27-.25.05-.09.04-.22.04-.33,0-.02-.1-.03-.16-.04ZM150.1,18.62c-.04-.14-.14-.2-.29-.14-.05.02-.11.08-.12.14-.05.15.03.27.17.24.09-.02.16-.15.24-.23ZM28.72,181.62c.11-.05.28-.07.32-.16.04-.08,0-.26-.06-.35-.12-.16-.38-.04-.39.18,0,.1.09.21.14.32Zm320.52-61.43s0-.12-.02-.17c-.11-.18-.37-.16-.67.06-.04.03-.08.16-.07.16.1.07.21.14.32.17.19.04.37,0,.44-.22Zm-337.52-.57c-.06-.1-.11-.25-.2-.27-.1-.03-.27.01-.34.09-.11.12.08.39.28.38.09,0,.17-.12.26-.19Zm15.27,58.2c.1-.05.24-.07.29-.15.1-.18.05-.37-.1-.51-.12-.11-.39.03-.43.22-.04.21.06.35.24.45Zm-3.13-110.77s-.05-.14-.06-.13c-.11.02-.24.02-.31.09-.12.11-.07.23.1.21.1,0,.18-.11.27-.17Zm15.37-29.04c-.08-.09-.16-.18-.24-.27-.03.05-.09.13-.07.16.05.09.14.16.21.24.03-.04.07-.09.1-.13Zm-3.78-1.92s-.05-.14-.06-.14c-.12.01-.24.04-.35.07.02.05.05.13.07.13.12,0,.23-.04.35-.06Zm45.21-8.14c-.01.17.22.38.37.32.05-.02.1-.08.12-.14.08-.21-.03-.38-.24-.36-.09,0-.17.11-.25.18Zm-60.39,13.87v-.11c-.07,0-.13,0-.2.01,0,0,0,.09,0,.09.06,0,.13,0,.19,0Zm123.94-25s-.09-.13-.13-.13c-.11,0-.22.05-.33.08.04.04.08.13.12.13.11-.01.22-.05.34-.08Zm203.7,77.51c-.1.06-.21.11-.31.17.11.05.21.14.31.14.11,0,.21-.11.31-.16-.11-.05-.21-.1-.32-.15Zm1.3,34.09c-.06-.15-.17-.21-.3-.1-.09.07-.18.19-.19.29,0,.06.15.2.22.19.22-.01.29-.17.27-.38Zm4.39,22.48c0-.07.03-.14.01-.2-.06-.19-.3-.19-.48,0-.04.04-.07.13-.05.18.04.14.41.15.53.02ZM13.56,112.93c-.1.07-.24.11-.29.2-.08.13.01.24.17.29.23.07.44-.07.37-.27-.04-.09-.16-.15-.25-.23Zm323.88-1.68c-.06-.02-.13-.07-.17-.05-.04.02-.06.1-.09.15.05.02.11.06.14.04.05-.03.08-.1.11-.15Zm-47.55,14.37c-.01-.15-.1-.22-.24-.19-.06.01-.15.08-.15.09.04.1.11.2.16.3.08-.07.16-.14.23-.2ZM23.8,155.69c0-.06.02-.11.03-.17-.06,0-.13-.02-.17,0-.18.1-.19.2-.03.24.05.01.11-.05.17-.08Zm-10.32-53.34c.06,0,.13,0,.18-.02.05-.02.08-.07.11-.11-.11-.04-.21-.1-.32-.12-.05-.01-.11.04-.17.06.06.06.13.13.19.19Zm15.46,75.2c-.08.09-.16.19-.24.28.05.04.12.12.15.11.11-.05.26-.11.3-.2.06-.15-.05-.22-.21-.19Zm-11.32-27.48c.05-.03.1-.06.16-.09-.07-.09-.12-.22-.22-.27-.13-.07-.25.02-.2.15.03.09.17.14.26.2Zm330.86-43.77s-.03-.12-.05-.12c-.11-.02-.22-.02-.33,0-.02,0-.04.08-.06.13.1.03.21.08.31.09.04,0,.11-.05.13-.09ZM24.73,165.85c-.03-.1-.07-.2-.1-.3-.05.02-.1.04-.15.06.04.1.08.2.13.29,0,0,.08-.03.12-.05Zm-10.8-51.76c0-.05,0-.14-.02-.15-.12-.03-.24-.06-.36-.05-.03,0-.09.1-.09.15,0,.05.07.13.11.13.12,0,.24-.05.36-.08Zm335.96,7.34c-.12-.04-.23-.1-.34-.11-.04,0-.09.08-.14.12.08.06.16.16.25.17.07,0,.15-.11.23-.17ZM13.65,137.01s0-.11-.03-.12c-.04-.03-.11-.04-.16-.02-.15.06-.14.14.04.18.04.01.1-.02.15-.04Zm271.57-.43l-.14-.08-.03.11.17-.03Zm60.69-9.44v.11s.12-.05.12-.05l-.12-.07Zm-57.71.6c.02-.06.04-.11.05-.17-.05-.02-.09-.03-.14-.05-.01.05-.04.11-.04.16,0,.02.08.04.12.05ZM18.94,61.74l.08-.15-.12-.02.04.16Zm5.39,102.02s-.12.06-.13.11c0,.05.03.16.06.16.17.03.26-.04.22-.17-.01-.04-.1-.06-.16-.09Zm333.25-1.29h.13s-.05-.14-.05-.14l-.08.14Zm-4.29-15.51c-.08.06-.16.12-.22.19,0,.01.06.12.1.14.05.02.13,0,.18-.01.05-.02.1-.07.14-.11-.07-.07-.14-.14-.2-.21Zm-74.01-5.68c0-.2-.06-.25-.16-.13-.02.03.02.12.04.18.04-.02.08-.03.12-.05Zm61.77-46.53s-.07-.1-.11-.15c-.05.04-.12.07-.14.12-.05.16.03.23.18.18.04-.01.05-.1.07-.15Zm7.17.95s-.05-.1-.09-.12c-.05-.02-.13-.01-.17.02-.11.09-.06.16.11.17.05,0,.1-.05.15-.08Zm-8.77-2.56s-.1.05-.14.08c.03.04.08.12.08.11.07-.04.14-.09.21-.13-.05-.02-.1-.04-.15-.06ZM44.12,24.14v.09s.11-.03.11-.03l-.11-.06Zm1.55.18c.05-.04.13-.07.14-.11,0-.04-.07-.14-.1-.13-.1.01-.2.06-.31.09.03.05.05.12.1.15.04.03.12,0,.17,0Zm2.64-.07s-.02-.11-.05-.13c-.05-.03-.14-.06-.19-.03-.17.08-.15.17.05.22.05.01.12-.03.18-.05Zm297.91,76.01l-.09.15.14.02-.05-.17Zm.05-3.17c.01-.06.04-.12.03-.17-.02-.04-.11-.09-.13-.08-.13.07-.13.18-.02.28.02.02.09-.02.13-.03Zm-4.46-19.65c.1-.04.21-.09.31-.13-.03-.05-.04-.11-.08-.14-.17-.1-.41,0-.36.15.02.05.08.08.12.12Zm-1.24,15.45s-.08-.1-.12-.1c-.04,0-.11.06-.12.1-.02.15.05.22.17.15.04-.02.04-.1.07-.15Zm8.08-4.98s.04-.09.04-.14c0-.02-.07-.03-.1-.05-.02.05-.04.09-.04.14,0,.02.07.03.1.05ZM132.36,18.88l-.14.06.14.07v-.13ZM12.66,111.57l-.17.05.17.05v-.1Zm-1.87.44c-.11-.05-.21-.11-.32-.14-.03,0-.09.08-.13.12.1.05.21.11.32.14.04,0,.09-.07.14-.11Zm338.03.52c.06-.02.11-.04.17-.06-.05-.03-.09-.09-.14-.09-.05,0-.11.03-.16.05.05.03.09.07.14.1Zm1.13.2c0-.19-.07-.24-.19-.12-.02.02.03.11.04.17.05-.01.09-.03.14-.04Zm-5.97-2.37l-.18.06.17.06v-.12Zm6.63,8.99c-.06-.02-.11-.04-.17-.04-.02,0-.04.07-.06.11.06.02.11.04.17.04.02,0,.04-.07.06-.11Zm-4.92-4.84l-.16-.08-.03.12.19-.04Zm-4.08-9.19h.13s-.05-.15-.05-.15l-.07.15Zm4.68-3.02l.15-.06-.15-.05v.11Zm-1.01.34s-.1-.09-.15-.09c-.05,0-.11.04-.16.06.05.03.09.09.15.09.05,0,.11-.04.17-.07ZM7.23,248.18c.06-.02.12-.05.18-.07-.05-.04-.1-.1-.15-.11-.06,0-.12.04-.18.07.05.04.1.08.15.12Zm16.29-57.33s-.12,0-.14.02c-.03.03-.04.11-.02.15.07.13.16.12.21-.03.01-.04-.03-.09-.05-.14Zm2.35-6.99c-.06-.02-.12-.06-.17-.05-.06,0-.11.05-.17.08.05.04.09.1.14.12.05.02.13,0,.18-.03.02-.01.01-.08.02-.12Zm-13.44-80.34l.07-.1h-.11s.04.1.04.1Zm334.18-.14l-.07.11.12.02-.05-.12ZM149.79,16.83l-.11-.07v.11s.11-.04.11-.04Zm12.96-.89c-.16.07-.17.15-.02.23.02,0,.11-.06.11-.1,0-.04-.06-.08-.1-.13Zm-42.06-1.62l-.07.1.1.02-.03-.12Zm217.83,105.9l-.1-.06v.1s.1-.04.1-.04Zm8.49-1.34l-.08.13h.13s-.05-.13-.05-.13Z"/><path d="m23.82,38.6c-.34-.25-.48-.6-.54-1.01-.03-.17-.18-.33-.29-.49-.14-.18-.55-.14-.7.02-.25.26-.3.58-.34.91-.03.25.04.58-.21.71-.34.18-.72.32-1.11.39-.27.04-.47-.19-.61-.43l-.05.05c.28-.44.56-.88.83-1.32l.03.09-.07-.05c-.14-.33-.23-.68.2-.85.54-.21,1.02-.66,1.67-.52.31-.24.68.04.96-.1.28-.14.46-.46.72-.66.08-.07.27.01.39-.03.11-.04.28-.14.29-.23.05-.34.03-.68-.21-.96-.07-.08-.24-.1-.35-.09-.6.08-.63-.35-.7-.76l-.04.05c.26-.32.51-.63.77-.94.27-.33.54-.45.65-.3.11.16.23.33.26.51.09.54.11,1.09.74,1.32.29.52.71,1.01.45,1.68-.18.46-.2.92-.05,1.39.06.18-.04.26-.17.2-.05-.02-.09-.1-.09-.15-.05-.52-.37-.65-.85-.63-.59.02-1.04.24-1.41.69-.38.47-.41.98-.24,1.54l.05-.03Z"/><path d="m14.04,29.27c.87.16,1.94.35,3,.56.27.05.51.58.4.85-.12.31-.26.62-.44.91-.14.24-.28.47-.2.76.07.26.17.53-.05.76-.34.35-.74.62-1.24.63-.4.01-.81-.07-1.21-.12-.14-.02-.21-.13-.14-.29.21-.5.45-.99.66-1.49.25-.58,0-1.13-.58-1.26-.66-.15-1.32-.26-1.98-.4-.21-.04-.42-.3-.33-.42.08-.1.18-.24.29-.25.53-.09,1.06-.15,1.81-.24Z"/><path d="m32.59,28.53c.35.02.67.05.75.5.06.33.08.72.26.97.47.65.48,1.39.57,2.12,0,.08-.13.24-.23.26-.08.02-.24-.1-.27-.19-.11-.34-.33-.4-.61-.26-.4.21-.76.28-1.09-.11-.52-.6-1.2-.86-1.96-.98-.15-.02-.13-.15-.04-.29.32-.48.3-.62-.07-.64-.94-.06-1.89-.11-2.83-.17-.17-.01-.24-.13-.2-.3.01-.06.05-.12.1-.17.25-.23.51-.48.89-.37,1.51.45,3.09.29,4.63.55.21.04.41-.33.32-.62-.04-.13-.11-.25-.17-.37l-.04.04Z"/><path d="m11.13,168.64c-.27-.03-.55-.03-.8-.11-.25-.09-.53-.22-.68-.42-.13-.18-.07-.49-.13-.72-.06-.23-.05-.43.2-.47.73-.14,1.44-.29,2.13-.63.53-.27,1.16-.33,1.76-.43.41-.06.8.05,1.16.29s.39.89.01,1.02c-.71.24-1.29.65-1.89,1.08-.51.37-1.13.45-1.76.4Z"/><path d="m244.99,4.81c.12-.02.42.01.64-.11.51-.27.73.09,1.02.36.26.24.42.16.51-.24.03-.13.01-.28.07-.39.05-.1.18-.24.28-.24.4.02.79.08,1.18.13.2.03.3.25.21.46-.24.55-.46,1.12-1.08,1.4-.23.1-.36.45-.66.39-.46-.09-1-.01-1.33-.39-.41-.48-.98-.71-1.46-1.07-.12-.09-.18-.18-.08-.31.03-.05.11-.09.17-.09.13,0,.26.04.54.1Z"/><path d="m75.16,27.26c.02-.4.02-.81.06-1.21.02-.21.43-.43.65-.34.24.1.53.18.69.37.3.35.56.76.77,1.17.16.31.41.28.67.32.17.02.19.16.07.29-.61.66-1.35.82-2.18.51-.12-.04-.2-.18-.29-.27l-.05.03c.09-.1.22-.18.25-.29.05-.22-.12-.34-.31-.43-.12-.05-.24-.11-.36-.17l.04.02Z"/><path d="m264.25,272.63c-.34.02-.67.06-1.01.06-.12,0-.28-.04-.36-.13-.08-.08-.09-.24-.1-.37,0-.05.05-.14.1-.16.31-.15.65.27.93,0,.27-.27.58-.29.91-.34.33-.05.65-.16.98-.2.21-.02.42.1.44.32.02.17-.05.41-.16.53-.12.13-.34.23-.53.25-.4.04-.8.01-1.21.01,0,.01,0,.03,0,.04Z"/><path d="m252.36,7.96c.06.53-.27.98-.65.94-.47-.05-.93-.15-1.39-.25-.19-.04-.33-.31-.22-.47.22-.33.47-.64.48-1.08,0-.19.3-.28.48-.18.35.2.71.39,1.03.63.15.11.22.31.28.41Z"/><path d="m231.45,4.23c-.11.13-.21.31-.35.43-.08.07-.28.09-.36.03-.49-.34-.96-.71-1.43-1.08-.12-.09-.07-.46.07-.54.29-.16.59-.31.88-.47.39-.22.51-.21.58.14.09.41.23.76.5,1.07.08.09.07.25.11.41Z"/><path d="m243.51,272.41c-.44-.5-.89-1-1.31-1.52-.26-.32-.45-.69-.36-1.11.03-.17.16-.35.29-.47.14-.13.43-.02.48.2.21.88.77,1.53,1.33,2.2.33.39.23.51-.47.66l.05.04Z"/><path d="m28.58,36.26c-.31-.23-.63-.45-.93-.69-.09-.07-.22-.23-.19-.31.05-.17.17-.34.31-.44.15-.11.36-.13.55-.18.19-.05.45-.06.5.14.16.56.61.83,1.01,1.15l-.04-.05c-.33.68-.35.69-.93.49-.12-.04-.23-.1-.34-.14l.05.05Z"/><path d="m144.21,278.41c-.06,0-.19-.02-.32-.06-.03,0-.07-.09-.07-.12.01-.06.04-.15.09-.17.86-.39,1.73-.72,2.71-.52.46.09.94.1,1.4.15.05,0,.1.09.13.14.01.02-.04.09-.07.11-.06.03-.12.06-.19.07-1.21.13-2.42.26-3.7.39Z"/><path d="m252.58,270.75c-.05,0,.15,0,.34.03.39.07.69.62.58,1.09-.03.1-.22.26-.26.24-.56-.28-1.32-.17-1.67-.86-.09-.17,0-.45.18-.47.06,0,.13-.03.19-.04.13,0,.26,0,.64,0Z"/><path d="m37.07,32.23c-.64.02-.7-.13-.45-.56.08-.14.12-.23-.01-.35-.05-.04-.12-.1-.12-.15,0-.12.03-.24.07-.34.01-.03.14-.06.18-.04.54.25,1.07.51,1.6.78.04.02.08.12.06.16-.05.12-.11.3-.2.32-.46.09-.92.15-1.13.18Z"/><path d="m139.46,13.44c.08-.26,0-.55.24-.74.2-.15.73-.11.95.07.24.19.33.44.23.72-.09.25-.24.48-.38.7-.14.21-.37.16-.54.06-.3-.18-.5-.44-.5-.8Z"/><path d="m242.27,4.31c-.1.08-.2.22-.3.22-.18,0-.42,0-.55-.11-.46-.37-.58-.87-.41-1.43.03-.09.19-.17.3-.19.12-.02.31.02.36.1.24.4.45.81.66,1.23.02.04-.04.12-.06.19Z"/><path d="m255.27,8.03c-.08.21-.29.39-.44.3-.7-.48-1.42-.95-1.97-1.62-.03-.03-.03-.12,0-.16.03-.05.1-.1.16-.12.34-.07.67-.06.93.21.46.47.7,1.15,1.36,1.43l-.03-.04Z"/><path d="m223.85,1.93c-.04-.13-.09-.25-.11-.38-.08-.53.15-.81.6-.75.26.03.52.08.77.11.24.02.36.19.32.39-.03.17-.14.45-.26.47-.45.09-.92.09-1.38.13l.05.05Z"/><path d="m21.23,35.02c.04-.26.07-.52.12-.78.07-.35.28-.64.61-.72.57-.13,1.13-.4,1.74-.19l.04-.05c-.65.29-1.06.97-1.84,1.09-.27.04-.48.4-.72.61l.04.04Z"/><path d="m247.9,270.8c-.2-.34-.41-.68-.6-1.03-.1-.18.02-.48.18-.47.4.02.77-.04,1.14-.21.04-.02.22.15.26.25.04.11.04.3-.03.37-.13.14-.31.24-.49.32-.35.16-.4.5-.51.8l.05-.04Z"/><path d="m4.51,251.51c-.47-.09-.91-.07-1.32.23-.15.11-.3-.04-.33-.3-.06-.57,0-.68.53-.87.18-.06.37-.14.56-.16.1,0,.28.09.3.18.09.31.14.64.2.96l.05-.05Z"/><path d="m235.67,9.3c.1-.57,0-1.19.52-1.63.2-.16.47-.23.71-.06.09.07.22.24.19.31-.27.68-.58,1.34-1.48,1.33l.05.05Z"/><path d="m74.24,27.56c.03.28-.15.53-.47.69-.27.15-.61.14-.73-.01-.11-.14-.03-.58.15-.71.26-.19.53-.35.78-.55.14-.11.22-.1.26.09.02.13,0,.26,0,.48Z"/><path d="m254.27,5.6s-.22.05-.48.08c-.04,0-.14-.1-.14-.12.03-.11.11-.31.15-.31.61.08,1.12-.31,1.7-.33.09,0,.22.13.28.23.09.13-.1.45-.25.46-.33,0-.65,0-1.26,0Z"/><path d="m64.09,21.89c.06,0,.21,0,.32.06.09.05.21.18.2.26-.01.11-.12.23-.21.3-.1.08-.23.14-.36.15-.39.03-.79.04-1.18.02-.07,0-.15-.15-.19-.24-.02-.03.05-.12.09-.16.36-.34.79-.47,1.34-.39Z"/><path d="m350.86,102.46c.29.15.6.28.88.46.27.17.27.47.02.64-.17.11-.34.2-.51.31-.12.08-.21.05-.26-.12-.14-.44-.35-.87-.08-1.34l-.05.05Z"/><path d="m17.68,66.2c.07.23-.03.07,0-.01.11-.22.34-.13.53-.12.38,0,.61.2.75.54.1.24-.01.52-.27.65-.24.12-.62.05-.71-.14-.08-.18-.13-.37-.3-.91Z"/><path d="m28.52,36.21c.08.64.16,1.29.24,1.93,0,.02-.1.07-.16.08-.06.01-.13,0-.19-.02-.06-.02-.14-.05-.16-.09-.12-.37-.25-.74-.33-1.12-.09-.43.03-.54.65-.74l-.05-.05Z"/><path d="m186.89,5.63c-.06.11-.09.26-.18.33-.27.2-.58.3-.92.22-.16-.04-.29-.32-.22-.48.13-.33.38-.52.71-.62.31-.1.65.21.61.56Z"/><path d="m232.8,6.88c.31-.24.62-.49.94-.71.08-.06.23-.03.35-.02.03,0,.08.11.07.14-.2.35-.32.7-.39,1.1-.03.19-.36.35-.57.5-.15.11-.41-.06-.41-.26,0-.26.04-.53.06-.79l-.04.05Z"/><path d="m348.03,41.19c.22.19.34.46.22.71-.2.42-.46.8-.72,1.18-.05.07-.27.08-.36.02-.09-.05-.18-.22-.17-.32.03-.19.09-.39.2-.55.27-.38.58-.73.87-1.1l-.05.05Z"/><path d="m10.21,215.2c-.43-.47-.6-1.01-.44-1.64.02-.06.06-.16.1-.16.11-.01.29-.03.34.04.2.25.39.53.54.81.25.48.12.66-.58.91l.04.04Z"/><path d="m19.6,200.04c-.2-.02-.43.02-.57-.08-.14-.09-.24-.32-.26-.5-.04-.26-.01-.53.03-.79.02-.1.18-.28.21-.27.17.07.35.17.47.31.08.09.09.25.09.38,0,.33,0,.66-.02,1l.05-.05Z"/><path d="m10.37,170c.05.22-.29.52-.54.48-.37-.06-.62-.27-.72-.62-.03-.09.05-.28.14-.32.49-.24,1.01,0,1.12.47Z"/><path d="m146.24,11.98s-.09.13-.14.14c-.59.09-1.17.17-1.76.23-.06,0-.17-.19-.19-.3-.04-.22.17-.54.26-.48.54.36,1.17.16,1.74.29.04,0,.06.08.09.13Z"/><path d="m34.87,30.03c.11-.08.22-.23.3-.21.18.04.45.12.5.25.18.47-.07.92-.2,1.36-.02.05-.1.12-.15.12-.05,0-.12-.08-.14-.14-.11-.46-.21-.93-.32-1.39Z"/><path d="m21.59,165.32c.01.13.04.26.03.4-.02.75-.22.95-.94.92-.11,0-.27-.09-.32-.18-.05-.09-.02-.26.04-.36.2-.34.74-.32.84-.77l-.06.05c.15,0,.3,0,.45,0l-.05-.05Z"/><path d="m92.61,8.74c.11.03.31.07.48.16.18.1.29.32.18.5-.09.14-.3.32-.44.3-.25-.03-.49-.19-.73-.31-.16-.08-.22-.42-.11-.52.09-.08.22-.12.34-.16.06-.02.13,0,.28.01Z"/><path d="m35.28,27.24c.32-.02.6.3.57.67-.02.22-.15.37-.36.43-.29.09-.66-.21-.7-.55-.03-.24.24-.54.48-.55Z"/><path d="m45.41,28.81c-.63-.06-1.14.33-1.71.46-.19.04-.38-.04-.5-.24-.11-.18-.06-.43.1-.48.74-.22,1.43-.2,2.06.31l.05-.05Z"/><path d="m219.82,3.2c.25-.37.49-.76.77-1.11.13-.16.35-.1.53,0,.15.08.22.45.09.5-.48.19-.96.38-1.44.57l.05.05Z"/><path d="m10.71,105.6c-.1-.04-.29-.08-.44-.19-.07-.05-.08-.22-.09-.34,0-.03.09-.1.15-.11.19-.02.39-.06.57-.02.09.02.19.16.23.26.07.17-.13.38-.43.4Z"/><path d="m244.34,1c-.26-.04-.53-.06-.79-.13-.11-.03-.2-.16-.29-.26-.11-.13-.06-.43.08-.54.16-.12.44-.09.52.08.15.3.29.6.43.9l.04-.05Z"/><path d="m15.79,203.82c0,.48-.37.69-.82.44-.15-.08-.38-.25-.37-.37.02-.29.73-.57,1-.4.1.06.13.22.19.33Z"/><path d="m66.6,21.99c.15.02.22.02.29.03.13.03.26.06.39.09-.09.09-.16.2-.26.27-.22.15-.44.33-.68.39-.08.02-.27-.25-.36-.42-.03-.06.06-.27.13-.3.18-.06.39-.06.5-.07Z"/><path d="m13.95,58.47c.36.12.53.73.29,1-.04.04-.16.07-.18.04-.23-.24-.53-.46-.42-.85.02-.09.2-.13.31-.19Z"/><path d="m131.58,11.55c.06.02.15,0,.19.05.17.21.34.41.46.65.03.06-.09.23-.18.3-.12.1-.27.05-.33-.09-.1-.25-.18-.5-.25-.76-.01-.04.07-.1.11-.15Z"/><path d="m65.9,26.48c-.08.14-.12.26-.2.35-.11.13-.36-.06-.36-.28,0-.06-.02-.13,0-.19.02-.19.06-.38.08-.57.02-.18.1-.24.22-.17.05.03.09.09.11.14.06.25.11.5.16.72Z"/><path d="m19.93,177.66c.22-.03.4.03.49.22.05.1.07.26.02.35-.05.09-.2.18-.3.19-.12,0-.25-.07-.35-.14-.15-.11-.29-.27-.18-.46.05-.09.22-.11.32-.16Z"/><path d="m14.66,56.24c.03.26-.09.49-.24.45-.28-.06-.48-.22-.57-.5-.05-.15.14-.29.42-.31.26-.02.35.13.39.35Z"/><path d="m222.55,2.54c0,.34-.04.66-.33.87-.09.06-.25.07-.36.04-.17-.04-.2-.18-.1-.32.19-.26.39-.52.59-.77.02-.02.11-.03.13,0,.04.05.05.12.07.18Z"/><path d="m157.8,9.59c.11.02.18.01.22.05.23.18.31.48.2.71-.08.16-.4.24-.53.11-.08-.08-.15-.24-.13-.34.04-.18.15-.35.23-.52Z"/><path d="m86.15,18.3c.3.14.45.43.38.83-.01.07-.21.18-.27.15-.41-.2-.54-.46-.4-.79.04-.09.19-.13.29-.19Z"/><path d="m357.04,238.05c.3-.81.39-.87,1.13-.78.06,0,.13.07.15.13.02.04,0,.14-.04.17-.36.35-.79.49-1.28.45l.04.04Z"/><path d="m128.59,11.23c.1.06.24.1.28.18.12.28,0,.57-.23.58-.09,0-.24-.09-.28-.17-.13-.27,0-.54.23-.59Z"/><path d="m10.17,208c.08.08.23.19.21.25-.06.24-.28.23-.47.21-.06,0-.13-.06-.15-.12-.06-.14.19-.34.42-.34Z"/><path d="m11.78,225.43c-.25-.25-.34-.54-.26-.89.04-.17.33-.32.45-.22.09.08.17.2.19.32.07.38-.34.52-.44.82l.05-.03Z"/><path d="m23.77,38.63c.14.39.15.73-.29.94-.22.11-.43.25-.65.37l.04.04c-.04-.7.57-.96.94-1.38l-.05.03Z"/><path d="m83.53,18.9c-.08-.07-.18-.14-.25-.23-.02-.03,0-.14.04-.16.11-.05.23-.09.35-.1.12,0,.24.03.36.05-.07.07-.13.16-.2.22-.09.08-.2.14-.3.21Z"/><path d="m219.77,3.15c-.17.27-.35.53-.51.81-.08.15-.14.15-.24-.03-.23-.4-.16-.64.22-.7.19-.03.39-.03.58-.04l-.05-.05Z"/><path d="m239.45,3.72s-.04.11-.07.14c-.2.15-.53.07-.61-.18-.03-.08.05-.27.13-.31.21-.11.53.11.56.35Z"/><path d="m350.21,100.69c-.23.03-.43-.12-.38-.3.06-.22.24-.29.44-.27.11.01.24.1.29.19.08.14-.13.35-.35.38Z"/><path d="m223.98,7.54c-.06-.03-.15-.06-.16-.09-.02-.11-.05-.26,0-.33.22-.31.55-.27.88-.23.06,0,.13.06.15.11.02.03-.01.12-.05.15-.23.23-.5.39-.84.39Z"/><path d="m200.95,2.45c-.14.26-.39.29-.64.25-.05,0-.1-.07-.14-.11.14-.11.27-.24.43-.32.09-.04.22,0,.33.01.02,0,.02.11.03.16Z"/><path d="m147.76,10.84c.01.22-.06.39-.3.44-.05.01-.15-.02-.17-.05-.1-.22.04-.37.18-.51.04-.04.13-.06.18-.04.05.02.07.1.11.16Z"/><path d="m16.32,55.85c-.18-.07-.37-.11-.52-.22-.07-.05-.05-.23-.04-.35,0-.04.11-.12.14-.11.11.03.28.08.31.16.06.18.04.38.06.58l.05-.05Z"/><path d="m9.65,125.52c.11.06.25.09.32.18.1.13.04.29-.12.31-.1.01-.28-.06-.32-.15-.04-.08.07-.22.11-.33Z"/><path d="m15.91,64.87c.18-.07.35-.17.53-.2.09-.01.24.08.29.17.04.08.02.26-.05.31-.08.07-.25.1-.34.06-.16-.08-.28-.23-.41-.36l-.02.02Z"/><path d="m12.11,163.78c.39-.02.77.24.72.51-.01.05-.07.11-.13.14-.31.17-.58.05-.74-.37-.02-.06.1-.18.15-.27Z"/><path d="m12.28,160.39c-.09-.07-.24-.14-.25-.22-.04-.21.27-.5.49-.46.1.02.23.14.24.23.05.24-.21.47-.48.45Z"/><path d="m184.23,7.23c-.2-.03-.4-.02-.58-.09-.07-.03-.1-.22-.11-.34,0-.04.08-.14.13-.14.12,0,.31,0,.35.07.09.16.12.36.17.55l.05-.05Z"/><path d="m256.1,7.24c.03.06.08.11.09.17.09.57-.02.73-.56.72-.12,0-.24-.07-.37-.11l.03.04c.04-.52.32-.78.84-.79l-.04-.03Z"/><path d="m17.83,170.47c-.02.15-.31.35-.49.28-.1-.04-.21-.19-.22-.3-.02-.2.24-.36.44-.26.11.05.18.18.27.28Z"/><path d="m359.82,169.81c0,.12.01.26-.04.36-.04.09-.17.19-.26.19-.08,0-.22-.13-.22-.21,0-.08.11-.2.19-.25.11-.05.24-.04.37-.05l-.04-.05Z"/><path d="m133.82,12.55c-.06.21-.3.33-.43.2-.07-.07-.1-.26-.05-.34.05-.09.21-.12.33-.17.05.1.1.21.15.31Z"/><path d="m126.62,279.3c-.29.12-.56.27-.86.34-.32.07-.62-.01-.78-.35l-.03.05c.57,0,1.13,0,1.7,0l-.02-.05Z"/><path d="m10.64,82.77c-.06.02-.12.05-.18.04-.48-.05-.55-.17-.29-.55.06-.08.18-.11.27-.16.03.06.07.11.08.17.03.19.04.37.06.56l.05-.06Z"/><path d="m348.83,81.55c-.06-.18-.13-.36-.19-.55-.01-.05.03-.17.04-.17.12,0,.27-.03.34.03.28.25.21.42-.25.64l.04.04Z"/><path d="m244.3,1.05c.21.24.43.48.64.73.02.03,0,.13-.04.17-.1.12-.22.1-.34-.01-.29-.27-.16-.62-.21-.94l-.04.05Z"/><path d="m10.15,210.57c.29.07.38.38.16.61-.08.08-.27.16-.34.11-.19-.12-.21-.35-.12-.54.04-.09.19-.12.3-.18Z"/><path d="m143.34,13.11c-.1-.05-.24-.08-.31-.17-.1-.13-.04-.28.12-.3.1-.01.25.07.32.16.09.13.02.25-.13.31Z"/><path d="m205.36,3.56s-.11-.06-.11-.1c0-.17.25-.34.37-.26.03.02.05.13.03.15-.09.08-.19.15-.29.21Z"/><path d="m236.21,3.39c-.21-.08-.23-.26-.2-.44.03-.22.28-.37.36-.24.08.14.12.33.11.5,0,.07-.17.13-.27.19Z"/><path d="m223.8,1.89c-.03.18-.03.38-.09.54-.03.08-.19.11-.3.14-.04,0-.13-.07-.14-.11,0-.11,0-.28.06-.32.15-.1.34-.14.52-.2l-.05-.05Z"/><path d="m19.95,181.67c.04.2-.09.38-.27.38-.21,0-.34-.13-.4-.32-.06-.17.07-.33.3-.37.2-.03.32.07.37.31Z"/><path d="m24.78,37.8c-.04.11-.09.22-.13.32-.11-.05-.28-.07-.3-.15-.03-.08.05-.25.13-.31.13-.09.25-.02.3.13Z"/><path d="m356.17,238.49c-.38-.16-.66-.41-.75-.84l-.04.04c.53.03.78.32.75.84l.04-.04Z"/><path d="m246.24,7.54c-.09.07-.17.19-.26.19-.21,0-.35-.25-.24-.39.07-.08.24-.14.33-.11.08.03.11.2.16.31Z"/><path d="m8.06,214.03c-.05-.08-.11-.15-.16-.23.05-.03.09-.08.14-.08.05,0,.1.04.15.06-.04.09-.09.17-.13.26Z"/><path d="m132.98,278.99c.06.03.12.05.18.08-.04.04-.07.1-.12.11-.18.05-.28,0-.23-.13.01-.04.11-.04.18-.06Z"/><path d="m134.63,278.86c-.06,0-.13.02-.17,0-.04-.02-.07-.08-.1-.12.1-.03.2-.08.3-.1.03,0,.1.09.09.12,0,.04-.08.07-.11.1Z"/><path d="m19.61,37.94c.12.27.24.53.37.8l.05-.05c-.11-.05-.23-.09-.34-.15-.28-.16-.27-.17-.03-.56l-.04-.04Z"/><path d="m19.65,37.99c0-.13,0-.26,0-.38,0-.11.04-.22.06-.33.02.11.06.22.04.32-.02.12-.1.23-.15.35l.04.04Z"/><path d="m179.75,5.59c-.14-.12-.3-.23-.4-.38-.05-.07.02-.23.06-.33.01-.03.13-.05.17-.02.09.06.23.15.23.23,0,.18-.07.37-.11.55l.04-.04Z"/><path d="m348.13,39.81c-.03.06-.05.14-.1.16-.16.08-.24,0-.2-.18,0-.04.1-.09.16-.09.05,0,.09.06.14.1Z"/><path d="m63.5,19.81s-.03.12-.07.14c-.03.02-.12,0-.14-.02-.1-.13-.07-.21.1-.22.04,0,.08.06.12.1Z"/><path d="m139.02,15.39c.07.1.2.19.21.29,0,.1-.12.2-.19.3-.07-.1-.2-.2-.21-.31,0-.09.12-.19.19-.29Z"/><path d="m142.48,13.66c-.04.16-.15.26-.25.18-.07-.06-.07-.22-.06-.34,0-.04.09-.13.14-.12.15.01.21.12.17.29Z"/><path d="m198.24,1.09c-.11-.05-.24-.07-.31-.15-.1-.12.11-.3.34-.27.1.01.19.14.28.21-.1.07-.21.13-.31.2Z"/><path d="m57.03,27.37s-.08.13-.12.14c-.15.03-.38-.21-.36-.38,0-.05.08-.11.14-.12.22-.03.36.12.35.36Z"/><path d="m263.42,4.07c-.09.07-.17.19-.27.2-.09.01-.19-.09-.29-.14.07-.11.13-.22.22-.31.04-.04.16-.07.18-.06.07.09.11.2.17.31Z"/><path d="m233.56,3.86c-.09.06-.17.17-.26.17-.21,0-.36-.25-.24-.36.08-.07.24-.12.33-.09.08.03.12.18.17.28Z"/><path d="m34.33,23.95c-.12,0-.24,0-.36-.02-.16-.02-.22-.12-.16-.26.02-.05.07-.1.11-.14.14-.1.23-.07.27.1.03.12.06.24.09.35l.04-.05Z"/><path d="m71.78,22.5c.18,0,.37.01.55.03.05,0,.11.08.12.12.02.18-.07.23-.22.13-.15-.1-.29-.22-.44-.33v.05Z"/><path d="m9.87,54.43s-.11-.07-.11-.1c0-.05.03-.13.08-.15.13-.07.2,0,.17.16,0,.04-.09.06-.13.1Z"/><path d="m251.87,5.76c.08-.07.15-.14.23-.21.06.08.13.16.18.25,0,0-.09.11-.12.1-.1-.03-.19-.09-.28-.14Z"/><path d="m179.7,5.64c.13,0,.27-.05.38,0,.21.09.27.28.13.47-.07.09-.23.18-.33.16-.09-.02-.19-.17-.21-.28-.02-.12.04-.25.07-.38l-.04.04Z"/><path d="m352.85,128.24c.2-.02.39-.07.59-.06.09,0,.18.11.27.17-.04.04-.07.11-.12.13-.06.02-.14.04-.19.01-.17-.09-.34-.19-.51-.29l-.04.05Z"/><path d="m9.87,92.07c-.08-.05-.16-.11-.24-.16.08-.07.16-.15.25-.21.02-.01.13.07.12.08-.03.1-.08.19-.12.28Z"/><path d="m349.73,102.49c-.01-.17-.02-.33-.03-.5,0,0-.05.05-.05.05.42.01.83.02,1.24.03l-.04-.04c0,.14,0,.29,0,.43l.05-.05c-.41,0-.81.02-1.22.03l.04.04Z"/><path d="m10.09,98.09s0,.1-.02.11c-.06.02-.12.03-.18.01-.2-.07-.19-.13.03-.16.06,0,.11.02.17.04Z"/><path d="m355.65,147.96c-.05.08-.08.23-.15.26-.11.04-.26.03-.38-.01-.11-.04-.21-.14-.31-.22.11-.07.21-.16.32-.19.19-.05.39-.06.51.16Z"/><path d="m162.85,9.66c-.02.06-.02.14-.06.18-.11.1-.39-.14-.35-.3.01-.04.13-.11.15-.09.09.06.17.14.25.22Z"/><path d="m8.13,169.05c.29.08.39.28.35.55-.02.16-.14.23-.28.16-.09-.04-.21-.16-.2-.23.02-.18.11-.35.18-.53l-.04.04Z"/><path d="m348.98,79.88c-.06-.01-.16,0-.17-.05-.05-.11.03-.16.21-.12.05.01.1.07.14.1-.06.02-.12.04-.18.06Z"/><path d="m10.19,114.29c.13,0,.26-.01.38.02.1.02.18.1.27.15-.05.03-.1.07-.15.07-.06,0-.14,0-.18-.03-.1-.07-.18-.17-.27-.26l-.04.05Z"/><path d="m237.62,6.45c-.02.06-.03.15-.06.16-.12.04-.18-.05-.15-.22,0-.04.08-.07.12-.1.03.05.06.11.09.16Z"/><path d="m355.12,131.29c-.06.01-.12.04-.18.03-.02,0-.03-.08-.05-.12.06-.01.12-.04.18-.04.02,0,.03.08.05.13Z"/><path d="m257.22,5.72s-.08.09-.12.13c-.03-.05-.08-.11-.07-.16,0-.05.07-.09.11-.13.03.05.05.11.08.16Z"/><polygon points="8.99 123.81 9.13 123.89 8.97 123.92 8.99 123.81"/><path d="m12.35,129.15s-.04.1-.05.1c-.05,0-.1-.03-.15-.04.02-.03.04-.1.06-.1.05,0,.1.02.15.04Z"/><path d="m354.96,129.81c-.09-.06-.18-.13-.27-.19.1-.06.2-.16.29-.16.09,0,.18.11.27.18-.1.06-.2.12-.3.17Z"/><path d="m11.18,128.73c-.07.06-.15.18-.21.17-.09,0-.16-.11-.24-.17.04-.04.09-.13.12-.13.11.02.21.08.33.13Z"/><path d="m230.02,6.81c-.12-.04-.27-.06-.34-.14-.06-.07-.02-.22-.01-.34,0-.01.1-.04.12-.02.04.04.08.1.1.16.03.13.05.26.08.39l.05-.05Z"/><path d="m17.12,61.97c-.07.1-.13.2-.21.29-.01.02-.15-.04-.15-.05.04-.27.25-.17.4-.18l-.05-.05Z"/><path d="m181.82,7.71c-.02-.12-.05-.23-.05-.35,0-.05.07-.13.11-.13.15,0,.24.1.17.24-.05.09-.18.13-.28.2l.05.04Z"/><path d="m235.15,7.36s-.09.03-.13.05c-.02-.06-.04-.12-.04-.18,0-.02.08-.03.12-.05.02.06.03.12.05.18Z"/><path d="m8.09,160.44s-.1.09-.15.13c-.05-.11-.11-.22-.15-.33,0-.02.11-.11.15-.1.17.03.22.15.15.31Z"/><polygon points="8.04 154.91 8.2 154.89 8.17 154.99 8.04 154.91"/><path d="m356.8,154.91c.06.08.17.15.17.23,0,.08-.1.16-.16.24-.04-.05-.12-.1-.11-.13.02-.11.07-.21.11-.33Z"/><polygon points="355.9 156.33 356.02 156.33 355.96 156.45 355.9 156.33"/><path d="m347.17,61.46c-.02.06-.03.14-.07.16-.12.06-.2,0-.18-.18,0-.04.08-.08.13-.12.04.05.08.09.12.14Z"/><polygon points="173.63 7.11 173.46 7.03 173.65 6.98 173.63 7.11"/><polygon points="12.77 72.25 12.84 72.1 12.89 72.26 12.77 72.25"/><path d="m256.14,7.28c-.01-.13-.06-.27-.03-.39.02-.08.14-.14.22-.2.03.05.09.09.1.14.01.06,0,.15-.03.19-.09.09-.19.16-.29.23l.04.03Z"/><polygon points="355.57 151.92 355.54 151.79 355.63 151.81 355.57 151.92"/><path d="m10.13,95.85c.27-.26.55-.46.95-.27l-.04-.05c-.21.36-.55.31-.89.27l-.02.05Z"/><path d="m228.45,3.69s.03.08.04.11c-.05.01-.1.03-.15.03-.02,0-.03-.07-.04-.1.05-.01.1-.03.15-.04Z"/><path d="m78.96,27.01c-.01-.05-.04-.1-.03-.15,0-.02.07-.03.11-.04.01.05.04.1.03.15,0,.02-.07.03-.11.04Z"/><path d="m35.91,24.23s.03-.1.05-.1c.05,0,.09.02.14.03-.02.04-.03.11-.05.11-.05,0-.1-.03-.15-.04Z"/><path d="m80.11,25.97c-.17.02-.35.11-.49-.08.04-.03.1-.09.13-.08.11.05.22.13.32.2l.04-.04Z"/><path d="m222.82,4.44s-.1-.1-.1-.15c0-.17.09-.22.22-.12.03.03.04.12.02.17-.02.04-.09.06-.13.09Z"/><path d="m160.88,9.99s-.05.09-.07.14c-.05-.07-.11-.13-.16-.2.05-.02.1-.07.14-.06.04.01.06.08.09.12Z"/><path d="m236.83,4.03c.05.02.14.04.15.07.03.12-.05.18-.21.15-.04,0-.09-.1-.08-.13.02-.04.09-.06.14-.09Z"/><polygon points="122.15 12 122.15 11.86 122.32 11.92 122.15 12"/><path d="m347.2,78.47s.1.04.15.06c-.07.05-.14.1-.21.15-.03-.04-.06-.08-.08-.12l.14-.09Z"/><polygon points="133.8 13.98 133.95 13.94 133.93 14.04 133.8 13.98"/><path d="m158.92,14.16c-.17.04-.34.08-.38-.17,0-.01.12-.07.13-.05.08.08.14.17.21.26l.03-.04Z"/><polygon points="9.53 81.18 9.59 81.06 9.61 81.19 9.53 81.18"/><path d="m222.85.97c.02.05.06.1.06.15,0,.05-.06.09-.09.14,0-.09.02-.19.03-.29Z"/><path d="m347.69,77.72c-.1.04-.19.1-.29.12-.02,0-.1-.08-.1-.13,0-.05.08-.14.1-.13.1.03.2.09.29.14Z"/><path d="m228.81,1.29s-.03.1-.05.1c-.05,0-.14-.02-.15-.04-.01-.12.06-.14.2-.06Z"/><path d="m160.93,13.37c-.06.1-.1.25-.2.3-.14.07-.26-.01-.28-.17,0-.03.09-.12.14-.12.12,0,.25.02.38.03l-.04-.04Z"/><polygon points="10.03 90.58 9.94 90.58 9.98 90.45 10.03 90.58"/><path d="m71.79,22.45c-.03-.11-.07-.21-.1-.32.03.12.06.24.09.36v-.05Z"/><path d="m145.04,14.45c-.05.01-.1.03-.15.03-.02,0-.03-.07-.04-.11.05-.01.1-.04.15-.03.02,0,.03.07.04.11Z"/><polygon points="10.76 86.97 10.83 86.84 10.87 86.98 10.76 86.97"/><path d="m134.34,17.07c.13,0,.27,0,.39.01.05,0,.09.08.14.13-.11.05-.25.16-.32.13-.09-.04-.12-.2-.17-.32l-.04.05Z"/><path d="m11.85,87.75c-.1.07-.19.14-.29.2-.02.01-.08-.04-.12-.07.15-.03.3-.06.46-.09l-.04-.05Z"/><path d="m346.37,75.51c.39.47.32.34,0,.79l.05.02c0-.29,0-.58,0-.87l-.05.06Z"/><path d="m351.71,110.24c.13.07.25.14.38.22-.12.04-.25.08-.37.12l.02.05c0-.15,0-.3,0-.44l-.03.05Z"/><path d="m351.71,110.57c-.29.14-.58.28-.87.43l.06.04.84-.42-.02-.05Z"/><path d="m230.38,5.43s-.12.05-.14.04c-.09-.09-.05-.15.1-.14.01,0,.03.07.04.11Z"/><path d="m235.63,5.64c-.07.07-.14.14-.2.2-.04-.11-.1-.22-.12-.33,0-.04.08-.09.13-.13.06.09.13.17.19.26Z"/><path d="m13.5,49.96s-.1.03-.15.04c-.01-.04-.05-.11-.03-.12.03-.03.09-.04.14-.05l.03.13Z"/><path d="m149.05,11.39c-.08.05-.17.1-.25.15-.02-.12-.05-.23-.05-.35,0-.05.09-.09.14-.13.05.11.11.22.16.34Z"/><path d="m346.37,75.01c.04-.1.08-.21.13-.31.15.22-.12.17-.17.26l.04.04Z"/><polygon points="35.59 29.03 35.59 29.18 35.43 29.1 35.59 29.03"/><polygon points="36.81 29.52 36.64 29.56 36.67 29.43 36.81 29.52"/><path d="m349.69,102.44c-.1.06-.2.13-.29.19,0-.31.22-.1.33-.15l-.04-.04Z"/><path d="m26.59,32.43c-.05.02-.11.07-.15.06-.17-.04-.18-.13-.04-.23.04-.02.12,0,.16.03.03.02.02.09.03.14Z"/><polygon points="33.17 33.4 33.24 33.28 33.29 33.41 33.17 33.4"/><polygon points="30.02 38.27 30.05 38.43 29.93 38.4 30.02 38.27"/><path d="m362.84,232.08c.02-.12.04-.25.06-.37-.03.11-.05.21-.08.32l.02.05Z"/><polygon points=".15 267.63 .11 267.45 .23 267.47 .15 267.63"/><path d="m364.95,196.99s-.08-.1-.08-.15c.01-.18.09-.22.18-.11.03.04.03.12.02.17-.01.04-.08.06-.12.09Z"/><path d="m12.26,235.64c0-.12-.03-.25,0-.37.02-.08.12-.15.18-.22.03.04.09.08.09.12,0,.06,0,.13-.04.17-.08.09-.17.17-.26.26l.04.05Z"/><polygon points="111.41 280.3 111.54 280.35 111.4 280.38 111.41 280.3"/><polygon points="353.49 238.05 353.62 238.05 353.55 238.2 353.49 238.05"/><path d="m2.5,252.98c-.06.03-.12.07-.17.07-.05,0-.1-.06-.15-.09.05-.03.11-.07.16-.07.05,0,.1.06.15.09Z"/><path d="m9.76,219.64c-.06.15-.13.29-.2.44-.02-.06-.07-.14-.05-.16.09-.09.19-.16.29-.23l-.05-.05Z"/><path d="m8.35,167.2c-.04-.1-.09-.2-.11-.3,0-.03.07-.09.11-.13.04.1.09.2.11.3,0,.03-.07.09-.11.13Z"/><polygon points="365.06 198.07 364.94 198.07 365 197.9 365.06 198.07"/><path d="m75.59,28.09l-.44-.42-.05.02c.14.14.29.29.43.43l.05-.03Z"/><path d="m75.16,27.66c-.09-.14-.14-.27,0-.41l-.04-.02c0,.15,0,.3,0,.45l.05-.02Z"/><polygon points="10.18 102.87 10.24 102.78 10.13 102.83 10.18 102.87"/><path d="m18.27,30.35s-.11.11-.13.1c-.16-.08-.16-.17.02-.22.02,0,.07.08.11.12Z"/><path d="m258.93,3.96s-.02.09-.03.14c.03-.03.05-.06.08-.09l-.04-.05Z"/><polygon points="44.53 30.93 44.43 30.87 44.49 30.97 44.53 30.93"/><path d="m350.89,102.07l-.04-.04.04.04Z"/><polygon points="21.19 34.98 21.15 35.08 21.23 35.02 21.19 34.98"/><polygon points="26.32 33.27 26.28 33.16 26.38 33.17 26.32 33.27"/><path d="m8.96,43.99c0-.14,0-.28,0-.42l-.05.05c.16,0,.32,0,.49,0l-.03-.05c-.15.13-.29.25-.44.38l.03.04Z"/><path d="m8.93,43.95l.03.04-.03-.04Z"/><path d="m351.27,109.79c.15.15.29.3.44.45l.03-.05c-.14-.14-.28-.28-.43-.42l-.04.02Z"/><polygon points="10.23 114.25 10.09 114.21 10.19 114.29 10.23 114.25"/><path d="m16.69,39.49c-.05.06-.09.13-.14.19,0-.04,0-.1.03-.11.04-.03.1-.03.16-.04l-.04-.04Z"/><polygon points="348.07 41.14 347.95 41.07 348.03 41.19 348.07 41.14"/><polygon points="355.42 237.64 355.33 237.6 355.38 237.69 355.42 237.64"/><path d="m12.21,235.59c-.05.05-.1.11-.16.16.01-.04.02-.09.05-.1.04-.02.1-.01.15-.01l-.04-.05Z"/><path d="m12.67,207.39c-.15.04-.23,0-.21-.13,0,0,.1-.01.11.01.03.04.04.1.06.16l.04-.04Z"/><polygon points="10.17 215.17 10.08 215.27 10.21 215.2 10.17 215.17"/><polygon points="155.64 13.8 155.57 13.74 155.62 13.82 155.64 13.8"/><polygon points="5.52 215.75 5.55 215.86 5.44 215.84 5.52 215.75"/><path d="m8.17,218.01l-.05.05.05-.05Z"/><path d="m8.12,218.05l.3.12c-.06.04-.12.09-.18.13-.02-.1-.05-.2-.07-.3l-.05.05Z"/><polygon points="347.76 80.14 347.87 80.11 347.85 80.2 347.76 80.14"/><path d="m348.79,81.51c.02.18.03.35.05.53l.05-.06c-.16,0-.32,0-.48,0l.03.05c.13-.16.26-.32.39-.49l-.04-.04Z"/><path d="m258.97,4.01s.04-.08.07-.13c-.04.03-.07.05-.11.08l.04.05Z"/><polygon points="10.15 95.8 10.11 95.94 10.13 95.85 10.15 95.8"/><path d="m60.46,27.72c.03-.1.04-.23.1-.3.09-.09.19-.02.12.08-.05.08-.18.11-.27.17l.04.04Z"/><path d="m203.73,4.2s-.08.07-.12.1c-.03-.04-.09-.09-.09-.12,0-.04.07-.07.11-.1.03.04.07.08.1.12Z"/><path d="m346.33,74.97c.01.18.03.36.04.54l.05-.06c-.15,0-.31,0-.46,0l.02.05c.13-.16.26-.32.39-.49l-.04-.04Z"/><path d="m349.68,93.47c-.02-.17.03-.24.15-.2,0,0,0,.11-.02.12-.05.03-.11.03-.17.04l.04.04Z"/><path d="m357,238.01l-.35.49.03.04c.12-.16.23-.32.35-.49l-.04-.04Z"/><path d="m356.13,238.53c.19,0,.37,0,.56,0l-.03-.04c-.16,0-.32,0-.48-.01l-.04.04Z"/><polygon points="8.13 246.25 8.09 246.16 8.09 246.29 8.13 246.25"/><path d="m82.44,24.43c.07.04.14.08.22.13-.04,0-.09,0-.11-.02-.03-.04-.04-.1-.06-.15l-.05.05Z"/><path d="m354.18,149.05s.02-.09.02-.13c-.02.03-.05.06-.07.09l.05.04Z"/><path d="m354.16,154.73c-.06-.07-.12-.14-.18-.21.04.02.11.03.13.06.02.05,0,.12.01.19l.04-.04Z"/><polygon points="161.71 10.54 161.65 10.44 161.66 10.52 161.71 10.54"/><polygon points="353.27 140.87 353.41 140.9 353.31 140.83 353.27 140.87"/><polygon points="15.93 64.86 15.85 64.81 15.91 64.87 15.93 64.86"/><polygon points="359.86 169.86 359.94 169.79 359.82 169.81 359.86 169.86"/><path d="m8.17,169c-.07-.05-.14-.1-.21-.14.04,0,.09,0,.11.03.03.04.04.1.05.16l.04-.04Z"/><path d="m161.66,10.52c.2.19-.18.12.09.07.1-.02.07-.1-.04-.05l-.04-.02Z"/><path d="m12.63,55.01c-.14.19-.28.2-.42,0l-.03.05c.16,0,.32,0,.48,0l-.03-.05Z"/><polygon points="51.42 27.66 51.51 27.76 51.47 27.62 51.42 27.66"/><path d="m51.42,27.3v-.47c.15,0,.31,0,.46,0l-.46.46Z"/><path d="m19.59,57.87c0,.16,0,.32,0,.47q-.29-.25,0-.47Z"/></g></svg>