<?xml version="1.0" encoding="UTF-8"?><svg id="Layer_2" preserveAspectRatio="none" xmlns="http://www.w3.org/2000/svg" viewBox="0 0 515.01 210.97"><g id="Layer_1-2"><path d="m49.6,189.01c.09-.03.17-.07.26-.1l-.18.18-.19.11.11-.19Z"/><path d="m50.2,188.61c.05-.04.19.04.28.07-.2.08-.41.16-.62.23.11-.1.22-.21.34-.3Z"/><path d="m70.5,39.52c-.08.04-.17.06-.26.08.03-.27.15-.37.36-.32-.03.08-.04.21-.1.24Z"/><path d="m59.8,189.11s.01-.07.01-.11c.02.01.05.02.07.03.08.07.16.13.24.2-.11-.04-.21-.08-.32-.12Z"/><path d="m70.22,39.71s-.04-.01-.06-.02c-.01-.02-.03-.05-.04-.07.04-.01.08-.02.12-.02-.01.03-.02.07-.02.11Z"/><path d="m74.57,40.61c-.07-.08-.15-.16-.23-.24.11.05.22.1.32.15-.01.03-.01.06-.02.09h-.07Z"/><path d="m110.11,39.77c0,.54-.1,1.08-.16,1.62-.4.04-.8.12-1.19.1-1.12-.05-1.64-.65-1.41-1.6.17-.69.37-1.36.57-2.04.1-.36.73-.49,1.03-.25.68.57,1.16,1.26,1.16,2.17Z"/><polygon points="144.63 17.71 144.42 17.54 144.5 17.46 144.63 17.71"/><polygon points="75.54 40.63 75.53 40.63 75.45 40.54 75.69 40.32 75.54 40.63"/><path d="m74.36,42.21c.09-.54.19-1.07.28-1.6.29,0,.6.01.89.02.83,1.02,1.97.67,3.07.61.16,0,.35.33.5.53,0,.03-.14.23-.25.26-.82.24-1.64.46-2.47.66-.42.1-.84.15-1.27.21-.53.08-.83-.19-.75-.69Z"/><polygon points="107.68 191.04 108.02 191.19 107.65 191.29 107.68 191.04"/><polygon points="256.44 29.26 256.16 29.24 256.33 28.87 256.44 29.26"/><path d="m110.03,41.38h0s-.06.06-.09.08c0-.02.01-.05.01-.07.03,0,.05-.01.08-.01Z"/><path d="m120.5,192.95c.06.07.01.26.01.39-.14.16-.34.47-.42.44-.23-.08-.43-.27-.59-.46-.21-.26-.16-.51.08-.67.1-.06.26-.15.34-.11.21.1.42.24.58.41Z"/><path d="m142.37,32.79c-.07-.03-.21-.07-.22-.11,0-.1.06-.21.09-.31.08.04.22.07.22.11,0,.1-.05.21-.09.31Z"/><path d="m194.44,25.11c-.07-.22-.17-.44-.2-.67-.01-.07.16-.17.24-.26.07.22.17.44.2.67.01.08-.16.17-.24.26Z"/><path d="m289.61,27.23s.01.02.02.03c-.04.02-.07.05-.11.07-.02-.05-.03-.1-.05-.14.05.01.1.03.14.04Z"/><path d="m275.01,25.77c.05,0,.14.16.21.25-.08.07-.21.23-.25.21-.32-.16-.31-.35.04-.46Z"/><path d="m289.47,27.19c-.12-.04-.24-.08-.24-.09.04-.25.13-.22.24.09Z"/><path d="m315.43,19.55c-.05-.09-.09-.23-.06-.32.04-.1.15-.17.23-.25.06.1.16.19.17.29.01.1-.06.21-.1.31-.08-.01-.22.01-.24-.03Z"/><path d="m317.76,18.2c-.1-.07-.19-.14-.29-.22.12-.04.24-.13.35-.12.1.01.19.13.29.2-.12.05-.24.09-.35.14Z"/><path d="m351.38,12.42c.1-.52.23-1.21.39-1.89.01-.04.26-.09.31-.04.67.68,1.33,1.98,1.41,2.93.01.15-.33.43-.55.49-1,.26-1.64-.3-1.56-1.49Z"/><path d="m350.16,16.93c-.07-.04-.2-.08-.2-.11,0-.11.05-.22.09-.32.06.03.19.07.19.11.01.1-.05.21-.08.32Z"/><path d="m353.4,16.08c.11-.22.23-.43.35-.65.1.22.28.45.27.67-.02.23-.22.44-.34.66-.09-.22-.19-.45-.28-.68Z"/><path d="m355.69,13.41c.06-.66.14-1.32.23-1.98,1.19-.12,2.07.49,2.87,1.27.05.05,0,.3-.08.38-.8.75-1.87.34-2.79.62-.05,0-.23-.19-.23-.29Z"/><path d="m364.36,12.65c-.2-.19.38-.84.76-.77.23.04.48.23.65.42.28.32-.06.64-.69.65-.25-.1-.54-.14-.72-.3Z"/><polygon points="314.01 13.55 313.79 13.65 313.82 13.4 314.01 13.55"/><path d="m313.09,22.66c-.11-.14-.06-.57.08-.69.31-.27.7-.45,1.08-.63.39-.18.81.26.76.73-.08.59-.44.88-1.2.94-.25-.11-.58-.15-.72-.35Z"/><path d="m328.81,13.48c-.03-.12-.1-.25-.08-.36,0-.05.18-.08.27-.12.03.13.1.25.08.37,0,.05-.18.08-.27.11Z"/><path d="m355.83,11.43c-.07-.09-.13-.17-.2-.26.1.06.2.11.3.17,0,.03-.01.06-.01.09-.03-.01-.06-.01-.09,0Z"/><path d="m299.3,27.24s-.01.03,0,.05c-.03,0-.05,0-.08.02,0-.03.01-.07.01-.1.02.01.04.02.07.03Z"/><path d="m306.04,21.51c-.08-.21-.25-.44-.2-.63.08-.3.36-.37.62-.22.08.05.08.21.12.32-.18.18-.36.36-.54.53Z"/><path d="m315.53,12.54c-.04-.13-.14-.31-.09-.36.22-.24.35-.14.35.26-.09.04-.18.07-.26.1Z"/><polygon points="357.83 203.86 357.92 204.1 357.69 204.07 357.83 203.86"/><path d="m361.38,10.15c-.09.01-.19-.13-.29-.21.25-.04.49-.1.73-.11.09,0,.19.13.28.2-.24.04-.48.11-.72.12Z"/><polygon points="365.31 10.04 365.02 10.14 365.05 9.87 365.31 10.04"/><path d="m348.91,5.05c-.01.05-.03.09-.04.14-.02-.02-.04-.05-.06-.07l.1-.07Z"/><path d="m363.35,6.24c-.06-.1-.12-.2-.18-.29.04-.1.05-.26.12-.29.25-.1.37.04.3.34-.02.09-.15.16-.24.24Z"/><path d="m299.23,27.21c-1.39-.55-1.79-1.38-1.14-2.5.11-.18.5-.21.77-.25.09-.01.24.16.29.28.37.81.21,1.64.08,2.47Z"/><path d="m320.03,17.15c-.09-.24-.2-.47-.25-.71-.01-.07.19-.17.29-.26.1.24.21.47.27.72,0,.06-.2.16-.31.25Z"/><path d="m331.15,10.47s-.08.06-.11.09v-.18c.08-.06.15-.13.23-.2-.04.1-.08.19-.12.29Z"/><path d="m333.78,7.86s.06-.07.09-.11c0,.07,0,.14,0,.2l-.1-.09Z"/><polygon points="262.51 26.17 262.4 25.84 262.7 25.88 262.51 26.17"/><path d="m330.77,12.12c.08-.22.19-.43.3-.65.57.25,1.15.51,1.72.76-.07.25-.11.52-.25.73-.46.67-.9.83-1.37.56-.52-.3-.66-.73-.4-1.4Z"/><path d="m258.77,26.58c-.31-.34-.35-.71-.05-1.07.07-.09.22-.16.34-.16.34.02.52.6.32,1.04-.05.11-.19.19-.29.28-.11-.03-.25-.03-.32-.09Z"/><path d="m348.52,7.58c-.06-.27-.12-.57-.07-.84.1-.52.27-1.04.42-1.55.61.66.83,1.44.63,2.34-.08.38-.31.5-.66.34-.13-.06-.29-.17-.32-.29Z"/><path d="m331.12,11.37s-.03.07-.05.1c-.02-.01-.03-.01-.05-.02v-.18s.06.07.1.1Z"/><path d="m332.89,12.28s-.07-.03-.1-.05c0-.02,0-.03.01-.05.06-.01.11-.03.17-.04-.02.05-.05.09-.08.14Z"/><path d="m335.94,10.08c.09-.37.43-.69.68-1,.07-.08.25-.06.38-.08.54.2.97,1.14.73,1.81-.07.19-.45.38-.69.37-.51-.01-1.2-.7-1.1-1.1Z"/><polygon points="340.53 7.97 340.26 7.96 340.39 7.62 340.53 7.97"/><path d="m331.04,10.56c0,.24-.01.47-.02.71-.23-.24-.25-.48.02-.71Z"/><path d="m334,11.9c-.33.09-.68.17-1.03.24.19-.31.35-.63.58-.9.23-.27.5-.26.65-.02.06.09.06.26.02.37-.03.12-.12.28-.22.31Z"/><path d="m341.82,9.07c-.04-.23.19-.5.29-.75.24.13.56.2.7.4.23.3.08.56-.28.68-.34.1-.67,0-.71-.33Z"/><path d="m345.74,5.06c-.09-.05-.12-.37-.09-.38.25-.1.53-.25.79-.22.36.03.48.32.34.66-.05.13-.18.22-.26.32-.29-.13-.56-.22-.78-.38Z"/><path d="m334.28,7.25c-.1.19-.26.34-.41.5,0-.2-.02-.4-.01-.59.01-.13.06-.34.13-.36.33-.08.46.11.29.45Z"/><path d="m283.37,29.09s-.06-.01-.09-.02c.01-.02.01-.03.01-.05l.27-.2-.19.27Z"/><path d="m378.35,4.64c-.03-.12-.13-.32-.08-.37.23-.25.37-.14.36.28-.09.03-.19.06-.28.09Z"/><polygon points="380.86 190.24 381.04 190.38 380.82 190.46 380.86 190.24"/><path d="m379.36,198.53c.33.77.59,1.57.84,2.37.03.09-.14.35-.19.34-1.54-.23-3.01.21-4.5.47-.27.05-.81-.4-.91-.72-.21-.66-.24-1.38-.29-2.09-.04-.65.43-.97,1.11-.79.27.08.53.21.79.31,0,0,0,.01.01.01.91-.86,1.15-.81,1.68.25.43.83.46.86.94.18.2-.28.44-.51.52-.33Z"/><polygon points="387.66 201.38 387.9 201.54 387.62 201.63 387.66 201.38"/><path d="m390.58,2.83c-.04-.08.01-.24.07-.34.03-.05.15-.05.23-.07.04.11.13.23.11.32-.08.36-.25.39-.41.09Z"/><path d="m404.5,5.78c-.14-.21-.35-.4-.38-.62-.01-.11.32-.4.46-.37.21.04.42.24.55.44.18.25.07.51-.25.62-.1.04-.25-.04-.38-.07Z"/><path d="m476.22,187.78c.59.48.62.88.18,1.73-.14.28-.33.45-.64.36-.08-.03-.11-.23-.16-.36-.16-.51-.28-1.02-.02-1.54.05-.1.16-.17.23-.25.15.02.32-.01.41.06Z"/><path d="m471.68,188.32c.09.34.25.68.26,1.02,0,.23-.21.46-.35.67-.03.03-.26-.02-.34-.09-.44-.36-.63-.83-.36-1.34.08-.15.45-.16.79-.26Z"/><path d="m395.68,6.11s-.05-.02-.08-.03c0-.02-.01-.04-.01-.06l.22-.1-.13.19Z"/><polygon points="425.33 200.08 425.56 200.11 425.42 200.4 425.33 200.08"/><path d="m478.93,189.43c-.04.08-.08.23-.13.23-.11,0-.33-.04-.34-.08-.02-.3.15-.35.47-.15Z"/><path d="m424.8,1.99c0-.14-.01-.27-.02-.5.07-.32.14-.73.24-1.13.03-.13.11-.24.17-.36.19.17.46.3.56.51.19.37.31.77.38,1.18.07.43-.15.77-.54.99-.32.19-.78-.21-.79-.69Z"/><path d="m483.47,190.28c.11.29-.36.76-.72.76-.13-.18-.36-.35-.37-.53-.03-.42.29-.59.79-.47.12.03.26.13.3.24Z"/><polygon points="422.75 4.8 422.52 4.86 422.56 4.65 422.75 4.8"/><path d="m436.97,198.16c.27.95.12,1.89-.65,2.59-.13.12-.55.07-.74-.05-.6-.4-.83-1.05-.99-1.72-.21-.85.48-1.55,1.6-1.45.2.15.69.33.78.63Z"/><polygon points="483.47 187.93 483.57 188.28 483.32 188.26 483.47 187.93"/><polygon points="407.6 4.88 407.33 4.73 407.62 4.61 407.6 4.88"/><path d="m402.13,4.63c-.06-.24-.18-.52-.11-.72.15-.41.44-.4.56,0,.05.21-.1.48-.16.71-.1,0-.28.02-.29,0Z"/><path d="m490.56,189.2c.14.81.26,1.62.36,2.25-.08.45-.06.76-.2.97-.11.17-.41.25-.64.31-.08.02-.29-.13-.31-.23-.23-1.05-.45-2.1-.6-3.16-.03-.19.22-.49.42-.63.26-.17.92.18.97.49Z"/><path d="m406.32,1.38c-.06-.6.13-1.15.37-1.08.11.03.23.2.24.32.02.27.01.55-.05.81-.02.11-.2.18-.3.26-.09-.1-.17-.21-.26-.31Z"/><polygon points="444.97 199.62 445.19 199.77 444.94 199.87 444.97 199.62"/><path d="m438.54,190.58c-.08-.02-.12-.16-.17-.24.09-.06.19-.11.29-.17.1.04.28.07.3.13.06.24-.11.35-.42.28Z"/><path d="m439.19,193.2c-.1-.01-.19-.16-.28-.24.1-.08.2-.16.29-.24.12.05.29.05.34.13.14.24,0,.4-.35.35Z"/><path d="m440.97,196.16c.08.68.11,1.36.15,1.91-.08.55-.14.95-.21,1.36,0,0-.22.01-.25-.04-.21-.34-.4-.7-.6-1.05-.51-.88-.46-1.86-.48-2.82-.01-.17.29-.5.45-.5.22,0,.51.19.67.38.16.2.24.49.27.76Z"/><path d="m444.2,196.37c.08.24.16.48.25.73-.11.08-.21.17-.32.26-.08-.24-.18-.48-.22-.72-.01-.08.19-.18.29-.27Z"/><polygon points="421.91 200.52 422.08 200.66 421.88 200.74 421.91 200.52"/><path d="m457.77,195.92c-.12.53-.27,1.05-.91,1.34-.22-.29-.53-.57-.68-.91-.34-.79.14-1.41.93-1.29.43.07.74.47.66.86Z"/><path d="m497.13,13.38c.2-.17.4-.33.6-.49.07.11.2.23.19.34-.01.32-.23.49-.57.44-.09,0-.15-.19-.22-.29Z"/><path d="m499.88,188.66c.04.1.13.22.11.31-.1.35-.28.39-.44.09-.05-.08,0-.24.06-.33.04-.06.18-.05.27-.07Z"/><path d="m497.36,17.48l.09.08c-.07.07-.14.14-.21.22.04-.1.08-.2.12-.3Z"/><path d="m504.46,188.42c-.05.67-.13,1.33-.22,2-.01.12-.11.24-.17.36-.05-.09-.12-.17-.13-.26-.11-.66-.22-1.32-.26-1.99-.01-.12.31-.28.51-.38.04-.02.27.18.27.27Z"/><path d="m507.83,186.56c-.02,1.23-.03,2.45-.08,3.67-.01.34-.28.51-.6.45-.25-.05-.6-.09-.72-.26-.32-.46-.55-.97-.79-1.48-.37-.77.18-2.15,1.03-2.42.35-.11.77.01,1.16.04Z"/><path d="m493.15,189.78c.04.25.16.52.1.74-.06.22-.29.39-.45.58-.15-.2-.38-.39-.41-.61-.04-.22.1-.49.2-.72.05-.11.19-.25.28-.25.1.01.19.17.28.26Z"/><path d="m507.83,186.46s.06.03.09.04c0,.02.01.05.01.07-.03,0-.07,0-.1-.01v-.1Z"/><polygon points="509.22 192.29 509.27 192.57 509.11 192.54 509.22 192.29"/><path d="m492.96,15.8s-.07-.04-.1-.06c0,0,.01-.03.01-.04.07-.01.14-.02.21-.01-.04.04-.08.07-.12.11Z"/><path d="m493.08,15.69c.16-.15.31-.3.49-.43.06-.03.21.07.32.11-.19.34-.51.31-.81.32Z"/><path d="m515.01,44.8v114.43h-.01c-.03,1.66-.16,3.32-.27,4.97-.23,3.56-.12,7.07.28,10.59v18.84c-.34-.58-.75-1.11-1.39-1.49-.06-.04-.1-.06-.13-.07.08,0,.2-.05.28-.28.09-.25.44-.52.4-.69-.46-1.62-.36-3.37-1.13-4.91-.13-.25-.27-.6-.47-.67-.37-.12-.81-.14-1.18-.05-.21.05-.48.38-.5.61-.04.4.08.82.13,1.23.17,1.22-.43,2.19-1.06,3.13-.1.15-.55.21-.74.12-.19-.1-.35-.43-.37-.68-.08-.81.82-1.09,1.02-1.75.06-.21-.02-.62-.17-.71-.56-.35-1.18-.62-1.78-.92-.22-1.2-.39-2.42-.69-3.6-.18-.7-.75-1.17-1.53-1.19-.25-.01-.56.08-.73.24-.22.22-.12.54.2.61.64.14.85.61,1.04,1.15.19.53.05.87-.5.79-.68-.1-1.02.06-1.14.75-.18,1-.86,1.3-1.77,1.24-.01.03-.01.05-.02.08h-.13c-.15.19-.29.41-.48.54-.5.32-.72.21-1.07-.55h-.1s-.01-.03-.01-.04c-.58.36-1.17.65-1.87.77-1.2.2-2.64-.16-3.44,1.22-.02.03-.46-.13-.64-.28-.31-.27-.57-.61-.85-.92l.06.1h-.3c-.11.05-.22.09-.34.11-.06.01-.12-.05-.19-.11h-.16l.06-.09c-.84-.16-1.67-.38-2.51-.45-1.23-.11-2.09-.78-2.91-1.6-.45-.46-1.23-.22-1.29.36-.13,1.27-.22,2.54-.34,3.81-.02.13-.1.26-.15.39-.1-.1-.26-.17-.31-.28-.16-.39-.19-.88-.44-1.17-.74-.84-.84-1.74-.66-2.78.1-.55-.01-1.16-.49-1.56-.17-.15-.45-.21-.69-.25-.06,0-.19.21-.21.33-.05.42-.03.85-.08,1.27-.08.52-.36.77-.84.73-.42-.03-.84-.13-1.26-.09-.55.05-1.18.29-1.53-.29-.36-.59-.68-1.27-.78-1.94-.08-.52.14-1.12.36-1.63.3-.73.18-1.4-.12-2.05-.1-.21-.39-.45-.61-.46-.18-.01-.49.25-.55.45-.31.98-.04,1.97.05,2.96.07.7.06,1.4.06,2.11.01.49-.7,1.09-1.18.99-.69-.14-1.36-.39-2.05-.45-.7-.06-1.47-.02-2,.53-1.02,1.04-1.93.93-2.93-.04-.37-.35-.86-.22-1.11.14-.32.47-.65.93-.94,1.41-.36.61-.67,1.24-1.01,1.85-.27.47-.28.47-.69-.12-.16-.23-.26-.53-.47-.69-.2-.14-.64-.29-.75-.18-.66.59-1.39.78-2.28.82-.46.02-.91.6-1.31.98-.33.31-.21.54.53.59,1.11.07,1.8.67,2.35,1.54.08.12.17.34.12.4-.8.96-1.24,2.26-2.54,2.76-.24.09-.59.1-.82-.01-.19-.09-.37-.39-.4-.61-.02-.26.13-.54.18-.82.11-.6.02-1.25-.46-1.56-1.45-.94-1.82-2.45-2.34-3.93-.11-.32-.51-.55-.77-.82-.08.25-.19.49-.22.74-.06.41.06.89-.11,1.24-.41.86-.28,1.58.16,2.4.37.68.02,1.33-.69,1.76-.33.2-.98.11-1.13-.22-.17-.38-.26-.79-.4-1.18-.26-.73-1.07-1.08-1.65-.72-.35.22-.7,1.14-.54,1.51.12.25.28.5.47.7.69.75.61,1.53.15,2.34-.13.24-.3.45-.46.68-.07-.11-.15-.21-.23-.32-.47-.69-1.15-1.31-1.37-2.07-.68-2.29-2.02-4.4-2.05-6.88-.02-.96-.62-1.54-1.27-2.11-.08-.06-.25-.11-.32-.07-.11.07-.23.21-.24.34-.14,1.11-.02,2.25-.55,3.31-.07.14.24.46.35.71.1.24.28.53.22.75-.1.39-.27.9-.57,1.05-.27.14-.78-.08-1.13-.24-.24-.11-.55-.41-.54-.62.03-1.33-.43-2.43-1.24-3.48-.29-.38-.13-1.09-.2-1.65-.02-.12-.1-.25-.19-.34-.18-.19-.36-.05-.35.36.03,1.69-.11,3.4.7,4.98.09.19-.06.58-.22.78-.15.19-.45.36-.69.36s-.59-.15-.69-.34c-.58-1.12-.23-2.55-1.17-3.58-.2-.22-.37-.35-.7-.2-.12.07-.23.17-.35.24-1.18.69-1.3.62-2.18-.14-.77-.67-1.32-1.46-1.74-2.38-.18-.39-.5-.73-1-.59-.65.17-1.38.96-1.35,1.46.05.7-.03,1.51.29,2.09,1.09,1.99,1.14,4.36,2.32,6.31.3.49-.1.76-.45.99-.35.24-.69.5-1.08.66-.57.22-1.18.13-1.58-.3-.58-.61-1.04-1.33-1.56-2-.24-.32-.48-.3-.66.02-.06.12-.14.25-.14.38,0,.28-.03.59.07.83.7,1.56,1.43,3.1,2.16,4.63.15.33.11.6-.24.7-.24.07-.6.09-.78-.05-1.48-1.08-2.28-2.48-1.96-4.4.14-.83.15-1.69.2-2.54.05-.66.49-.99,1.03-1.21.63-.26.85-.63.56-1.29-.25-.57,0-1.09.23-1.62.19-.44-.08-.79-.46-1.02-.22-.14-.46-.24-.69-.36-.39,1.2-.93,2.26-2.36,2.51-.49.08-.69.44-.87.82-.05.13-.07.28-.1.42-.13.58-.44,1.03-1.01,1.28-.78.34-1.56.69-2.33,1.05-.04.02-.08.04-.11.05.05.01.08.08.03.26-.02.07.15.23.26.29.49.29.98.6,1.59.33.39-.16.79-.31,1.2-.42.37-.1.96.24,1.02.55.33,1.53.64,3.06.11,4.61-.04.13-.16.34-.22.34-.26-.06-.54-.12-.74-.28-.91-.69-.61-1.84-.97-2.74-.13-.31-.33-.53-.65-.42-.8.29-1.57.43-2.41.12-.15-.06-.54.2-.64.4-.36.72-.85,1.09-1.68.93-.41-.08-.86-.19-1.26-.12-.97.17-1.94.45-2.9.68-2.14-1.04-4.54.06-6.72-.79-.49-.19-1.15.11-1.69-.01-.84-.17-1.27.17-1.7.84-.67,1.04-1.81,1.32-2.95,1.45-.38.05-.85-.17-1.2-.39-.44-.29-.2-.73-.05-1.11.21-.58.19-1.09-.34-1.51-.42-.32-.93-.36-1.12-.03-.41.73-.79,1.49-1.25,2.2-.11.17-.54.31-.73.24-.83-.33-1.54-.57-2.32.21-.48.49-1.17.8-1.81,1.09-.5.22-1.04.48-1.63.18-.86-.45-1.66-.01-2.48.17-.18.04-.62-.21-.61-.26.42-2.1-2.32-2.44-2.37-4.27,0-.06-.26-.2-.32-.16-.11.06-.18.22-.23.35-.28.8.05,1.72-.5,2.46-.06.09-.22.13-.34.15-.14.01-.32.03-.4-.04-.71-.62-.6-1.57-.95-2.33-.24-.52-.39-1.07-.61-1.59-.08-.21-.24-.38-.36-.57-.44.37.03-.14-.03.43-.16,1.55-.31,3.11-.49,4.66-.03.28-.12.57-.29.79-.15.2-.41.36-.66.45-.38.14-1.02-.1-1.12-.38-.33-.92-.58-1.85-1.06-2.73-.23-.44-.12-1.1-.09-1.66.03-.51.41-.62.87-.67,1.02-.13,1.27-.31,1.17-.79-.12-.61-.48-.98-1.13-1.05-.28-.03-.6-.02-.82-.16-.18-.11-.35-.43-.32-.62.04-.25.24-.52.45-.7,1.01-.86,1.53-2.02,1.99-3.22.28-.74.14-1.13-.52-1.28-.95-.23-1.9-.47-2.86-.63-.19-.03-.62.3-.62.46,0,.98.1,1.96.17,2.93.09,1.17-.75,2.39-2.07,2.85-.21.08-.72-.1-.75-.23-.24-1.26-1.12-1.11-1.94-.85-.67.21-1.29.6-1.91.94-.63.33-1.2.91-1.85,1-1.79.25-2.66,1.51-3.56,2.8-.07.1-.09.3-.04.41.04.08.22.14.35.15.56.05,1.14.05,1.69.14,1.09.18,1.89-.15,2.61-1.02.55-.67,1.23-.44,1.57.45.26.65.45,1.33.63,2.01.08.3-.38,1.01-.65.99-1.58-.11-3,.85-4.61.65-.34-.04-.76.26-1.11.47-.63.36-1.26.57-2.02.39-.54-.14-1.12-.18-1.68-.14-.97.07-1.58-.3-2.08-1.14-.35-.6-.91-.7-1.44-.42-.62.33-1.26.65-1.81,1.08-1.44,1.13-3.08,1.95-4.63,2.9-.56.33-.94.06-.95-.79-.01-.35.01-.58-.34-.62-.14-.01-.32.01-.41.1-.42.38-.81.79-1.22,1.19-.34.34-.73.36-1.14.16-1.69-.81-2.96-1.04-5.27-.72-1.36.19-2.82-.58-4.09.46-.19.15-.35-.14-.52-.41-.54-.86-.57-.85-1.23-.57-.39.16-.77.36-1.16.52-.27.11-.53.23-.81.29-.68.16-1.39.42-2.07.38-2.87-.17-5.66.27-8.45.85-1.68.36-3.35.59-5.05.08-.98-.29-1.97-.14-2.96.03-1.26.23-2.54.37-3.81.55-.98.15-1.95.3-2.96.13-.55-.09-1.19-.13-1.69.07-3.46,1.42-7.21,1.47-10.8,2.29-2.33.53-4.77.67-7.15,1.07-1.43.25-2.83.05-4.14-.65-.37-.2-.82-.27-1.18-.48-1.36-.81-2.68-.84-4,.08-1.35.94-2.88,1.26-4.47,1.15-3.13-.21-6.24.52-9.37.01-.27-.04-.59-.02-.84.08-2.05.85-4.2.64-6.32.61-4.12-.06-8.25-.23-12.33.45-1.9.32-3.68-.19-5.48-.58-.85-.19-1.63-.35-2.49-.1-.68.21-1.41.34-2.11.32-3.41-.11-6.84-.08-10.22-.48-3.85-.47-7.67-.28-11.48.06-1.85.17-3.7.2-5.53.11-2.27-.11-4.52-.55-6.79-.04-3.27-.15-6.53-.25-9.79-.5-1-.08-1.97-.19-2.96-.07-1.43.17-2.84.09-4.25-.24-.55-.12-1.13-.26-1.68-.19-1.58.19-3.12-.19-4.67-.23-3.72-.09-7.35-.83-11.03-1.19-2.4-.24-4.81-.52-7.18-.97-2.22-.43-4.4-1.11-6.59-1.7-2.33-.63-4.66-1.27-6.99-1.93-.96-.27-1.9-.59-2.85-.88-1.09-.33-2.16-.73-3.27-.97-5.16-1.11-10.19-2.6-15.13-4.46-3.3-1.24-6.02-3.16-8.06-6.05-.42-.6-.65-1.24-.87-1.92-.04-.14-.42-.2-.65-.24-.07,0-.19.17-.23.28-.1.25-.15.74-.24.74-1.47.06-2.24,1.03-2.97,2.12-.18.27-.54.16-.62-.21-.25-1.09-.91-1.58-1.98-1.89-.58-.17-.98-.91-1.45-1.41-.08.22-.15.44-.27.64-.41.67-.71.82-1.35.64-.27-.07-.52-.23-.78-.32-.83-.26-1.63-.29-2.44.16-.47.26-1.04.4-1.58.47-.89.11-1.68-.12-2.13-1-.2-.37-.34-.79-.61-1.1-.46-.53-1-1-1.81-.82-.45.1-.83-.05-1.06-.45-.29-.51-.65-1.04-1.23-1.02-.25.01-.46.63-.73.93-.38.43-.81.81-1.45.55-.83-.34-1.66-.36-2.46.03-.79.38-1.6.48-2.46.39-.98-.11-1.85-.72-2.89-.49-.82.18-1.65.31-2.48.47.03.03.04.07.05.1l-.08-.08c-.37.39-.7.85-1.13,1.17-.53.4-1.02.23-1.39-.31-.02.03-.04.05-.06.08,0-.03.01-.07.01-.1-.76-.07-1.46-.86-2.29-.04-.3.29-.76.02-1.17-.13-.63-.25-1.17.06-1.16.61,0,.28.08.56.11.83.04.41.24.96-.31,1.06-.32.05-.81-.21-1.05-.48-.67-.72-1.32-.89-2.23-.4-.8.44-1.58.38-2.2-.49-.48-.67-1.54-.48-2.05-1.31-.29-.48-1.03-.33-1.55-.06-.25.13-.49.31-.66.52-1.03,1.3-2.28.74-3.48.4-.23-.07-.45-.35-.58-.58-.27-.49-.46-1.02-.72-1.52-.2-.39-.73-.55-1.07-.31-.8.55-1.58,1.11-2.59,1.13-.03.53-.08,1.06-.11,1.58-.83-.31-1.26-.99-1.68-1.72-.34-.62-.76-1.19-1.16-1.77-.03-.03-.32.04-.38.13-.66,1.06-1.87,0-2.62.7-.38-.17-.76-.33-1.14-.51-.88-.42-.9-.43-1.58.52-.2.3-.37.47-.67.29-.45-.27-.67-.07-1.01.26-1.11,1.11-1.59,1.09-2.33.04-.41-.57-.8-1.15-1.23-1.7-.25-.31-.89-.22-1.01.16-.11.36.08.91-.54.92-.51.01-.63-.45-.82-.83-.54-1.08-.56-1.09-1.5-.76-.66.24-1.36.42-1.95.78-.61.36-.71-.07-.94-.39-.17-.23-.28-.52-.5-.67-.2-.14-.69-.22-.73-.15-.52.95-1.5,1.21-2.32,1.73-.3.19-.34.75-.58,1.08-.11.17-.4.21-.61.31-.11-.25-.3-.49-.31-.75-.02-.42.08-.84.14-1.26.06-.4.33-.86-.08-1.18-.76-.57-.65-1.55-1.12-2.23-.2-.29-.67-.5-1.05-.54-.44-.05-.9.3-.88.73.04,1.19-.59,1.77-1.61,2.13-.11.04-.21.18-.28.29-.08.12-.11.27-.15.4-.13.37.13,1.04.43,1.06.84.05,1.69.06,2.52.17.2.03.47.36.5.58.02.16-.26.43-.47.55-.49.27-.99.48-1.6.21-.37-.17-.81-.2-1.23-.26-.38-.05-.88.4-.87.74,0,.14-.05.31,0,.42.41.97.49,1.94-.01,2.88-.68,1.28-.85,2.63-.86,4.09-.01,1.97-.3,3.95-.5,5.93-.02.21-.25.56-.4.57-.22.01-.63-.19-.66-.36-.52-2.49-.94-5-.76-7.57.04-.56.06-1.13.14-1.7.4-2.75-.35-5.36-1.04-7.95-.28-1.06-1.07-1.98-1.67-2.94-.29-.47-1.11-.45-1.46.02-.43.56-.88,1.12-1.24,1.72-.29.48-.35,1.13-.7,1.54-.82.92-1.02,1.95-.97,3.14.02.52-.31,1.07-.51,1.59-.04.12-.27.28-.32.25-.23-.13-.53-.28-.62-.49-.17-.38-.34-.83-.28-1.22.24-1.59-.1-3.1-.46-4.61-.16-.66-.69-.88-1.25-.98-.39-.07-.81-.04-1.22-.05-.34.49-.85.71-1.38.43-1.8-.91-3.55-.58-5.31.06-.26.1-.49.32-.76.37-.23.05-.67.04-.74-.09-.77-1.52-2.22-1.57-3.62-1.75-.56-.08-1.04-.58-1.08-1.14-.29-3.93-1.06-7.84-.32-11.81.23-1.22.15-2.54-.01-3.79-.22-1.8-.34-3.59-.4-5.39h-.04V38.67c.84-.99,1.86-1.85,2.95-2.67.7-.53,1.42-1.06,2.06-1.66,1.57-1.46,3.5-2.18,5.51-2.6,2.01-.41,4.04-.62,6.13-.51,5.29.29,10.57.59,15.87.36,1.17-.05,2.37-.04,3.53.11,4.22.56,8.44,1.15,12.64,1.82,1.15.18,2.27.61,3.37,1.02,1.78.68,3.55,1.41,5.29,2.18.52.23,1.07.58,1.39,1.02.95,1.3,2.2,1.22,3.52.98.24-.33.46-.68.74-.98.33-.34.84-.26,1.07.15.14.25.21.53.34.78.34.71.74,1.01,1.24.88.42-.11.82-.26,1.23-.41,1.21-.45,2.22.16,3.28.55.48.7,1.27.45,1.92.61.24.06.56.32.61.54.11.57.07,1.16.13,1.75.06.63.53,1.19,1.04,1.26.88.11,1.75.28,2.63.28,1.15,0,1.93.49,2.56,1.42.37.56.71.12.96-.21.56-.78,1.27-1.16,2.25-1.06.58.07,1.18.05,1.76.02.78-.04,1.43.18,2.02.69.6.51,1.42.73,2.05.32.95-.62,1.93-.5,2.93-.52.52-.01.75-.33.68-.88-.1-.72-.18-1.45-.24-2.18-.03-.42.51-.75.92-.57.27.11.5.32.77.43.8.36,1.36.12,1.7-.72.11-.27.14-.57.22-.85.12-.42.19-.86.81-.79.58.07,1.16.06,1.75.1.87.06,1.62.76,1.73,1.68.06.58.01,1.17.04,1.76.02.37.29.64.52.49.71-.43,1.22-.27,1.94.12,1.48.81,3.1.78,4.59-.09.62-.36.72.23,1.07.35.39.14.83.22,1.25.22.47,0,.82-.32.94-.76.15-.57.21-1.14.32-1.71.86-.64.63-1.72.95-2.58.05-.12.17-.22.26-.33.1.1.24.18.29.3.29.62.34,1.36,1,1.79.62.4.76,1.09,1.02,1.71.86.25,1.69.1,2.52-.19.36-.12.45-.32.37-.67-.22-.93-.75-1.56-1.69-1.78-.41-.1-.86-.09-1.24-.25-.15-.06-.17-.47-.19-.72,0-.12.11-.27.21-.38,1.35-1.44,2.99-1.18,3.8.6.12.25.08.57.14.85.14.74.74.69,1.28.75.23-.87.36-1.79.9-2.54-.36-.14-.73-.27-1.07-.44-.09-.04-.2-.27-.16-.35.11-.25.24-.58.45-.67.7-.29,1.45-.26,2.08.19.59.42,1.07.97,1.86,1.04.75.07,1.44.14,1.86-.7.47-.98,1.38-1.03,2.24-.79.83.23,1.56.79,2.51.51.23-.07.63.01.8.18,1.12,1.17,2.98,1.1,4.02,2.53.64.87,1.19.7,2.33.11,1.03-.54,1.54-1.28,1.38-2.46-.07-.51.25-.9.69-.95.97-.11,1.35-1.1,2.16-1.33.8-.22,1.7-.1,2.48-.35.45-.15.71-.95,1.29-.18.24.32.48.3.62-.03.06-.13.08-.28.12-.41.12-.41.17-.95.7-.94.59.02.48.54.44.95-.01.14-.03.29-.01.43.01.14.04.3.12.39.21.24.49.23.76-.01.32-.3.6-.66.95-.9.21-.14.54-.11.82-.12.65-.01.74,1.52,1.72.64.68.07,1.37.1,2.03.22.25.05.5.27.66.48.3.4.65.51,1.11.38.84-.23,1.84-.23,2.51-.7,1.69-1.2,3.05-.41,4.26.61.79.68,1.66,1.17,2.53,1.69h.01c1.14-.81,2.26-1.65,3.42-2.44.72-.5,1.45-1.02,2.23.04.17.24.83.27,1.21.17,1.02-.27,2.07-.35,3.03-.03,1.04.35,2,.3,3.01.07.63-.14,1.15,0,1.55.5.63.78,1.57.67,2.4.89.31.08.54-.02.67-.35.33-.78.21-1.76,1.07-2.3-.02-.04-.04-.07-.06-.11h.13c.13-.24.32-.3.52-.18.07.04.13.11.19.17h.17s-.01.06-.01.09c.64-.21,1.31-.62,1.92-.55.77.08,1.33-.1,1.94-.48.12-.08.54.1.69.28.25.32.42.72.6,1.11.22.5.4,1.01.9,1.3.16-1.24,1.23-1.88,1.89-2.77.58-.78.6-.76,1.16-.12.19.22.35.46.54.69.53.67.56.68,1-.08.24-.41.48-.76.97-.45,1.27.81,2.6.48,3.72-.1.86-.44,2.02-.57,2.52-1.64.1-.22.5-.14.65.18.48,1.08,1.25,1.54,2.42,1.25.73.39,1.44.01,2.13-.09.85-.12,1.66-.53,2.51-.69.7-.14,1.44-.08,1.98-.71.19-.23.51-.1.69.23.49.89,1.62.27,2.26,1.02.58.69,1.31.33,1.9-.21.32-.29.61-.64.95-.91.37-.29.76-.34,1.12.07.19.21.41.46.66.53.55.15,1.18.4,1.66-.05.29-.27.39-.75.59-1.13.21-.39.87-.43,1.07-.07.15.25.34.48.42.75.11.42.14.87.23,1.3.03.13.12.26.19.39.12-.22.27-.43.34-.66.08-.28.03-.6.13-.86.08-.23.3-.41.47-.62.18.22.43.41.52.66.18.52.21,1.1.78,1.37.03-.24.05-.49.09-.74.03-.12.12-.25.22-.34.21-.22.49-.19.69.12.54.84,1.05,1.7,1.59,2.55.07.1.24.17.37.19.08.01.24-.08.26-.15.16-.85.31-1.71.45-2.56.03-.14.06-.28.08-.42.07-.42.23-.42.4.04.15.4.17.85.34,1.24.34.78,1.28.93,1.72.28.4-.58.73-1.22,1.1-1.82.2-.32.89-.2,1.1.2.19.38.45.77.49,1.17.06.65,0,1.31,0,1.97.88-.86.39-2.19,1.02-3.13.17-.26.4-.21.64.07.83.92,1.05.97,1.51.3.16-.24.26-.52.4-.78.29-.59.89-.71,1.42-.93.45-.19.82-.1,1.09.33.23.37.41.79.94.83.57.04,1.18.41,1.69,0,.81-.64,2.09.14,2.74-1.04.25-.45.71-.29.97.13.48.77.74,1.56.66,2.49-.05.6.31.88.76.77.26-.07.56-.15.73-.33.18-.2.21-.53.33-.8.31-.71.9-1.11,1.55-1.49.73-.43,1.36.1,2.03.14.07-.4.07-.86.28-1.15.43-.56,2.08-.53,2.33.05.42.97.97,1.77,1.91,2.26.25.14.53.23.81.27.55.07.97-.77,1.51-.37.46.35.77.8,1.46.7.9-.13,1.53.55,2.28.88.02-1.42.02-2.83.07-4.25,0-.17.3-.35.49-.46.06-.03.31.13.34.24.19.7.31,1.41.54,2.1.04.13.44.18.68.2.07,0,.24-.23.23-.35-.06-1.01-.16-2.03-.24-3.04-.04-.46.38-.75.85-.52.65.32,1.24.77,2.02.32.25-.14.55-.22.84-.25,1.17-.13,1.78-.83,2.15-1.89.15-.47.65-.47,1.02-.12.76.72,1.43,1.46,1.49,2.58.05.87.17,1.74.3,2.61.1.61.54,1.03,1.04,1.34.23.15.54.29.79.25.19-.03.49-.34.49-.52-.04-1.36.16-2.59,1.08-3.69.35-.41.33-1.1.57-1.62.1-.2.44-.31.7-.4.05-.02.23.16.29.28.26.52.44,1.1.78,1.56.5.67,1.65.6,1.92,1.61.02.1.54.15.78.07.37-.14.7-.42,1.13-.34-.04.4-.07.83-.15,1.23-.27,1.3-.19,1.86.76,2.19.72.26,1.28.67,1.87,1.09.19.13.74.14.77.06.41-1.05,2.05-.28,2.31-1.63.14-.69.59-1.35,1.01-1.95.7-1.03.35-1.91-.22-2.8.56-.38,1.13-.76,1.71-1.1.54-.32,1.11-.32,1.64.02.61.39,1.16.88,1.8,1.21.34.18.83.22,1.2.13,1.23-.33,1.92.24,2.42,1.26.24.51.49,1.03.77,1.52.17.29.79.32,1.19.1.36-.19.57-.84.33-1.12-.28-.33-.6-.61-.91-.91-.31-.3-.52-.63-.48-1.08.84-.17,1.65-.43,2.31-1,.59-.51,1.36-.82,2.02-.54,1.49.63,2.12-.37,2.89-1.23.26-.29.59-.2.68.19.2.89.44,1.64,1.59,1.69.84.03,1.2.68,1.38,1.46.1.42.29.94.82.81.37-.08.75-.4,1-.72.59-.7.53-1.65.81-2.46.17-.51.65-.95,1.07-1.33.32-.28.81-.37,1.18-.03.32.31.55.57.84-.02.19-.39.46-.78.97-.5.23.13.43.4.53.66.3.79-.52,1.66.21,2.5.46.53.66,1.29.98,1.94.07.13.19.22.29.33.22.27.5.32.77.08.2-.19.51-.48.47-.65-.12-.55-.48-1.05-.56-1.59-.18-1.14-.25-2.3-.35-3.46-.04-.37.58-.62,1.06-.4.37.18.74.4,1.1.6.45-1.36,1.14-2.56,2.24-3.53.37-.33.31-.9-.02-1.18-.77-.64-1.04-1.34-.68-2.29.11-.27.11-.58.2-.85.04-.12.18-.23.3-.29.08-.04.28-.04.3,0,.44.92.83,1.86,1.29,2.76.26.51.62.97.95,1.45.22.34.9.44,1.13.17.27-.34.49-.72.76-1.05.39-.46.85-.87,1.5-.69,1.4.41,2.61-.11,3.67-.9.54-.4.83-1.15,1.25-1.72.21-.28.88-.3,1.18.01.17.18.37.6.28.72-.8,1.12.38,1.77.63,2.63.01.05.56.03.79-.09.39-.22.69-.52.95.13.27.67.58,1.33.89,1.98.05.11.22.19.34.22.28.09.42-.1.43-.49.05-1.02.09-2.04.17-3.06.05-.57.64-.99,1.27-.91.43.06.85.21,1.28.28.47.08.86-.11,1.08-.53.27-.5.49-1.01.73-1.53-.36-.18-.71-.35-1.04-.58-.83-.58-1.65-1.17-2.76-.95-.03,0-.19-.27-.15-.34.46-.94,1.33-1.5,2.11-2.14.48-.39,1.11-.25,1.66,0,.66.29,1.1,0,1.49-.49.08-.11.21-.21.34-.24.11-.02.35.02.36.07.11.42.2.84.24,1.26.07.58.11,1.16.11,1.74.01.73.89.72,1.06,1.27.38,1.26.9,2.51,1.03,3.8.11,1.15.89,1.33,1.6,1.77.22.13.28.5.44.75.24.39.4.35.56-.06.35-.95,1.22-1.53,2.06-1.24,1.36.48,2.23.08,3.01-.94.45-.59.97-1.01,1.72-1.26,1.8-.59,3.69-1.08,5.33-1.99,2.86-1.6,5.95-2.47,9.06-3.32,3.25-.89,6.53-1.73,9.84-2.3,2.07-.35,3.62-1.04,4.4-3.06.04-.11.23-.16.36-.23.14.23.34.45.4.71.06.27-.08.6.01.86.07.22.33.55.51.55.87,0,1.76-.05,2.62-.16.76-.1,1.34-.47,1.69-1.22.72-1.5,1.95-1.46,3.27-1.04.14.78.47,1.32,1.4,1.25,1.9-.14,3.8-.3,5.71-.41,5-.27,9.99-.18,14.96.53,1.46.21,2.94.37,4.4.33,2.11-.07,4.04.44,5.96,1.21,2.73,1.08,5.52,2.04,8.01,3.65.89.57,1.81.89,2.89.72.68-.1.94.63,1.42.93.23.14.54.17.82.2.13.02.3-.06.4-.15,1.43-1.22,3.13-1.45,4.93-1.49,1.75-.03,3.47-.37,5.23.04.67.15,1.45-.12,2.17-.24,1.44-.24,2.87-.53,4.32-.75.41-.06.85.02,1.27.09,1.15.2,2.29.45,3.45.63.23.03.61-.12.75-.31.49-.68,1.19-.93,1.92-.8,1.81.32,3.48-.14,5.16-.68.71-.23,1.5-.51,2.14-.13,1.19.71,2.26.12,3.4.01,1.09-.1,1.98-.47,2.8-1.14.5-.4,1.07-.38,1.67-.24.27.07.66.13.84-.01.9-.71,1.77-1.47,2.62-2.26.19-.17.19-.54.32-.8.12-.24.27-.61.46-.66.49-.1.75.33.98.69.23.37.47.76.61,1.17.57,1.65,1.66,2.72,3.35,3.2.27.08.6.18.77.39.27.32.51.72.62,1.13.15.51-.22.8-.68.93-.73.21-1.42.49-1.69,1.25-.09.24.06.55.1.83.14-.03.32-.01.42-.09.78-.72,1.54-.7,2.35-.01.3.25.67.44,1.01.65-.18.68-.56,1.35-.08,2.05,1.11,1.61,1.72,3.45,1.85,5.34.11,1.68.6,3.12,1.47,4.51.26.41,0,.75-.51.96-.57.23-.67.75-.3.94.64.34,1.29.66,1.97.89.17.06.64-.2.68-.38.43-1.98.85-3.97,1.17-5.97.17-1.01.17-2.05-.29-3.02-.54-1.14-.27-2.6-1.37-3.5.14-.55.12-1.25.46-1.64.96-1.1,1.21-2.33.96-3.68-.17-.9,0-1.73.16-2.59.13-.73-.2-1.33-.71-1.83-.07.08-.13.16-.2.25.04-.12.07-.24.1-.35l.1.09c.29-.51.57-1.03.88-1.53.05-.09.23-.16.34-.16.11.01.28.11.3.19.09.43.19.87.2,1.3.02,1.77-.03,3.54.52,5.26.09.27.12.58.12.87.11,3.68.82,7.31,1.11,10.97.44,5.57,1.17,11.12,1.26,16.73.03,1.75.45,3.49.71,5.24.1.65.92,1.17,1.69,1.08.58-.07,1.18-.11,1.74-.27,1.12-.32,2.23-.71,3.34-1.08,1.33-.44,2.37-1.15,2.65-2.65.04-.25.33-.45.5-.67.17.19.42.35.49.57.16.56.45.93.84,1.14Z"/></g></svg>