<?xml version="1.0" encoding="UTF-8"?><svg id="Layer_1" xmlns="http://www.w3.org/2000/svg" viewBox="0 0 733.4 733.4"><defs><style>.cls-1{fill:#f2f2f2;}</style></defs><polygon class="cls-1" points="441.53 425.59 366.7 555.88 291.88 425.59 366.7 177.53 441.53 425.59"/><polygon class="cls-1" points="550.12 425.62 504.02 499.73 457.91 425.62 504.02 284.51 550.12 425.62"/><polygon class="cls-1" points="276.38 425.62 230.28 499.73 184.18 425.62 230.28 284.51 276.38 425.62"/><path class="cls-1" d="m366.7,124.72c133.64,0,241.98,108.34,241.98,241.98s-108.34,241.98-241.98,241.98-241.98-108.34-241.98-241.98,108.34-241.98,241.98-241.98m0-39.65c-38,0-74.89,7.45-109.64,22.15-33.54,14.19-63.66,34.49-89.51,60.34-25.85,25.85-46.15,55.97-60.34,89.51-14.7,34.75-22.15,71.63-22.15,109.64s7.45,74.89,22.15,109.64c14.19,33.54,34.49,63.66,60.34,89.51,25.85,25.85,55.97,46.15,89.51,60.34,34.75,14.7,71.63,22.15,109.64,22.15s74.89-7.45,109.64-22.15c33.54-14.19,63.66-34.49,89.51-60.34,25.85-25.85,46.15-55.97,60.34-89.51,14.7-34.75,22.15-71.63,22.15-109.64s-7.45-74.89-22.15-109.64c-14.19-33.54-34.49-63.66-60.34-89.51-25.85-25.85-55.97-46.15-89.51-60.34-34.75-14.7-71.63-22.15-109.64-22.15h0Z"/></svg>