<?xml version="1.0" encoding="utf-8"?>
<!-- Generator: Adobe Illustrator 27.7.0, SVG Export Plug-In . SVG Version: 6.00 Build 0)  -->
<svg version="1.1" id="logosandtypes_com" xmlns="http://www.w3.org/2000/svg" xmlns:xlink="http://www.w3.org/1999/xlink" x="0px"
	 y="0px" viewBox="0 0 150 150" style="enable-background:new 0 0 150 150;" xml:space="preserve">
<style type="text/css">
	.st0{fill:#FFFFFF;}
</style>
<path class="st0" d="M132.2,62.5c3-9.1,2-19-2.9-27.3C122,22.5,107.4,16,93.1,19.1c-12.4-13.9-33.8-15-47.6-2.5
	c-4.4,4-7.7,9-9.5,14.6c-9.4,1.9-17.5,7.8-22.2,16.1C6.4,60,8.1,75.9,17.9,86.8c-3,9.1-2,19,2.8,27.3c7.3,12.7,21.9,19.2,36.2,16.1
	c6.4,7.2,15.5,11.2,25.1,11.2c14.6,0,27.6-9.4,32.1-23.4c9.4-1.9,17.5-7.8,22.2-16.1C143.6,89.3,141.9,73.4,132.2,62.5L132.2,62.5z
	 M82,132.6c-5.8,0-11.5-2-16-5.8l0.8-0.4l26.6-15.3c1.3-0.8,2.2-2.2,2.2-3.8V69.8l11.2,6.5c0.1,0.1,0.2,0.2,0.2,0.3v31
	C107,121.4,95.8,132.6,82,132.6L82,132.6z M28.3,109.7c-2.9-5.1-4-11-3-16.8l0.8,0.5l26.6,15.3c1.3,0.8,3,0.8,4.3,0L89.5,90v13
	c0,0.1-0.1,0.3-0.2,0.3l-26.9,15.5C50.5,125.8,35.2,121.7,28.3,109.7L28.3,109.7z M21.3,51.8c3-5.1,7.6-9,13.2-11v31.6
	c0,1.6,0.8,3,2.2,3.8L69,94.9l-11.2,6.5c-0.1,0.1-0.3,0.1-0.4,0L30.5,85.9c-11.9-6.9-16-22.2-9.1-34.1L21.3,51.8L21.3,51.8z
	 M113.6,73.3L81.1,54.4L92.4,48c0.1-0.1,0.3-0.1,0.4,0l26.9,15.5c12,6.9,16,22.2,9.2,34.1c-2.9,5-7.5,8.9-12.9,10.9V77
	C115.8,75.4,114.9,74,113.6,73.3z M124.8,56.5L124,56L97.4,40.5c-1.3-0.8-3-0.8-4.4,0L60.6,59.3v-13c0-0.1,0-0.3,0.2-0.3l26.9-15.5
	c12-6.9,27.3-2.8,34.2,9.2C124.8,44.8,125.9,50.7,124.8,56.5L124.8,56.5L124.8,56.5z M54.5,79.5L43.2,73c-0.1-0.1-0.2-0.2-0.2-0.3
	v-31c0-13.8,11.2-25,25-25c5.8,0,11.5,2,16,5.8L83.2,23L56.7,38.3c-1.3,0.8-2.2,2.2-2.2,3.8V79.5L54.5,79.5z M60.6,66.3L75,58
	l14.5,8.3V83l-14.4,8.3L60.6,83V66.3z"/>
</svg>
