<?xml version="1.0" encoding="UTF-8"?><svg id="Layer_1" xmlns="http://www.w3.org/2000/svg" viewBox="0 0 2591.4 733.4"><defs><style>.cls-1{fill:#2f3349;}</style></defs><path class="cls-1" d="m1189.25,505.42h-88.78l-111.93-111.93h-178.19v111.93h-65.32v-176.93h362.73v-35.51h-362.41v-65h429.31v165.51h-97.34l111.93,111.93Z"/><path class="cls-1" d="m1452.73,227.98l174.71,277.44h-72.61l-138.56-219.73-138.56,219.73h-72.61l175.02-277.44h72.61Z"/><path class="cls-1" d="m1903.6,366.86l-86.24,70.71-82.76,67.85h-91.32l168.68-138.56h.32l-.32-.32-168.68-138.56h91.32l123.34,101.15,123.34-101.15h91.32l-136.02,111.61-32.66,26.95-.32.32Z"/><path class="cls-1" d="m2088.45,505.42V227.98h429.31v277.44h-65v-214.66h-299.31v214.66h-65Z"/><path class="cls-1" d="m602.44,257.07c-14.19-33.54-34.49-63.66-60.34-89.51-25.86-25.85-55.97-46.15-89.51-60.34-34.75-14.7-71.64-22.15-109.64-22.15s-74.89,7.45-109.64,22.15c-33.54,14.19-63.65,34.49-89.5,60.34-25.86,25.85-46.16,55.97-60.34,89.51-14.7,34.75-22.15,71.63-22.15,109.64s7.45,74.89,22.15,109.63c14.18,33.54,34.48,63.66,60.34,89.51,25.85,25.85,55.96,46.15,89.5,60.34,34.75,14.7,71.64,22.15,109.64,22.15s74.89-7.45,109.64-22.15c33.54-14.19,63.65-34.49,89.51-60.34,25.85-25.85,46.15-55.97,60.34-89.51,14.69-34.74,22.14-71.63,22.14-109.63s-7.45-74.89-22.14-109.64Zm-395.91,242.67l-46.1-74.12,46.1-141.11,46.1,141.11-46.1,74.12Zm136.42,56.14l-74.82-130.29,74.82-248.06,74.83,248.06-74.83,130.29Zm137.31-56.14l-46.1-74.12,46.1-141.11,46.1,141.11-46.1,74.12Z"/></svg>