<?xml version="1.0" encoding="UTF-8"?><svg id="Layer_1" xmlns="http://www.w3.org/2000/svg" viewBox="0 0 1920 425.73"><defs><style>.cls-1{fill:#f2f2f2;}</style></defs><path class="cls-1" d="m517.85,351.58h-88.78l-111.93-111.93h-178.19v111.93h-65.32v-176.93h362.73v-35.51H73.95v-65h429.31v165.51h-97.34l111.93,111.93Z"/><path class="cls-1" d="m781.33,74.14l174.71,277.44h-72.61l-138.56-219.73-138.56,219.73h-72.61l175.02-277.44h72.61Z"/><path class="cls-1" d="m1232.2,213.02l-86.24,70.71-82.76,67.85h-91.32l168.68-138.56h.32l-.32-.32-168.68-138.56h91.32l123.34,101.15,123.34-101.15h91.32l-136.02,111.61-32.66,26.95-.32.32Z"/><path class="cls-1" d="m1417.05,351.58V74.14h429.31v277.44h-65v-214.66h-299.31v214.66h-65Z"/></svg>