<?xml version="1.0" encoding="utf-8"?>
<!-- Generator: Adobe Illustrator 27.6.1, SVG Export Plug-In . SVG Version: 6.00 Build 0)  -->
<svg version="1.1" id="Layer_2_00000093151185484083367610000005549950971435778446_"
	 xmlns="http://www.w3.org/2000/svg" xmlns:xlink="http://www.w3.org/1999/xlink" x="0px" y="0px" viewBox="0 0 1780 235.4"
	 style="enable-background:new 0 0 1780 235.4;" xml:space="preserve">
<style type="text/css">
	.st0{fill:#F2F2F2;}
</style>
<g id="Layer_1-2">
	<path class="st0" d="M250.9,156.7h-50.2l-63.2-63.2H36.9v63.2H0V56.8h204.9V36.7H0.2V0h242.5v93.5h-55L250.9,156.7L250.9,156.7z"/>
	<path class="st0" d="M296.8,93.5V120h205.8v36.7H259.9v-100h187.2v36.7H296.8L296.8,93.5z M260.1,0h242.5v36.7H260.1V0z"/>
	<path class="st0" d="M548.3,0.2v121.3H599v35.3h-87.4V0.2H548.3z M717.4,0.2h36.7v156.6H622.8V53.4h36.7v68.1h57.9L717.4,0.2
		L717.4,0.2z"/>
	<path class="st0" d="M902.9,0l98.7,156.7h-41L882.3,32.6l-78.3,124.1h-41L861.9,0H902.9z"/>
	<path class="st0" d="M1261.5,156.7h-50.2l-63.2-63.2h-100.7v63.2h-36.9V56.8h204.9V36.7h-204.7V0h242.5v93.5h-55L1261.5,156.7z"/>
	<path class="st0" d="M1440.8,0l71.5,59.3v97.4h-241.8V0H1440.8z M1475.4,120.2V76.3l-48-39.6h-120v83.5H1475.4z"/>
	<path class="st0" d="M1619.6,118.4l-2,1.6h146.2v36.7h-242.5l83.8-68.8l11.6-9.5h0.2l50.7-41.7h-146.3V0h190.4v0.5l0.7-0.5h51.4
		l-76.7,63l-18.6,15.2l-0.2,0.2C1668.3,78.5,1619.6,118.4,1619.6,118.4z"/>
	<path class="st0" d="M34.6,225.7h-22l-3.7,9.1H0.1L18.7,191h9.7l18.7,43.8h-8.8L34.6,225.7z M31.6,218.3l-8-19.7l-8,19.7H31.6
		L31.6,218.3z"/>
	<path class="st0" d="M124.8,191v25.1c0,11.8-7.5,19.3-19.3,19.3s-19.3-7.5-19.3-19.3V191h8.4v26.2c0,6.6,4.3,10.9,10.9,10.9
		s10.9-4.3,10.9-10.9V191L124.8,191L124.8,191z"/>
	<path class="st0" d="M202.7,198.3h-13.7v36.5h-8.4v-36.5H167V191h35.7V198.3z"/>
	<path class="st0" d="M289.2,212.9c0,13.6-9.3,22.5-23.4,22.5s-23.4-8.9-23.4-22.5s9.3-22.5,23.4-22.5
		C279.9,190.4,289.2,199.4,289.2,212.9z M280.6,212.9c0-8.9-6-15-14.8-15s-14.8,6.1-14.8,15s6,15,14.8,15S280.6,221.8,280.6,212.9z"
		/>
	<path class="st0" d="M382.4,191v43.8H374v-31.1l-12.1,23.9l-2.1,4.1h-4.1l-2.1-4.1l-12.3-24.3v31.5H333V191h10.4l14.4,28.5
		l14.4-28.5L382.4,191L382.4,191z"/>
	<path class="st0" d="M459,225.7h-22l-3.7,9.1h-8.8l18.7-43.8h9.7l18.7,43.8h-8.8L459,225.7L459,225.7z M456,218.3l-8-19.7l-8,19.7
		H456L456,218.3z"/>
	<path class="st0" d="M539,198.3h-13.7v36.5H517v-36.5h-13.7V191H539V198.3z"/>
	<path class="st0" d="M590.3,198.3V209h21.6v7.4h-21.6v11.1h23.8v7.4h-32.2V191h32.2v7.4L590.3,198.3L590.3,198.3z"/>
	<path class="st0" d="M699.9,212.9c0,13.3-8.7,21.9-21.9,21.9h-19V191h19C691.2,191,699.9,199.6,699.9,212.9z M691.5,212.9
		c0-8.6-5.9-14.6-14.5-14.6h-9.6v29.1l9.6,0C685.5,227.5,691.5,221.5,691.5,212.9L691.5,212.9z"/>
	<path class="st0" d="M842.5,191l-16.1,29.5v14.4H818v-14.4L801.9,191h8.6l11.7,20.5l11.7-20.5H842.5z"/>
	<path class="st0" d="M884.9,234.8V191h8.4v43.8H884.9z"/>
	<path class="st0" d="M947.3,198.3V209h21.6v7.4h-21.6v11.1h23.8v7.4h-32.2V191h32.2v7.4L947.3,198.3L947.3,198.3z"/>
	<path class="st0" d="M1043.8,227.5v7.4H1016V191h8.4v36.5L1043.8,227.5L1043.8,227.5z"/>
	<path class="st0" d="M1127.7,212.9c0,13.3-8.7,21.9-21.9,21.9h-19V191h19C1119,191,1127.7,199.6,1127.7,212.9z M1119.3,212.9
		c0-8.6-5.9-14.6-14.6-14.6h-9.6v29.1l9.6,0C1113.3,227.5,1119.3,221.5,1119.3,212.9L1119.3,212.9z"/>
	<path class="st0" d="M1272.1,191v43.8h-8.4l-21.9-31.1v31.1h-8.4V191h8.4l21.9,31.1V191H1272.1z"/>
	<path class="st0" d="M1326.1,198.3V209h21.6v7.4h-21.6v11.1h23.8v7.4h-32.2V191h32.2v7.4L1326.1,198.3L1326.1,198.3z"/>
	<path class="st0" d="M1427.1,198.3h-13.7v36.5h-8.4v-36.5h-13.7V191h35.7L1427.1,198.3L1427.1,198.3z"/>
	<path class="st0" d="M1534.3,191l-14.6,43.8h-8.7l-10.2-32.9l-10.2,32.9h-8.7l-14.6-43.8h9l10.2,34.8l10.3-34.9h7.9l10.3,34.9
		l10.2-34.8L1534.3,191L1534.3,191z"/>
	<path class="st0" d="M1618.9,212.9c0,13.6-9.3,22.5-23.4,22.5s-23.4-8.9-23.4-22.5s9.3-22.5,23.4-22.5S1618.9,199.4,1618.9,212.9z
		 M1610.4,212.9c0-8.9-6-15-14.8-15s-14.8,6.1-14.8,15s6,15,14.8,15S1610.4,221.8,1610.4,212.9z"/>
	<path class="st0" d="M1682.7,221.9h-11.5v12.9h-8.4V191h6.5h14.1c9.7,0,15.4,5.8,15.4,15.4c0,6.7-2.8,11.6-7.7,13.9l9.1,14.5h-9.8
		L1682.7,221.9z M1671.2,214.5h11.1c5.1,0,8.1-3.1,8.1-8.1s-3.1-8.1-8.1-8.1h-11.1V214.5L1671.2,214.5z"/>
	<path class="st0" d="M1769,234.8l-17-19.9v19.9h-8.4V191h8.4v20.4l17.1-20.3h9.6l-17.9,21.3l19.2,22.5L1769,234.8L1769,234.8z"/>
</g>
</svg>
