<?xml version="1.0" encoding="UTF-8"?><svg preserveAspectRatio="none" id="Layer_2" xmlns="http://www.w3.org/2000/svg" viewBox="0 0 755.56 1479.58"><defs><style>.cls-1{fill:#171e2d;}</style></defs><g id="Layer_2-2"><g id="Layer_2-2"><path class="cls-1" d="m751.75,953c.97-2.41,1.27-6.13.63-9.42-.62,4.84-.86,9.42-1.98,13.36.45.56.63-.79,1.05-.29-.55,1.12.4,2.65-.41,3.94-.29.47-.44,1.29-.88.91-.17-.14-.39.03-.4.57,0,.26.12.74.18.74.85-.14.74,2.15,1.34,2.71.33.3.16,1.36.01,2.04-.21.94-.28,1.88-.3,2.9-.03.96.04,2.3-.4,2.71-.31.3-.88-.05-1.14-.31-.46-.47-.5-2.11-.2-3.27.48-1.89.07-2.58-.59-3.07-.24-.18-.48-.33-.72.15-.29.6-.08,1,.07,1.45.16.52.11,1.15-.01,1.67-1.14,5.01-1.45,10.35-1.79,15.75-.13,2.05.04,5.11-1.42,6-.23.15-.36.92-.31,1.51.08.99.34.46.57.21.34-.38.6-.06.62.71.03.91-.28,1.05-.6.92-.47-.18-.65.37-.73,1.38-.03.37-.08.75-.12,1.12-.04-.23-.26-.16-.39-.12.05.02.35.12.39.13-.13,1.18-.3,2.35-.32,3.52-.04,2.68-.53,5.36-.26,8.03.12,1.25-.39,2.15-.4,3.48,0,.57-.09,1.14-.12,1.68-.06-.04-.12-.02-.21.14.07.01.14.03.2.05,0,.48.06.94.31,1.34.04.07.08.4.06.44-1.11,1.92.09,4.2-.39,6.46-.38,1.76-.46,4.08-.11,6.26.31,1.94.21,4.21-.39,6.14-.44,1.45,0,2.25.31,3.12-.19.57-.38.08-.51.22-.45.51-.96-1.53-1.17-.16-.17,1.06-.13,2.37.15,3.49-.09.13-.08.24.01.33.03-.02.05-.04.08-.05.06.23.12.47.21.68.34-.7.1-1.07.04-1.48-.07-.53-.27-1.09.02-1.56.11-.2.34-.14.5-.04.25.16.47.58.37,1.25-.14,1.04-.13,1.95.14,2.8.05.16.03.67.01.68-.48.27-.59.85-.58,1.46-.05.04-.1.08-.12.17-.26,1-.61.39-.84.09-.2-.24-.36-.47-.62-.51-.02-2.43-.09-4.85.09-7.27.09-1.13-.1-2.11-.12-3.17-.02-1.37-.25-2.99.82-2.84.17.03.35-3.11.22-3.72-.19-.92-.39-1.84-.58-2.72.28-.74.85.33.91-1.09.03-.64-.2-.86-.43-.78-.45.14-.94-1.25-1.34.42-.26,1.03-.16,2.11-.22,3.17-.34,6.18-.6,12.35-.65,18.52-.17-.03-.33-.02-.52.04l-.43,2.37c.11,1.26-.04,2.54-.06,3.8-.01.41-.03.82-.05,1.23-.01-.03-.02-.07-.03-.09-.34-.98-.43-1.97-.16-3.19.12-.56.42-1.11.18-1.79-.05-.14-.2-.2-.29-.13-.38.31-.41,1.1-.49,1.89.02.39.04.78.05,1.18-.1-.05-.2-.05-.32-.02,0-.84-.01-1.7-.01-2.61-.56,1.2-.56,2.2.03,4.25-.01-.43-.01-.86-.01-1.29.08.13.19.18.34.14.03.73.06,1.47.09,2.21.03.53.19.94.45.75.03-.03.04-.07.07-.11-.12,1.47-.26,2.93-.13,4.36.24,2.74-.09,5.45-.16,8.17-.08-.16-.2-.22-.33-.18-.29.11-.59.52-.63,1.23-.04.69.28.9.52.93.18.03.32-.13.43-.4h.01c.02.61.04,1.21.11,1.81.1.94-.26,1.83-.43,2.73-.04.22-.14.29-.26.32.1-.2-.2-.62-.43-.82.02-.18.05-.36.09-.53.11-.39.16-.89-.08-1.1-.4-.36-.63-.8-.75-1.26.61-.23.7-.9.51-1.77-.18.15-.45.41-.65.64,0-.33.02-.66.05-.98.05-.49,0-.97-.07-1.43.05-.07.09-.15.12-.24.05-.22-.06-.3-.22-.32-.15-.77-.34-1.53-.34-2.33-.01.49-.02.97-.03,1.46-.03.04-.06.11-.09.19.02.05.05.08.08.1v.63c-.1.04-.18.09-.21.14-.02-.08-.7-.81-1.1.11.21.34.82.6,1.3.53v1c-.27.2-.27.36-.01.46v.83s-.02.02-.04.03c.01,0,.03,0,.04.02,0,1.47.01,2.94.06,4.42-.09-.65-.21-1.29-.23-1.94-.02-.48-.12-.73-.54-.72-.39.02-.48.31-.47.69l.17,3.96v.08c-.16.21-.25.51-.32.87-.52.01-.37-.68-.32-.96.18-.94.15-1.82-.16-2.69l-.02.09c-.59,4.24.02,8.57-.7,12.8-.04.22-.13.5-.47.52-.59-.97-.07-2.06-.07-3.06,0-1.19.47-2.35-.01-3.6-.02-.04-.03-.08-.04-.12l-.64,3.38c-.09-.15-.17-.29-.24-.44-.28.36-.26.73.06,1.13.02-.02.04-.05.06-.07l-.14.71c.81,1.27.39,2.76.44,4.17-.55-.55-.26-1.23-.27-1.87-.02-.54.16-1.11-.34-1.34l-.97,5.25c-.72,4.02-1.34,8.05-1.93,12.08l.06.14c.1.31.26.55-.03.76-.05.04-.11.07-.17.08l-.31,2.16c.44.22.71.66.66,1.39-.07.86-.24,1.68-1.1,1.73-.34,2.48-.69,4.97-1.04,7.45l-.11.79h-.06c.11.27.18.56.22.87,0-.16.08-.36.11-.52.24.26.47.54.72.81-.35.52-.8.92-1.11.84-.06-.02-.11-.04-.15-.07l-.6,4.06c.11.02.22.05.34.07-.17.13-.31.27-.41.42l-.66,4.43c.25-.38.57-.71,1.16-.67-.04.15-.11.29-.19.42-.1.03-.21.06-.32.09.04,0,.11.08.19.15-.17.3-.27.57.05.94.19.21.26.56.04.8-.39.45-.71-.02-1.05-.18-.04,0-.07-.03-.11-.05-.26,1.73-.5,3.47-.75,5.2-.05.02-.1.08-.17.21.02.15.06.23.11.24-.44,3.08-.86,6.15-1.23,9.23-.17,1.63-.32,3.25-.45,4.88.23.07.34.41.37.7.06.48-.08.9-.51,1.06-.15,1.94-.28,3.89-.39,5.84.32.03.56.25.57.67.01.37-.2.62-.53.64h-.12l-.41,8.34c.68.39.8-.02.89-.79.36-3.43.75-6.84,1.16-10.26.2-1.7.79-1.97,1.99-1.05.48.37,1.11.47.84,1.51-.12.46.93.81,1.28.29.44-.65,1.24-.97,1.24-2.07,0-1.5,1.11-2.32,1.78-3.36.54-.82.79-1.06,1.05-1.8.02.04.02.08.04.11.02-.13.03-.25.05-.37.12-.35.24-.8.39-1.43.57-2.33,1.1-4.69,1.86-6.95.19-.57.06-1.08.02-1.62-.02-.22.15-.29.45-.36.31-.07.37-.42.27-.68-.6-1.56.48-2.69.79-4.01-.14.77-.28,1.54-.43,2.35.31.3.27-.62.59-.3.3.31.09.65-.03.93-.32.78-.42,1.67-.94,2.36-.24.33.16.76.09,1.31-.38,3.08-1.2,6.05-1.62,9.11-.03.23-.16.5.2.76.58-1.35.73-2.91,1.54-4.14-.08,2.25-.74,4.37-1.15,6.54-.19.97-.39,1.95-.6,2.92-.09-.2-.21-.39-.35-.57.06.61.08,1.2.1,1.79-.61,2.92-1.18,5.85-1.32,8.89-.04.65-.53,1.31.3,1.89.23.16.03,1.17.06,1.83.06-.37.19-.71.35-1.03-.03.8-.05,1.6-.02,2.4.11,3.35-.6,6.9.15,10.08-1.98,1.74-2.06,2-2,6.71.01.63.11,1.29.25,1.83.54,2.29.59,4.59-.21,6.83-.35.94-.1,1.73-.12,2.59-.02.52.24,1.19-.09,1.55-.31.33-.55-.22-.7-.76-.31-1.05-.56-2.17-.87-3.36-.56,1.54-.75,3.07-.51,4.82.48,3.4.36,7.13.76,10.55.31,2.72.27,5.57.52,8.29.08.96.1,1.59-.36,1.97-.5.43-.48-.58-.6-1.18-.07-.35-.1-.73-.2-1.4-.66,2.2-.34,3.89.1,5.35.36,1.18.5-.66.94-.76-.07.92-.06,1.76-.02,2.58-.04.01-.07.03-.11.05.04.12.07.2.12.25.09,1.47.31,2.82.58,4.13-.15.22-.14.36.07.41h.01c.23,1.03.47,2.05.68,3.1-.04.04-.07.11-.11.2.06.05.12.08.17.08.09.46.18.93.25,1.41.18,1.17.27,2.4.35,3.63,0,0-.01,0-.01.01,0,.08.01.14.02.18.13,2.17.21,4.36.6,6.37.03.19.02.65-.02.7-.06.08-.12.16-.18.24.45,1.25.9,2.55,1.32,3.86-.24.26-.32.55-.23.9.25-.14.35-.33.34-.56.18.53.35,1.05.52,1.58-.01.08-.02.15-.03.22-.01.02-.02.02-.03.04h.03c-.25,2.55-.51,5.11-.77,7.67l-.13,1.23c.33.55.64,1.15.97,1.75-.35.77-.81,1.37-1.12,1.23-.06-.02-.11-.06-.16-.1l-.66,6.15c.11.04.22.07.34.11-.18.2-.31.41-.42.63l-.74,6.71c.26-.58.58-1.06,1.17-.99-.19.97-.82,1.48-.3,2.42.19.33.25.86.03,1.22-.41.67-.71-.06-1.06-.3-.03-.02-.07-.05-.1-.08-.84,7.49-1.66,14.98-2.4,22.5-.22,2.46-.4,4.91-.58,7.37.22.13.32.64.34,1.08.05.73-.1,1.36-.54,1.59-.21,2.94-.4,5.89-.57,8.84.32.06.56.4.55,1.03,0,.57-.22.94-.55.96-.04,0-.08-.01-.12-.02-.23,4.21-.47,8.42-.71,12.63.68.62.81,0,.92-1.16.5-5.17,1-10.34,1.51-15.5.25-2.57.86-2.97,2.03-1.52.47.59,1.1.76.79,2.33-.14.69.9,1.26,1.27.48.46-.97,1.27-1.42,1.3-3.08.05-2.29,1.18-3.49,1.89-5.04.85-1.86.99-1.69,1.63-5.25.63-3.53,1.23-7.09,2.04-10.51.21-.86.1-1.63.07-2.46-.01-.33.16-.44.45-.53.31-.1.39-.63.29-1.02-.11-.48-.16-.92-.16-1.35,0-1.72.77-3.13,1.05-4.73-.17,1.16-.32,2.33-.49,3.56.3.47.29-.94.59-.44.3.49.08.99-.04,1.41-.34,1.18-.46,2.53-1,3.57-.25.49.13,1.16.05,1.99-.34,3.52-.93,6.92-1.42,10.37-.06,0-.11.07-.13.25.03.05.05.09.08.13-.14,1.01-.28,2.02-.39,3.05-.03.3-.14.65.06,1-.01.05-.01.09.03.14.02-.01.03-.02.04-.03.02.02.03.04.05.06,0-.03,0-.07.02-.1.12-.08.15-.16.11-.24.11-.13.17-.29.09-.47.36-1.44.59-2.98,1.03-4.36.1.11.21.13.33.08-.23,2.99-.84,5.84-1.27,8.74-.96,6.54-2.23,12.94-2.61,19.72-.06.99-.58,1.97.23,2.89.22.25-.01,1.79,0,2.79.26-2.01,1.37-3.26,1.53-5.27.19-2.44,1.02-4.44,1.28-6.8.05-.47.11-.94.16-1.41.06-.07.12-.16.16-.25.18-.21.46-.53.84-.95-.12,1.06-.26,2.12-.47,3.17-.01-.02-.02-.05-.04-.08-.04.33-.14.58-.3.77.07-.06.17-.13.25-.2-.04.18-.08.37-.13.56-.07-.1-.13-.19-.22-.26.08.18.08.43.13.58-.39,1.37-.88,2.65-.95,4.18-.09,2.11-.31,4.19-.54,6.26-.09-.04-.18.03-.25.26.05.17.12.26.19.28-.12.97-.22,1.94-.32,2.91-.05.47-.02.91.37,1.31.81-3.74,1.32-7.62,1.97-11.4.12-.23.22-.5.12-.7.25-1.42.52-2.82.85-4.19-.34,2.01-.34,4.13-.58,6.2,0,.02-.01.04-.02.07h0c-.08.66-.18,1.29-.32,1.92.36-.67.79-.84,1.44-1.06-.06.37-.12.73-.17,1.1-.09.22-.13.47-.12.75-1.34,8.64-3,17.03-3.57,25.85.76-.97.86-2.49,1.05-3.85.57-4.03,1.33-7.95,1.88-12,.24-1.78.48-3.59.72-5.39.03-.29.06-.76.3-.64.19.1.46.47.33.84-.08.23-.14.45-.17.68-.03-.03-.06-.06-.1-.08-.12.33-.1.57.03.74-.02.57.03,1.14.07,1.71-.03-.02-.05-.04-.08-.05-.21.3-.21.52.01.65.05-.05.06-.09.09-.13.01.28.01.56-.01.83-.06.75.16,1.48-.49,2.02-.41.34-.31,1.73-.31,2.76.52.03.23-1.33.72-1.2.76,4.11-.81,7.71-1.01,11.71.57-.69.43-1.91.82-2.62.15-.28.31-.66.55-.43.18.18.11.56.08.89-.05.56-.26,1.26.06,1.63.3.36.78.75,1.06.55.54-.4.03-1.07-.05-1.6-.14-.9-.27-1.77.19-2.54.4-.7.35-1.68.53-2.71.56,1.65.12,3.31.14,4.87.01,1.19-.3,2.4-.45,3.6-.13,1.04-.06,2.59-1.23.81.87,1.32.73,2.65.6,3.9-.66,6.55-1.4,13.08-2.1,19.62-.08.76-.13,1.54-.1,2.34,1.21-9.12,2.42-18.22,3.64-27.34.05.01.17,0,.18.02.07,1.84.58,3.26,1.1,4.81.51,1.52.23,1.91-.83,1.85.83,1.98-.26,3.82-.15,5.94.11,2.03-.31,4.53-.58,6.82.82-2.14,1-4.67,1.35-7.05.63-4.21,1.1-8.5,1.58-12.78.2-1.88,1.14-3.4.84-5.51,0-.1.14-.38.21-.39,1.27-.21.77-1.94.84-3.14.03-.69-.08-1.41-.09-2.12-.01-.3.07-.9.11-.89,1.06.03,1.11-2.06,1.79-2.83.17-.18.27-.44.44-.1.25.53.83.28.84,1.46.01,1.69.16,3.37.27,5.05.02.35.03.7.07,1.03-.47,3.46-.92,6.93-1.37,10.4.02.08.03.15.05.23.09.5.22.9-.07,1.22-.06.06-.12.1-.18.12l-.43,3.46c.42.4.67,1.12.57,2.3-.12,1.38-.34,2.7-1.21,2.71-.32,2.53-.64,5.06-.96,7.59l-.06.15h.04c-.06.47-.12.94-.18,1.41-.1-.09-.23.06-.4.51.1.19.21.22.33.12-.1.72-.19,1.45-.28,2.17l-.17,1.31c.31.61.59,1.27.91,1.92-.26.54-.56.99-.82,1.17-.09-.14-.23-.12-.41.03-.03-.03-.06-.05-.08-.07l-.88,6.5c.06.03.12.05.18.07-.04.03-.08.05-.11.07.02.01.03.01.04.01-.68.72-2.61-1.8-3.08-.03-.06.23,2,.93,2.09.94.27.03.35.56.67.49l-.14,1.05c-.65.12-1.69,1.28-1.59,1.71.17.75.9.07,1.44-.6l-.57,4.17c.28-.6.62-1.1,1.2-.98-.21,1.03-.87,1.53-.38,2.56.18.36.22.93-.01,1.3-.43.69-.71-.11-1.05-.39-.03-.02-.06-.05-.09-.09-.61,4.35-1.2,8.69-1.77,13.04-.06.13-.08.24-.05.33-.46,3.48-.91,6.95-1.35,10.44-.3,2.6-.57,5.21-.84,7.82.22.14.31.69.31,1.17.02.78-.15,1.43-.6,1.65-.31,3.12-.6,6.25-.87,9.38.31.08.54.46.51,1.13-.02.6-.25.99-.58.98-.04,0-.08-.01-.12-.02-.38,4.47-.76,8.93-1.14,13.4.64.7.8.05.95-1.18.68-5.47,1.37-10.94,2.05-16.41.34-2.72.96-3.1,2.07-1.49.46.65,1.08.87.71,2.52-.16.72.86,1.4,1.26.59.49-1,1.32-1.44,1.41-3.21.13-2.42,1.29-3.63,2.06-5.24.91-1.93,1.05-1.74,1.81-5.49.75-3.72,1.47-7.47,2.4-11.06.15-.59.17-1.14.16-1.7.07.01.17-.08.3-.31-.24-.28-.17-.63-.15-1,.08-.06.18-.11.31-.14.32-.09.41-.65.33-1.07-.49-2.58.67-4.31,1.09-6.42-.21,1.23-.4,2.46-.61,3.76.29.52.32-.98.61-.43.27.54.04,1.06-.1,1.5-.38,1.23-.54,2.66-1.12,3.74-.26.5.1,1.24,0,2.11-.62,4.96-1.67,9.67-2.34,14.58-.05.37-.2.79.14,1.25.7-2.12.96-4.63,1.87-6.55-.26,3.63-1.09,7-1.68,10.46-1.19,6.9-2.68,13.64-3.3,20.83-.08,1.05-.64,2.06.14,3.09.21.28-.08,1.9-.11,2.96.33-2.11,1.49-3.38,1.72-5.5.27-2.6,1.17-4.67,1.52-7.17.37-2.68.78-5.33,1.43-7.85.08-.32.13-.73.35-.61.19.11.2.52.14.88-.45,2.83-.67,5.72-1.31,8.53-.43,1.89-1.25,3.49-1.39,5.51-.26,3.5-.83,6.87-1.26,10.29-.02.12-.03.24-.03.36H0V0h742.88c.22,2.51.45,5.01.67,7.52.38,4.4.75,8.8,1.13,13.21.33,4.42.63,8.86.9,13.32.13,2.34.54,4.8.82,7.17.83,6.65,1.22,13.68,1.58,20.71.12,2.24.22,4.49.59,4.23.29-.21.32-2.02.1-4.44-.34-3.69-.31-6.97-.55-11.57,1.04,10.28,1.77,19.99,2.51,29.62.21,2.94.42,6,.25,8.37-.03.37-.21.22-.3-.22-.43-2.43-.54-5.18-.51-8.12.03-1.68-.11-3.45-.39-5.37-1.07,4.24.27,13.98.31,21.37-.47-12.26-2.26-14.6-3.18-26.21-.05,8.33-.54,11.4-1.75,8.78-.25-.52-.52-1.09-.79-1.41.09,10.92.18,21.75.28,32.72.08,17,.25,34.3.41,51.81-.23-.1-.55.18-.48.53.17-.12.32-.25.48-.37.02,1.49.03,2.99.04,4.48-.1.25-.18.52-.21.8.09.02.15,0,.22,0,.03,3.44.06,6.88.09,10.34.14.56.28,1.36.4,2.34-.07,1.62-.2,2.18-.35,2.32.04,5.95.15,11.91.17,17.89.04.02.09.05.14.11.06.08.14.28.2.54-.05.34-.05.68.15.83.02.21.04.42.05.64-.01.1,0,.2.01.31,0,.32-.03.63-.09.88-.34,1.41-.42,3.07-.38,4.69-.2.02-.39.05-.58.12-.02-.92.4-.92.35-1.83-.51.36-.64,1.36-1.3,1.19.37-.03-.44-3.03-.51-1.6-.08,0-.15,0-.23-.02.07.25.14.28.23.09.22.93-.11.96-.62,1.47.14.21.99.72,1,.91.01.31-.22.65-.17.99.06.36-.9,1.04.22,1.53.43-.49.47-.24,1.19-.25-.1-.07-.97-.79-.75-1.16.17-.29.78-.27,1.22-.24.14,2.5.52,4.68.61,5.28.23,1.4.37,2.87.47,4.37-.07.16-.09.4-.03.71.03,0,.05-.03.08-.05.12,2.21.17,4.49.2,6.8-.06.17-.11.3-.12.35-.23.74-.4,2.2-.31,3,.11-.08.29-.29.47-.51.01.4.01.81.02,1.22.03,1.09.05,2.2.07,3.31-.03-.02-.05-.04-.09-.05.06.18.02.31.1.51.02.86.04,1.73.06,2.59-.1-.04-.26-.07-.43-.1-.13-2.21-.37-3.78-.76-4.61.18-.23.26-.54.23-.92-.36-.6-.42.09-.36.63v1.77c-.02-.07-.07-.14-.15-.2-.25.29-.22.53.1.7.03-.05.05-.09.07-.14v.96c-.18.19-.61.72-.66.76-.12-.48.05-1.23-.34-1.4-.06,1.38,0,3.2,1.03,3.3l.02,2.11c.12,1.12.24,2.33.4,2.62.1.18.21.48.34.85-.05-.07-.1-.13-.18-.22.01.16-.06.62-.03.66-.83.88.3,3.26.28,4.53.09,0,.5-1.14.76-1.91.2,3.62.49,7.17.99,10.49-.75-1.97-1.45,2.56-1.6.39-.24-3.65-.53-4.62-.83-4.86.02,2.83.03,5.68.05,8.52-.25.21-.55.4-.59.86.03.02.3-.01.59-.02.01.63.01,1.26.01,1.88-.32.43-.3,1.04,0,1.17,0,1.13.01,2.26.02,3.4-.25-.16-.74-.64-.54-.54-.23-.12.07-1.12-.3-1.23-.76-.24-.36,1.49-.29,1.76-.38.19-.66.53-.84,1.02.27-.12.54-.25.81-.41-.01.01-.02.02-.03.03.07.15.52,1.27.72,1.28.01,0,.25-.32.48-.62.01,1.81.02,3.62.03,5.44.2-1.67.31-3.75.38-5.98.02-.02.02-.04.02-.04.34-1.01.23-.58,0-.53.01-.73.03-1.48.04-2.23l.15.21s.03.04.01-.02c.07-.16.21-.13.41.1-.01-.56-.23-1.1-.55-1.06.01-.24.01-.48.02-.72.49-.38.28-1.16.16-1.79-.02.05-.06.11-.1.17.01-.21.03-.4.04-.58.03-.27.06-.49.09-.68.1.02.17.06.18.11-.05.23-.13.43-.24.6.3.32.57.16.84-.14,0,.26.03.55.04.84-.25.45-.13.86.05,1.18.01.25.02.48.04.71.24,4.03.33,8.08.37,12.15v3.74c-.23.67-.59,3.18-.19,3.8-.03-.02-.42-.18-.57-.19.11.55.27,1.01.51,1.47.1-.14.17-.23.22-.3-.01,1.07-.02,2.14-.03,3.21-.09.01-.12-.06-.49-.29-.25.98-.26.96.35,1.58.05-.04.09-.08.13-.12-.02,3.27-.04,6.54,0,9.82-.19-.09-.37-.13-.55-.08.24.07.31.18.55.12v1.22c.14,7.42-.21,16.39-.27,24.73-.01,1.1-.03,2.01-.08,2.72-.17.04-.17.08,0,.12-.07.89-.16,1.44-.31,1.56-.38.33-.76.58-1.14.82v5.86c.08.21.16.57.24,1.13,1.17,8.83,1.19,11.04.29,23.31-.05.76-.27,3.51-.1,5.04.12,1.04.6-.14.55,1.7-.12-.42-.27-.8-.49-1.07-.57.13-.06,1.69-.62,1.63-.01-.29-.03-.61-.04-.95v.95s-.03,0-.05-.01c-.53-.2-.87-.96-.87-2.03,0-1.22-.49-1.78-.94-1.85s-.83.68-.94,1.66-.2,1.94-.18,2.97c.03,1.27.23,2.59-.21,3.82-.09-1.8-.15-3.93-.26-6.26-.07,4.54-.2,8.62-.35,12.46-.02-.06-.02-.1-.05-.16-.33-.94.09-1.97-.25-2.59-.38-.71-.21-1.33-.1-1.97.14-.79.3-1.54-.08-2.23-.38-.67-.73-.04-1.09.07-.16.92.38,1.08.6,1.66-.39.34-.99-.38-1.1.84-.09,1.1.39,1.05.76,1.27.29.18.29.77.29,1.21,0,1.04-.29.19-.46.24-.42.13-.26.79-.29,1.28-.08,1.55.48,2.96.27,4.55-.19,1.41-.46,2.81-.2,4.36-.47-.66-.77-1.42-.68-2.44.12-1.46-.49-2.63-.41-4.08.03-.56-.33-.61-.57-.7-.36-.13-.37.34-.46.81-.25,1.25-.38,2.51-.44,3.83-.02.47.18,1.21-.27,1.28-.31.05-.5-.41-.61-.97-.09-.42-.21-.81-.31-1.18.24-.58.49.31.76-.23-.26-.76-.95-.88-.98-2.04-.02-.97-.65-1.64-.34-2.84-.48-.01-.51.72-.71,1.17-.14-.52-.25-1.01-.41-1.44-.07-.19-.24-.38-.34-.36-.24.04-.25.43-.23.77.08.82.34,1.66-.43,1.96-.38.15.03.74.08,1.12.09.8.55,1.84-.03,2.32-.7.58-.76-.74-.9-1.6,0-.1-.11-.14-.22-.27-.3,1.1-.28,2.01.28,2.78.23.3.33.72.18,1.22-.1.33-.23.37-.44.24-1.13-.73-1.45-.28-1.5,2-.01.18-.05.36-.07.51-.47.16-.58-.78-.97-.97-.18.52.52,1.63-.28,1.72-.16.02-.31.28-.21.53.72,1.78-.29,3.97.4,5.77.16.4-.02.89-.12,1.33-.1.46-.28,1.16.11,1.29.34.11.39-.65.45-1.17.01-.06,0-.13.01-.2.1-.82-.17-1.75.22-2.46.03-.05.26.11.26.18.02,1.29.64,2.48.23,3.84-.1.31-.37.42-.37.9,1.04.1.66,2.05.54,2.35-.95,2.24-.11,4.59-.24,6.85-.12,2.11-.19,4.24-.31,6.35-.01.31-.11.63-.37.72-.25-.79-.02-1.55.02-2.3.03-.74-.05-1.48-.48-1.56-.54-.1-.46.72-.45,1.42.02.66-.02,1.33-.06,1.99-.11,1.81.17,2.39,1.14,2.18.29-.06.42.07.48.5.09.53-.04.98-.31,1.12-.19.1-.42-.1-.63-.06-.26.05-.56.23-.54.8.03.68.35.5.6.43.17-.06.36-.21.51-.13.3.13.36.63.33,1.12-.02.57-.23.53-.47.48-.33-.08-.69-.48-1.09.24.89.78.42,3.17,1.42,3.85.05.04.07.54.02.72-.96,3.13.2,5.28,1,7.59.15.44.32.88.48,1.31-.98-.15-.29,1.44-.57,1.89-.69,1.12-.19,2.97-.72,4.31.57-.82.79.3,1.03,1.03.53,1.65.5,3.18.08,5.09-.35,1.64-.22,3.78-.07,5.63.18,2.25.12,4.46.08,6.69-.01.38.02.6.16.86.6,1.15.59,1.16.57,3.2-.28-.42-.52-.77-.76-1.12-.39.46-.13,1-.08,1.46.08.88.15,1.52-.39,2.19-.61.77-.24,2.22-.27,3.38,0,.08.17.27.24.25.21-.07.26-.42.29-.76.08-.69.06-1.78.65-1.27.5.43.16,1.22-.02,1.87-.27.93-.91,1.79,0,2.9.28.35-.04,1.34-.39,1.84-.19.26-.5.67-.23,1.09.29.46.57-.1.66-.58.22-1.08.72-1.99.53-3.36.48.98.52,2.04.17,2.94-.5,1.26-.41,2.14.51,2.89-1.2.77-1.14,1.72-.39,2.92.19.29.48.79.3,1.38-.18.6-.49.37-.77.19-.46-.32-.96-.61-1.15.58-.24,1.47.5,1.05.85,1.43.25.28.54.18.69.24.3.86-.9,2.45.5,2.35.02,0,.1.49.07.71-.08.49-.31.43-.53.43-.41-.02-1.01-.3-.95.86.02.31.14,2.45,1.08,1.55.1-.1.36-.07.4.06.49,1.59,1.49,1.35,2.23,2.08-.61.21-1.19.34-1.75.62-.43.21-.53.97-.38,1.63.17.72.4-.3.64-.07-.07,1.17-.28,2.04-1.04,2.03-.32,0-.51.42-.58,1.01-.14,1.21-.09,2.52-.67,3.44-.12.18-.07.53.06.71.07.09.24.14.28.06.62-1.43,1.09.13,1.3.57.39.79.57,1.55,1.16.56.1-.17.28-.1.37.18.11.36.01.65-.14.87-.23.34-.31,1.21-.74.87-.26-.2-.47-.63-.73-.83-.43-.33-.7.19-.83.86-.15.8.02,1.08.49.92.44-.15.59,1.17,1.13.88.27-.14.53.15.48.76-.07.7-.4.73-.69.54-.19-.13-.33-.49-.5-.73-.12-.18-.26-.2-.39-.01-.13.2-.17.58-.06.71.51.58.68,2.48,1.62,1.46.31-.34.62-.15.91.27-.09.93-1.53.99-.34,2.87.76,1.2.74,2.04.83-.39.02-.56.55-1.13.9-1.54.17-.2.27.28.32.62.11.88,0,1.55-.46,2.01-.32.3-.57.84-.88,1.13-.79.71-1.11,2.19-.81,3.96.26-.05.19-.45.24-.75.07-.47.21-.9.47-1.02.23-.1.27.35.34.64.14.59.01,1.06-.21,1.44-.14.21-.31.36-.48.47-.91.63-1.74,1.14-.8,3.45.45,1.09-.3,1.3-1.03,1.46.76.72.68,1.71.75,2.58.35.21.58-.69.92-.21.16.21.46.11.46.67.01.39-.17.52-.32.72-.74,1.01-1.45,1.88-1.77,3.83-.23,1.46,1.08,1.92.35,3.08-.5.82-.85,1.46-.34,2.7.14.33-.02.88-.18,1.28-.74,1.78-.7,4.09-1.21,6.03.78-.48.68-1.97,1.06-3.15.3,1.09-.25,1.93,0,2.87.33-.44.53-1.04.64-1.77.07-.43.24-.69.49-.53.32.2.29.7.21,1.16-.06.31-.18.58-.25.89-.12.57-.65,1.07-.29,1.72.45.86.53-.31.75-.7.13-.21.28-.19.37.07.17.46.31,1.17.15,1.51-.81,1.72-1.03,3.66-1.07,5.92-.01.96-.41,2.04-.4,3.21,0,.58-.22,1.27.18,1.6.49.4.59-.47.78-.98.1-.26.21-.5.36-.83.51,2.04-.2,3.25-.78,4.42-.48.97-.67-.6-1.05-.66-.61,2.3-.61,2.31.79,2.78.7.23,1.47.16,1.6,2.07.04.61.44,1.02.88,1.42-.09-1.32.51-2.62-.34-3.72-.19-.24.09-.88.27-1.17.43-.67.65-1.42.43-2.47-.08-.42-.06-.82.23-.92.29-.09.49.07.53.69.06.93.14,1.89-.04,2.77-.45,2.18.23,4.43-.16,6.62-.03.18.16.64.3.76.67.57.43,1.32.26,2.3-.29,1.7-.44,3.48-.65,5.24-.28.14-.47-.21-.69-.43-.18-.18-.35-.65-.56-.4-.32.37-.03.82.02,1.24.04.32.11.76.03.96-.56,1.49-.39,1.98.58,2.49.62.32.75.16.92-.7.07-.32.14-.68.37-.5.2.15.22.48.19.84-.09,1.03-.04,2.1-.39,3.04-.15.41-.19.93-.52.49-.7-.92-.82.34-1.17.91.24.51.82.06.74.98-.07.82-.46.33-.72.39-.25.07-.67.24-.54.64.54,1.7-.23,3.2-.1,4.8.04.52,0,1.17.39,1.25.39.09.37-.59.51-1.05.42-1.49.89-2.93,1.44-4.67.39,1.86.37,3.29-.25,4.55-.36.76-.63,1.24.24,1.26.09.01.17.07.26.16-.09,2.76-.17,5.53-.25,8.29v.03c-.02.47-.03.93-.05,1.4-.02.07-.03.16-.05.26-.03.25-.01.42.03.56-.05,1.56-.09,3.11-.14,4.66-.01-.01-.01-.02-.02-.03-.16-.17-.35-.27-.51-.04-.15.22-.24.63-.13.9.63,1.55-.08,2.45-.49,3.43-.21.52-.67.83-.64,1.53.08,1.4.05,2.78,0,4.17,0,.13.13.36.21.39.16.07.26-.18.29-.45.09-.9.55-1.59.39-2.65-.13-.87.24-1.15.6-1.38.04-.03.08-.03.12-.04-.35,11.64-.7,23.27-1.04,34.91-.21,7.95-.02,18.55-1.43,23.85-.13.47-.16,3.96-.2,6.05-.17,8.13-.35,16.19-.61,24.18-.25,8-.54,15.94-1.02,23.78-.32,5.26-.46,10.73-.48,16.23.02,5.51.16,11.04.36,16.44.27,7.02.47,14.36.13,22.27-.4-1.01-.44-3.14-.51-5.13-.06-1.7-.18-2.36-.39-1.89-.23.52-.45,3.58-.55,6.93-.09,3.35-.08,6.97.07,8.59,1,10.31,2.39,17.85,2.7,32.66.08,3.83.56,3.43.79,3.28.82-.53,1.06-.81,1.19,2.1-.06.04-.11.11-.18.27.07.08.13.15.2.22.04,1.16.07,2.75.11,4.9.05,2.7.05,5.42.3,8.4.16-.92.29-1.95.38-3.07.06-.03.09-.09.09-.16,0-.05-.02-.12-.05-.2.1-1.13.17-2.33.23-3.58.02-.05.04-.09.06-.15-.02-.03-.04-.05-.05-.08.03-.74.06-1.5.09-2.28.12,2.98.41,6.07.66,9.19-.15-2.74.07-4.04.29-5.31.02.01.03.03.05.05.21-.05.22-.17.02-.36h-.02c.29-1.69.53-3.5-.13-8.65-.24-1.85-.51-3-.7-2.28.02-.65.03-1.3.05-1.94.04-.03.09-.07.13-.13-.04-.11-.07-.17-.12-.21.07-2.19.15-4.26.3-6.09.08,5.48.69,8.09,1.25,10.95.05.25.1.48.14.72-.21.11-.32.39-.31.86,0,0,.33.38.36.38.05-.01.09-.15.14-.32.34,1.82.56,3.72.2,7.39-.22-.05-.39.67-.34,2.81-.28,1.88-.65,3.92-.9,9.08.49-2.17.75-3.44,1.03-4.54.04-.18.09-.35.13-.52.27,2.19.64,2.11.94,2.14.05.01.09,0,.13-.05.03.62.06,1.31.09,2.14.11,3.84.32,2.7.7,1.7.15-.4.33-.93.5-1.29.16,2.82.33,5.63.51,8.36.34,5.2.75,7.5,1.22,9.23-.2-.02-.23.07-.11.25.09,0,.15,0,.17-.03.42,1.5.88,2.62,1.38,5-.5-5.84-.9-5.57-1.21-6.82-.02-.08-.04-.17-.06-.26.09-.03.17-.06.26-.09-.1-.07-.22-.14-.33-.2-.32-1.46-.56-3.44-.68-6.17-.07-1.64-.07-2.9-.01-3.78.1,2.05.37,3.14.63,1.82.24-1.21.48-.76.69,1.11.07.56.12,1.01.18,1.41-.07.04-.14.11-.21.21.05.41.15.57.28.51.08.8.15,1.61.22,2.42-.01-.04-.02-.09-.04-.14-.03.37-.2.43-.07.86.09-.09.13-.19.15-.31.01.1.02.19.03.29.08,1.01.17,2.02.26,3.03l.31,3.01c1.54,16.27,3.44,32.49,5.66,48.41-.44.59-.81,1.47-.95,2.52v.03c-.05-.21-.11-.44-.16-.75.03.41.06.83.1,1.24-.19,1.52-.3,3.13-.51,5.14.01-.03-.06.52.15.84.26.41.44-.14.67-.41.07-.09.12-.2.17-.29.2,1.58.45,2.92.78,3.75.43,1.06.45-1.26.16-3.95-.08-.91-.16-1.61-.24-2.17.02-.19.05-.37.06-.57.04-.38.21-.89-.07-.94-.15-.03-.25-.1-.34-.18-.06-.18-.12-.31-.17-.42-.05-.4.07-.93.23-1.43.11-.34.24-.56.37-.69.71,5.03,1.45,10.02,2.23,14.97-.34.94-.18,2.66-.87,2.9-.55.19-.48-1.13-.67-1.94-.3,2.18-.32,2.4.16,2.59.47.19.78.5.82,1.76.68-1.79.86-2.48.77-3.96.12.72.23,1.44.35,2.16-.02.26-.04.52-.07.77-.36,2.62-1.01,4.99-1.1,7.79-.66-.34-.29-1.38-.57-2.28-.06.29-.12.5-.14.73-.23,2.42-.76,4.7-.74,7.24.01,1.26-.19,2.47-.51,3.55-.18.6-.4,1.18-.69.46-.22-.56-.32-1.21-.02-1.98h.03Z"/></g></g></svg>