<?xml version="1.0" encoding="utf-8"?>
<!-- Generator: Adobe Illustrator 27.7.0, SVG Export Plug-In . SVG Version: 6.00 Build 0)  -->
<svg version="1.1" id="Layer_1" preserveAspectRatio="none" xmlns="http://www.w3.org/2000/svg" xmlns:xlink="http://www.w3.org/1999/xlink" x="0px" y="0px"
	 viewBox="0 0 849.2 389.2" style="enable-background:new 0 0 849.2 389.2;" xml:space="preserve">
<path d="M849.2,25v323.2c-2.7-0.1-5.5-0.1-8.2,0c-2,0-4.1-0.3-6.1,0.5c-0.3,0-0.6,0.1-0.9,0.1c-2.7,0-5.4,0-8.2,0
	c-1.3,0-2.6,0.3-3.8,0.2c-3.6-0.1-7,1.1-10.6,0.7c-4.1-0.4-8.2,0.7-12.3,1.3c-3.8,0.5-7.6,0.6-11.3,1c-3.1,0.4-6.1,0.7-9.2,1.3
	c-2.7,0.5-5.2,1.4-8,1.2c-0.4,0-0.8,0.1-1.1,0.4c-2.2,0-4.3,0.4-6.4,0.4c-5.8,0.1-11.6,0.6-17.3,2.1c-3.5,0.9-7.2,1.4-10.6,3
	c-5.3,2.4-10.8,4.4-15.8,7.4c-0.3,0.2-0.7,0.4-1.1,0.5c-2.9,0.8-5.4,2.4-7.8,4.1c-1.6,1.2-3.2,2.5-5.1,3
	c-10.3,3.1-20.8,4.8-31.6,2.7c-0.8-0.2-1.6-0.2-2.4-0.2c-4.3-0.1-8.6-0.2-12.9-0.9c-1.9-0.3-3.8-0.1-5.7,0.2
	c-1.7,0.3-3.4,0.8-4.6,2.2c-0.7,0.4-1.2,1-2,1.2c-3.5,0.7-6.9,1.9-10.5,2.2c-3.1,0.2-6.1,1.1-9.1,1.9c-0.9-0.2-1.6,0.4-2.4,0.4
	c-1.6-0.3-3.3-0.7-4.9-0.9c-5.7-0.7-11.3-1.5-16.7-3.5c-0.8-0.3-1.7-0.4-2.6-0.4c-2.5-0.1-4.9-0.2-7.3-0.4
	c-4.7-0.3-9.4-0.1-14.1-0.1c-2.6-0.4-5.2,0-7.8-0.2c-2.8-0.2-5.4-1.5-8.3-1.5c-0.2,0-0.4-0.2-0.6-0.4c-2.5-1.4-5.3-1.2-7.8-0.7
	c-2.3,0.5-4.5,0.4-6.8,0.4c-1.6,0-3.3-0.4-4.9,0.4c-2.7,1.3-5.7,2-8.7,1.6c-1.1-0.1-2-0.1-3,0.3c-0.6,0-1.1,0-1.7,0
	c-3.4,0-6.8,0.6-10.2,0.2c-1.5-0.2-3.4-0.1-4.7,0.6c-2.1,1.1-4.1,0.7-6.2,0.5c-2.2-0.3-4.4-0.7-6.5,0.6c-0.8,0.5-1.7,0.4-2.6,0.3
	c-0.6-0.1-1.3-0.2-1.9,0c-1.6,0.5-3,0-4.4-0.6c-0.9-0.4-1.8-0.5-2.8-0.5c-4.9,0.5-9.9,0.2-14.8,0.3c-3.5,0.1-7-0.5-10.5,0
	c-0.6,0-1.3-0.1-1.9-0.1c-2.6,0-5.3,0.3-7.9-0.1c-4.4-0.7-8.9-0.3-13.3-0.7c-3.1-0.2-6.3-0.3-9.5,0.2c-2.2,0.4-4.4-0.6-6.6-0.2
	c-0.9,0.2-1.9,0-2.8,0.2c-1.6,0.3-2.9-0.9-4.4-0.8c-4,0.1-7.9-0.8-11.9-0.5c-0.9,0.1-2,0.2-2.8-0.2c-1.3-0.7-2.8-0.8-4.2-0.8
	c-3.2,0-6.4,0.1-9.5-0.8c-0.4-0.1-0.8,0-1.2-0.1c-4-0.2-7.9-0.1-11.9-0.4c-5.2-0.4-10.5-0.2-15.8-0.5c-4.8-0.3-9.7-0.4-14.5-0.5
	c-2.2,0-4.4-0.5-6.6,0.3c-0.4,0-0.8,0-1.2,0c-0.6-0.5-1.3-0.3-2-0.3c-4.8-0.8-9.5-1.8-14.3-2.5c-7.7-1.3-15.4-2.3-23.1-2.8
	c-8.9-0.5-17.8-1.5-26.7-0.4c-2.8,0.3-5.7,0-8.5,0.7c-1.2,0-2.5,0.1-3.7,0.2c-2.2-0.1-4.3,0.1-6.4-0.2c-3.6-0.5-7.3-0.7-10.9-1
	c-3.7-0.4-7.2-1.2-10.9-1.5c-5.9-0.5-11.7-0.6-17.6-1.2c-3.2-0.3-6.5-0.6-9.7-0.7c-2.6-0.1-5.2-0.6-7.8-0.2c-0.3,0-0.6,0-0.9-0.1
	c-1.7-0.6-3.5-0.4-5.3-0.3c-3-0.4-6.1-0.2-9.1,0c-3.4-0.1-6.9,0.1-10.3-0.3c-3.5-0.4-7.1,0.1-10.7-0.6c-0.2,0-0.5,0-0.7,0
	c-4.1,0-8.3,0-12.4-0.1c-3.3-0.2-6.6-1-9.9-0.3c-0.3,0.1-0.6,0-0.9-0.1c-2.4-0.7-4.9-0.2-7.3-0.5c-0.6-0.1-1.1,0-1.6,0.3
	c-0.7,0.3-1.4,0.3-2.1,0.1c-2.3-0.5-4.6-0.4-6.9-0.6c-0.7-0.7-1.6-0.4-2.4-0.4h0c-2.3-1.6-5-1.7-7.6-2.3c-0.5-0.1-0.8,0.4-1,0.9
	c-2.1-0.3-4.2-0.4-6.3-1.2c-1.3-0.5-3-0.8-4.4-0.6c-2.2,0.4-4.1,0-6.1-0.7c-3.4-1.2-6.9-1.6-10.5-1.5c-0.5-0.5-1-0.4-1.6-0.3
	c-0.5,0-0.9-0.1-1.4-0.1c-0.4-0.4-1-0.5-1.5-0.4c-0.3,0-0.6-0.1-0.9-0.1c-0.8-0.5-1.6-0.4-2.5-0.4c-0.6-0.2-1.2-0.1-1.8-0.1
	c-1.2-0.9-2.6-0.4-3.9-0.6c-3.2-0.6-6.3-1.2-9.6-1.4c-2.1-0.7-4.2-0.4-6.3-0.8c-0.3,0-0.6-0.1-0.9-0.1c-3-0.2-5.9-0.7-8.9-1
	c-2.9-0.3-5.8,0.3-8.7-0.2c-4.7-0.8-9.4-1.3-14.2-1.6c-3.6-0.3-7.2-0.1-10.9-0.1c-1.2-0.4-2.3-1.1-3.5-1.3c-1.3-0.1-2.7-0.4-4-0.5
	V23.7c5.3-0.5,10.6-1.4,15.8-2.5c2.5-0.5,5-1,7.5-1.5c3.3-0.7,6.7-0.9,10-1.8c1.5-0.3,2.9-0.9,4.4-1c4.4-0.3,8.8-1,13.2-1.5
	c1.8-0.2,1.8-0.2,1.6-2c0.3,0.2,0.6,0.4,0.9,0.6c1,1.6,2.2,0.6,3.4,0.4h0.9c0,0,0.1,0,0.1,0c1.2,0.2,2.3,0.3,3.4-0.3
	c3.1-0.4,6.2-1,9.4-1.3c2.4-0.2,4.8-0.1,7.1-0.4c2.3-0.3,4.6-0.1,6.8,0c4.4,0.2,8.7,0.2,13-0.3c2.1,0.3,4.2,0.2,6.2,0
	c4.8,0,9.6,0,14.4,0c2.2,0,4.5,0,6.7,0.1c0.6,0.6,1.4,0.4,2.1,0.4c3.6,0.1,7.2,0,10.8,0.2c2,0.1,4,0.5,6,0.4
	c5.5-0.3,10.8,0.8,16.2,1.1c5.3,0.2,10.6,1.3,15.9,0.8c0.1,0,0.3,0.1,0.4,0.1c2.9,0.7,5.9,0.3,8.8,0.1c3.7-0.2,7.4,0,11.1-0.4
	c3.5-0.3,7-0.3,10.6-0.6c3.2-0.4,6.3-1.2,9.5-1.9c2.8-0.7,5.8-1,8.6-1.8c0.9-0.3,1.7-0.4,2.5,0.2c0.8,0.6,1.8,0.6,2.8,0.5
	c2.4,0.4,4.8,1.3,7.3,0.2c0.5-0.2,1.1-0.2,1.6,0.3c0.5,0.4,1.1,0.6,1.8,0.6c2.8,0,5,2.8,8.1,2c0.1,0,0.3,0.1,0.4,0.3
	c0.4,0.7,1.1,0.5,1.7,0.5c1.1,0.1,2.2,0.1,3.3,0.2c3.2,0.4,6.5,0.9,9.8,0.7c1.7-0.1,3.3,0.1,5-0.3c1.8-0.4,3.4,0.5,5.1,0.8
	c2.4,0.4,4.9,0.7,7.4,0.5l0.2,0.1l0.2,0c2.4,0.3,4.8,0.4,7.2,1.1c4.2,1,8.3,2.1,12.5,2.7c0.9,0.7,1.9,0.6,2.9,0.5c0.1,0,0.3,0,0.5,0
	c1.8,0.6,3.6,1.3,5.5,1.5c2.5,0.3,4.9,1.4,7.5,0.5c0.8-0.3,1.7,0.2,2.1,0.8c0.8,1.2,1.8,1.4,3.1,1.4c0.7,0,1.4,0.2,2.1,0.3
	c3.8,0.9,7.6,1.3,11.5,1.8c2.5,0.4,5.1,0.2,7.6,0.7c3,0.6,6,0.8,9,0.6l0.2,0.1l0.2,0c0.9,0.7,1.8,0.1,2.8,0.1
	c7.9,0.2,15.8,0.7,23.7,0.7c8.3,0.2,16.6,0,24.8-0.8c4.3-0.4,8.7-0.9,13-1.3h0c0.4,0,0.8,0,1.2-0.1c12.7-1.4,25.4-3,38.2-3.4
	c0.6,0.5,1.4,0.4,2.1,0.2c1.1-0.3,2.2-0.3,3.3-0.3c3.9,0,7.6-0.5,11.3-1.6c1.3-0.4,2.8-0.7,4,0c1.3,0.8,2.7,0.6,3.9,0.5
	c4.7-0.5,9.4-0.7,14.1-0.9c0.6,0,1.3-0.1,1.9-0.1c5.5-0.6,11-0.4,16.4,0.4c1.2,0.2,2.9-0.1,3.3,1.8c0,0.2,0.5,0.2,0.8,0.3
	c1.4,0.4,2.8,0.5,4.2,0.5c3,0,6,0,8.6,2c0.4,0.3,1,0.4,1.6,0.4c3.1,0.2,6.2,0.4,9.3,0.6c6.3,0.4,12.5,0.9,18.9,1
	c0.6,0,1.1,0.2,1.7,0.1c1.4-0.3,2.8,0.6,4.1-0.1c0.6,0,1.2,0,1.8,0c2.4,0.6,4.8,0.6,7.2,0c0,0,0.1,0,0.1,0c4.1,0.2,8.2-0.7,12.3-0.6
	c3.5,0,7.1,0.4,10.6-0.7c1.4-0.5,3.3-0.7,4.8,0.4c1,0.8,2.1,0.9,3.3,0.9c2.4,0,4.7-0.7,7-0.5c0.3,0,0.6-0.2,0.8-0.5h0.2l0.2,0
	c0.8,0.1,1.4-0.4,2-0.9c1.8-0.1,3.5-0.3,5,1c0.4,0.3,1,0.5,1.6,0.4c2.9-0.5,5.9-0.2,8.8-0.6c7.9-1,15.7-2.5,23.6-3.3
	c3.5-0.4,7.1-0.5,10.5-1.8c0.1,0,0.3,0,0.4-0.1c1.7-0.2,3.3-0.3,5-0.6c8.2-1.7,16.4-2.6,24.8-2.6c5.5,0,11-0.5,16.4-1.5
	c2.4,0,4.7,0.5,7.1,0.2c0.9-0.1,1.9,0,2.8,0.1c4,0.5,7.9,1.7,12,2.2c1,0.1,1.8,0.1,2.7-0.4c1.7-0.9,2.1-0.8,3.2,0.7
	c0.8,1,1.7,1.4,2.8,1.5c3.9,0.2,7.8,0.7,11.6,1.1c3.1,0.4,6.1,0.7,9.2,1c3.3,0.3,6.6,0.5,10,0.8c4,0,7.9-0.1,11.8,0.2
	c3.6,0.3,7.1,0.1,10.7,0.2c0.4,0,0.8,0.1,1.2,0.1c7.8-0.3,15.5-1.5,23.3-1.5c2.3-0.1,4.5,0.6,6.9,0.6c1.7,0,2.5-0.6,2.3-2.4
	c1.1-1.2,2.4-1.1,3.8-0.8c0.6,0.5,0.7,1.4,1.5,1.8c3.1,1.4,6.5,1.4,9.7,1.6C846.8,24.9,848,25,849.2,25z"/>
</svg>
