<?xml version="1.0" encoding="UTF-8"?><svg id="Layer_1" xmlns="http://www.w3.org/2000/svg" viewBox="0 0 158 48"><defs><style>.cls-1{fill:#f2f2f2;}</style></defs><path class="cls-1" d="m87.32,21.51h0s-.09.02-.14.02-.09,0-.14,0c-2.72,0-4.4,1.7-4.4,4.42v1.34c0,2.63,1.71,4.26,4.44,4.26.06,0,.11,0,.17,0,.04,0,.07,0,.11,0,1.83,0,3.11-.67,3.93-2.06l-1.62-.94c-.54.8-1.26,1.4-2.3,1.4-1.39,0-2.22-.85-2.22-2.29v-.38h6.43v-1.58c0-2.54-1.67-4.18-4.26-4.18h0Zm-.14,1.56c1.26.06,2.03.9,2.03,2.28v.38h-4.07v-.22c0-1.52.72-2.38,2.04-2.44h0Zm-9.98-1.55c-1.21,0-2.25.5-2.8,1.34l-.14.21v-1.32h-2.3v12.86h2.41v-4.49l.14.21c.52.77,1.53,1.23,2.71,1.23h.11c1.99,0,3.99-1.29,3.99-4.2v-1.63c0-2.09-1.23-4.2-4.01-4.2h-.02s-.05,0-.05,0h-.05Zm-.56,1.81c1.4.02,2.27.97,2.27,2.5v1.4c0,1.52-.88,2.47-2.29,2.5-1.32-.02-2.24-1.03-2.24-2.46v-1.44c0-1.45.93-2.47,2.26-2.5h0Zm31.28-4.99l-4.64,12.97h2.61l.89-2.78h5.07v.03l.89,2.76h2.61l-4.65-12.97h-.28s-2.5,0-2.5,0Zm1.39,2.23l1.94,6.13h-3.9l1.96-6.13Zm15.39-.4v-1.83h-7.96v1.83h2.79v9.3h-2.79v1.83h7.96v-1.83h-2.79v-9.3h2.79Zm-26.21,1.35h-.11c-1.35,0-2.31.46-2.78,1.33l-.14.27v-1.37h-2.3v9.56h2.41v-5.7c0-1.34.72-2.11,1.97-2.13,1.2.02,1.88.78,1.88,2.08v5.75h2.41v-6.16c0-2.28-1.25-3.63-3.34-3.63h0Zm-34.28-3.44c-3.56,0-5.77,2.22-5.77,5.79v1.93c0,3.57,2.21,5.79,5.77,5.79h.11c3.56,0,5.77-2.22,5.77-5.79v-1.93c0-3.57-2.22-5.79-5.77-5.79h-.11Zm.05,1.93c2.12.02,3.33,1.38,3.33,3.72v2.19c0,2.35-1.22,3.7-3.33,3.72-2.12-.02-3.34-1.38-3.34-3.72v-2.19c0-2.35,1.22-3.7,3.34-3.72Zm-21.02-7.25c-2.46,0-4.64,1.58-5.41,3.92-1.58.33-2.95,1.32-3.75,2.72-1.23,2.13-.95,4.81.7,6.64-.51,1.53-.34,3.21.48,4.59,1.23,2.14,3.69,3.24,6.11,2.73,1.07,1.21,2.61,1.89,4.22,1.89,2.46,0,4.64-1.58,5.41-3.92,1.58-.33,2.95-1.32,3.74-2.72,1.24-2.13.96-4.81-.69-6.64h0c.51-1.54.34-3.21-.48-4.61-1.23-2.13-3.69-3.23-6.1-2.72-1.07-1.2-2.61-1.89-4.23-1.88Zm0,1.46h0c.99,0,1.94.35,2.7.98-.03.02-.09.05-.14.08l-4.48,2.58c-.23.13-.37.37-.37.64v6.06l-1.93-1.11v-5.01c0-2.33,1.88-4.21,4.21-4.22h0Zm5.39,1.76c1.51,0,2.91.8,3.66,2.11.49.85.67,1.85.5,2.82-.03-.02-.09-.05-.13-.08l-4.48-2.59c-.23-.13-.51-.13-.74,0l-5.25,3.03v-2.22l4.33-2.5c.64-.37,1.36-.56,2.1-.57h0Zm-11.07,2.3v5.32c0,.27.14.5.37.64l5.24,3.02-1.93,1.12-4.32-2.5c-2.01-1.17-2.7-3.74-1.54-5.76.49-.85,1.27-1.51,2.19-1.85h0Zm10.04,1.32l4.33,2.5c2.02,1.16,2.7,3.74,1.54,5.76h0c-.49.86-1.27,1.52-2.19,1.85v-5.32c0-.27-.14-.51-.37-.64l-5.25-3.03,1.93-1.11Zm-3.18,1.84l2.21,1.28v2.55l-2.21,1.28-2.21-1.28v-2.55l2.21-1.28Zm3.47,2.01l1.93,1.11v5c0,2.33-1.89,4.22-4.21,4.22h0c-.98,0-1.94-.35-2.7-.98.03-.02.1-.05.14-.08l4.48-2.58c.23-.13.37-.37.37-.64v-6.05Zm-1.26,3.27v2.22l-4.33,2.5c-2.02,1.16-4.59.47-5.76-1.54h0c-.49-.85-.67-1.85-.5-2.82.03.02.09.05.13.08l4.48,2.59c.23.13.51.13.74,0l5.24-3.03Z"/></svg>