<?xml version="1.0" encoding="UTF-8"?><svg id="Layer_1" xmlns="http://www.w3.org/2000/svg" viewBox="0 0 158 48"><defs><style>.cls-1{fill:#f2f2f2;}</style></defs><path class="cls-1" d="m48.58,19.98c-3.71,0-6.6,2.81-6.6,6.58s2.82,6.56,6.6,6.56,6.65-2.84,6.65-6.58-2.82-6.56-6.65-6.56Zm.03,10.42c-2.11,0-3.66-1.64-3.66-3.84s1.52-3.86,3.63-3.86,3.68,1.66,3.68,3.86-1.55,3.84-3.66,3.84Zm7.44-7.56h1.84v10.03h2.95v-12.65h-4.79v2.62Zm-21.47-.15c1.55,0,2.77.95,3.24,2.37h3.12c-.56-3.03-3.07-5.09-6.33-5.09-3.71,0-6.6,2.81-6.6,6.58s2.82,6.56,6.6,6.56c3.19,0,5.74-2.06,6.31-5.11h-3.09c-.44,1.42-1.67,2.4-3.22,2.4-2.14,0-3.63-1.64-3.63-3.84,0-2.23,1.47-3.87,3.61-3.87Zm77.43,2.64l-2.16-.32c-1.03-.15-1.77-.49-1.77-1.3,0-.88.96-1.32,2.26-1.32,1.42,0,2.33.61,2.53,1.61h2.85c-.32-2.54-2.28-4.04-5.3-4.04s-5.18,1.59-5.18,3.84,1.35,3.4,4.07,3.79l2.16.32c1.06.15,1.64.56,1.64,1.35,0,1-1.03,1.42-2.45,1.42-1.74,0-2.72-.71-2.87-1.79h-2.9c.27,2.47,2.21,4.21,5.74,4.21,3.22,0,5.35-1.47,5.35-3.99,0-2.25-1.55-3.42-3.98-3.79Zm-52.64-10.32c-1.08,0-1.89.78-1.89,1.86s.81,1.86,1.89,1.86,1.89-.78,1.89-1.86-.81-1.86-1.89-1.86Zm43.22,9.54c0-2.74-1.67-4.57-5.2-4.57-3.34,0-5.2,1.69-5.57,4.28h2.92c.15-1,.93-1.83,2.6-1.83,1.5,0,2.23.66,2.23,1.47,0,1.05-1.35,1.32-3.02,1.49-2.26.24-5.06,1.03-5.06,3.96,0,2.28,1.69,3.74,4.39,3.74,2.11,0,3.44-.88,4.1-2.28.1,1.25,1.03,2.06,2.33,2.06h1.72v-2.62h-1.45v-5.7h0Zm-2.9,3.18c0,1.69-1.47,2.94-3.26,2.94-1.1,0-2.04-.46-2.04-1.44,0-1.25,1.5-1.59,2.87-1.74,1.33-.12,2.06-.42,2.43-.98v1.22Zm-15.63-7.76c-1.64,0-3.02.69-4,1.83v-6.92h-2.95v17.98h2.9v-1.66c.98,1.2,2.38,1.91,4.05,1.91,3.53,0,6.21-2.79,6.21-6.56s-2.72-6.58-6.21-6.58Zm-.44,10.42c-2.11,0-3.66-1.64-3.66-3.84s1.57-3.86,3.68-3.86,3.63,1.64,3.63,3.86-1.55,3.84-3.66,3.84Zm-13.55-10.42c-1.91,0-3.17.78-3.9,1.88v-1.64h-2.92v12.65h2.95v-6.87c0-1.93,1.23-3.3,3.04-3.3,1.69,0,2.75,1.2,2.75,2.94v7.24h2.95v-7.46c0-3.18-1.64-5.43-4.86-5.43Zm59.96,6.17c0-3.62-2.65-6.16-6.21-6.16-3.78,0-6.55,2.84-6.55,6.58,0,3.94,2.97,6.56,6.6,6.56,3.07,0,5.47-1.81,6.09-4.38h-3.07c-.44,1.13-1.52,1.76-2.97,1.76-1.89,0-3.31-1.17-3.63-3.23h9.74v-1.13h0Zm-9.57-.98c.47-1.76,1.79-2.62,3.31-2.62,1.67,0,2.95.95,3.24,2.62h-6.55Z"/></svg>