<?xml version="1.0" encoding="UTF-8"?><svg id="Layer_1" xmlns="http://www.w3.org/2000/svg" viewBox="0 0 158 48"><defs><style>.cls-1{fill:#f2f2f2;}</style></defs><g id="Layer_1-2"><g id="_2599888554384"><path class="cls-1" d="m62.99,32.69V15.31h5.68c1.88,0,3.3.39,4.26,1.17.95.78,1.43,1.93,1.43,3.47,0,.81-.23,1.53-.69,2.16-.46.63-1.09,1.11-1.88,1.46.94.26,1.68.76,2.23,1.49.55.74.81,1.61.81,2.63,0,1.56-.5,2.78-1.52,3.67-1.01.89-2.44,1.33-4.28,1.33h-6.03Zm2.3-8.09v6.21h3.78c1.07,0,1.91-.27,2.53-.82.62-.55.92-1.31.92-2.27,0-2.08-1.14-3.12-3.42-3.12h-3.82Zm0-1.88h3.46c1,0,1.8-.25,2.41-.76.6-.5.9-1.18.9-2.04,0-.96-.28-1.65-.84-2.08-.56-.44-1.41-.65-2.54-.65h-3.39v5.53h0Zm22.52,5.43h-7.29l-1.63,4.55h-2.36l6.64-17.38h2.01l6.65,17.38h-2.35l-1.66-4.55h0Zm-6.59-1.88h5.91l-2.96-8.12-2.95,8.12Zm18.06-1.32c-1.96-.57-3.39-1.26-4.29-2.09-.9-.82-1.34-1.84-1.34-3.05,0-1.37.55-2.5,1.64-3.4,1.1-.9,2.52-1.34,4.26-1.34,1.19,0,2.26.23,3.19.69.94.46,1.66,1.1,2.17,1.91.51.81.77,1.7.77,2.66h-2.3c0-1.05-.34-1.88-1-2.48-.67-.6-1.61-.9-2.83-.9-1.13,0-2.01.25-2.64.75-.63.5-.95,1.19-.95,2.07,0,.71.3,1.31.9,1.8.6.49,1.62.94,3.07,1.34,1.44.41,2.58.86,3.39,1.34s1.42,1.06,1.81,1.72c.39.65.59,1.42.59,2.3,0,1.41-.55,2.54-1.65,3.39-1.1.85-2.57,1.27-4.4,1.27-1.19,0-2.31-.23-3.34-.68-1.03-.46-1.83-1.09-2.39-1.88-.56-.79-.84-1.7-.84-2.71h2.3c0,1.05.39,1.88,1.17,2.48.77.61,1.81.91,3.11.91,1.21,0,2.14-.25,2.78-.74.65-.49.97-1.17.97-2.01s-.3-1.51-.9-1.98c-.59-.46-1.67-.92-3.24-1.37h0Zm19.21-.27h-7.53v6.14h8.75v1.88h-11.04V15.31h10.92v1.88h-8.63v5.6h7.53v1.88h0Z"/><path class="cls-1" d="m48.67,34.4c5.74,0,10.4-4.66,10.4-10.4s-4.66-10.4-10.4-10.4c-5.45,0-9.92,4.19-10.36,9.53h13.74v1.75h-13.74c.44,5.34,4.92,9.53,10.36,9.53h0Z"/></g></g></svg>