<?xml version="1.0" encoding="UTF-8"?><svg id="Layer_1" xmlns="http://www.w3.org/2000/svg" viewBox="0 0 158 48"><defs><style>.cls-1{fill:#f2f2f2;}</style></defs><path class="cls-1" d="m67.23,20.82c-.3-1.2-1.07-2.06-2.58-2.06-2.22,0-3.14,1.96-3.14,3.94s.93,3.94,3.14,3.94c1.61,0,2.49-1.2,2.64-2.71h1.78c-.15,2.49-1.91,4.19-4.41,4.19-3.1,0-4.95-2.47-4.95-5.42s1.85-5.42,4.95-5.42c2.34.02,4.17,1.31,4.39,3.53h-1.81Zm2.92,3.31c0-2.3,1.38-3.94,3.78-3.94s3.78,1.64,3.78,3.94-1.38,3.96-3.78,3.96-3.78-1.66-3.78-3.96h0Zm5.91,0c0-1.29-.65-2.64-2.13-2.64s-2.13,1.35-2.13,2.64.65,2.65,2.13,2.65,2.13-1.35,2.13-2.65h0Zm3.07-6.6h1.64v1.57h-1.64v-1.57Zm0,2.86h1.64v7.49h-1.64v-7.49Zm3.46,0h1.57v1.1l.04.04c.49-.82,1.36-1.35,2.34-1.33,1.63,0,2.65.88,2.65,2.54v5.14h-1.64v-4.71c-.04-1.18-.49-1.68-1.46-1.68-1.1,0-1.81.86-1.81,1.96v4.43h-1.64v-7.49h-.04Zm17.59,7.49h-1.16l-.28-1.21c-.97,1.1-1.85,1.46-3.12,1.46-3.1,0-4.95-2.47-4.95-5.42s1.85-5.42,4.95-5.42c2.26,0,4.17,1.2,4.43,3.53h-1.78c-.17-1.36-1.36-2.06-2.67-2.06-2.22,0-3.14,1.96-3.14,3.94s.93,3.94,3.14,3.94c1.85.04,2.88-1.08,2.9-2.84h-2.75v-1.38h4.41l.02,5.46Zm3.03-3.33c0,1.18.64,2.22,2.02,2.22.95,0,1.53-.41,1.83-1.25h1.57c-.36,1.64-1.76,2.56-3.4,2.56-2.35,0-3.66-1.64-3.66-3.94,0-2.13,1.4-3.96,3.63-3.96,2.35,0,3.81,2.13,3.53,4.37h-5.51Zm3.85-1.08c-.06-1.05-.77-1.98-1.89-1.98s-1.93.86-1.98,1.98h3.87Zm7.98-.58c-.13-.92-.8-1.4-1.72-1.4-.86,0-2.06.45-2.06,2.73,0,1.25.54,2.56,1.98,2.56.95,0,1.63-.64,1.78-1.72h1.64c-.3,1.94-1.5,3.01-3.44,3.01-2.35,0-3.64-1.66-3.64-3.87s1.23-4.04,3.7-4.04c1.74,0,3.21.88,3.38,2.71h-1.63v.02Zm3.05-5.36h1.64v5.89l2.99-3.03h2.04l-2.88,2.75,3.14,4.75h-2.02l-2.3-3.64-.99.95v2.69h-1.64v-10.35h.02Zm7.38,6.6c0-2.3,1.38-3.94,3.78-3.94s3.78,1.64,3.78,3.94-1.38,3.96-3.78,3.96-3.78-1.66-3.78-3.96h0Zm5.92,0c0-1.29-.65-2.64-2.13-2.64s-2.13,1.35-2.13,2.64.65,2.65,2.13,2.65,2.13-1.35,2.13-2.65h0Z"/><path class="cls-1" d="m52.7,24.93h-.09c-.28-1.72-.67-3.35-1.29-4.9-.28-.78-.64-1.55-1.01-2.28-.41-.73-.84-1.46-1.33-2.13-.49-.69-1.1-1.31-1.79-1.81-.69-.5-1.5-.82-2.26-1.12-.77-.3-1.55-.62-2.35-.86-.8-.22-1.63-.41-2.49-.58v-.06c.88-.15,1.76-.15,2.64,0,.88.13,1.74.43,2.52.84.78.43,1.46,1.01,2.13,1.55.67.54,1.35,1.1,1.98,1.72.65.6,1.21,1.29,1.68,2.04.49.75.88,1.55,1.18,2.37.58,1.68.77,3.5.49,5.21Z"/><path class="cls-1" d="m39.75,9.17c-5.98.04-11.38,3.66-13.64,9.21-2.26,5.55-.97,11.92,3.29,16.15,4.26,4.22,10.63,5.46,16.17,3.14,5.53-2.32,9.1-7.74,9.08-13.74-.04-8.19-6.69-14.78-14.9-14.77Zm-.86,13.91c-.99.41-2.13.19-2.9-.58-.77-.77-.99-1.91-.58-2.9.41-.99,1.38-1.64,2.45-1.64.71,0,1.38.28,1.87.77.52.52.8,1.2.8,1.91,0,1.07-.65,2.04-1.64,2.45Zm1.15,3.06h0c.75.48,1.63.64,2.49.68.88.02,1.76-.04,2.62-.21.86-.19,1.72-.45,2.54-.78.21-.08.41-.17.61-.26,0,0,0,0,0,0,.56-.25,1.09-.55,1.59-.92-.65.56-1.39.98-2.15,1.36-.82.39-1.66.69-2.54.93-.88.22-1.79.39-2.71.32-.93-.07-1.87-.39-2.49-1.08l.03-.03Zm7.34-3.45c.32.02.58.26.58.58,0,.5-.62.77-.97.41-.36-.36-.11-.97.39-.99Zm-2.24,13.96c-.94.39-1.91.68-2.88.85h0s0-.01,0-.01c0,0,0,0,0,0-.56-4.01,2.94-7.92,4.9-9.92.46-.47,1.17-1.11,1.83-1.79,2.54-2.39,3.03-5.25-2.2-6.68-.99-.28-2.02-.69-3.07-1.1-.03-.1-.07-.19-.12-.28-.12-.2-.33-.44-.65-.71-.67-.6-1.96-.58-3.07-.32-1.21-.28-2.43-.39-3.59-.11-5.22,1.44-5.94,4.02-6.11,7.11-.26,3.1-.43,5.45-1.63,8.12.01.02.02.04.04.06-2.64-3.77-3.24-8.68-1.46-13.03,2.09-5.14,7.08-8.49,12.62-8.52,7.59-.04,13.76,6.06,13.79,13.63.02,5.55-3.29,10.56-8.41,12.71Zm4.77-12.02s.07-.06.11-.1h.02s-.08.07-.13.1Z"/><path class="cls-1" d="m39.75,20.65c0,.75-.45,1.44-1.16,1.72-.69.28-1.5.13-2.04-.41-.54-.54-.69-1.33-.41-2.04.28-.69.97-1.16,1.72-1.16,1.05.02,1.89.86,1.89,1.89Z"/></svg>