<?xml version="1.0" encoding="UTF-8"?><svg id="Layer_1" xmlns="http://www.w3.org/2000/svg" viewBox="0 0 158 48"><defs><style>.cls-1{fill:#fff;}.cls-1,.cls-2{fill-rule:evenodd;}.cls-2,.cls-3{fill:#f2f2f2;}</style></defs><path class="cls-1" d="m51.57,24.41c.39-.39.79-.78,1.18-1.18,0-.47.01-4.88.01-4.88l-4.21-4.24c-.51.17-1.03.33-1.55.48-.42.12-.84.23-1.26.32-.18.05-.36.1-.54.13-.45.11-.89.2-1.34.28-.01,0-.02,0-.03,0-.52.09-1.04.18-1.57.25-.42.06-.85.12-1.28.16-.21.03-.42.05-.63.07-.35.03-.71.06-1.07.09-1.61.11-3.21.14-4.82.1-.31-.01-.63-.02-.95-.03-.27,0-.55-.02-.82-.03v5.9l1.49,1.5c-.69.45-1.38.88-2.08,1.31v4.88l4.21,4.25c5.65.37,11.41-.05,16.79-1.92v-5.9l-1.53-1.55Zm-.09,6.33c-3.79,1.11-7.57,1.52-11.35,1.52-.73,0-1.46-.01-2.2-.04v-2.37c2.63-1.68,5.25-3.54,7.88-5.67-1.89.25-3.78.35-5.66.35-.55,0-1.09-.01-1.63-.02v-2.62c.54.02,1.07.03,1.61.03,3.66,0,7.33-.4,10.99-1.43h.01v2.37l-7.88,6.69c2.75-.19,5.48-.63,8.23-1.43v2.62Z"/><path class="cls-2" d="m51.57,24.41c.39-.39.79-.78,1.18-1.18,0-.47.01-4.88.01-4.88l-4.21-4.24c-.51.17-1.03.33-1.55.48-.42.12-.84.23-1.26.32-.18.05-.36.1-.54.13-.44.11-.89.2-1.34.28-.01,0-.02,0-.03,0-.52.09-1.04.18-1.57.25-.42.06-.85.12-1.28.16-.21.03-.42.05-.63.07-.36.03-.72.06-1.07.09-1.61.11-3.21.14-4.82.1-.32,0-.63-.01-.95-.03-.27,0-.55-.02-.82-.03v5.9l1.49,1.5c-.69.45-1.38.88-2.08,1.31v4.88l4.21,4.25c5.65.37,11.41-.05,16.79-1.92v-5.9l-1.53-1.55Zm-.09,6.33c-3.79,1.11-7.57,1.52-11.35,1.52-.73,0-1.46-.01-2.2-.04v-2.37c2.63-1.68,5.25-3.54,7.88-5.67-1.89.25-3.78.35-5.66.35-.55,0-1.09-.01-1.63-.02v-2.62c.54.02,1.07.03,1.61.03,3.66,0,7.33-.4,10.99-1.43h.01v2.37l-7.88,6.69c2.75-.19,5.48-.63,8.23-1.43v2.62Z"/><path class="cls-3" d="m72.94,29.2v-3.03h-7.84l7.32-4.58v-2.9h-12.83v3.03h6.8l-7.32,4.58v2.9h13.87Z"/><path class="cls-3" d="m88.44,25.81h-4.48c-.4.6-.91.79-2.88.79-2.16,0-2.92-.22-2.98-1.94h10.41v-1.07c0-3.93-2.34-5.1-7.36-5.1h-.32c-5.02,0-7.2,1.17-7.2,5.1v.71c0,3.93,2.18,5.1,7.2,5.1h.36c5.1,0,6.67-.99,7.24-3.59Zm-7.36-4.78c2.08,0,2.98.32,2.98,1.59v.08h-5.93c.14-1.45.97-1.67,2.96-1.67Z"/><path class="cls-3" d="m104.11,29.2v-6.23c0-3.43-1.45-4.48-6.61-4.48h-.38c-4.96,0-6.49,1.21-7.22,3.41h4.64c.32-.6.83-.85,2.5-.85,1.96,0,2.6.3,2.6,1.51v.16l-6.47.22c-2.3.08-3.73.85-3.73,2.92v.16c0,2.24,1.51,3.39,5.14,3.39,2.94,0,4.4-.73,4.94-2.06h.12v1.86h4.46Zm-10.16-3.27v-.08c0-.61.44-.87,1.53-.91l4.17-.14v.14c0,1.31-1.33,2.06-3.51,2.06-1.59,0-2.18-.3-2.18-1.07Z"/><path class="cls-3" d="m109.86,29.2v-13.89h-4.46v13.89h4.46Z"/><path class="cls-3" d="m118.66,32.57l7.24-13.89h-4.56l-2.86,6.25h-.14l-2.98-6.25h-4.8l5.38,10.57-1.96,3.31h4.68Z"/></svg>