<?xml version="1.0" encoding="UTF-8"?><svg id="Layer_1" xmlns="http://www.w3.org/2000/svg" viewBox="0 0 158 48"><defs><style>.cls-1{isolation:isolate;opacity:.41;}.cls-1,.cls-2{fill:#f2f2f2;fill-rule:evenodd;}</style></defs><path class="cls-2" d="m49.49,14.78h-15.08v7.56h7.42c.26,0,.48.21.48.48v7.32h7.66v-14.87c0-.13-.05-.25-.14-.34-.09-.09-.21-.14-.34-.14Z"/><path class="cls-1" d="m34.41,14.78v7.56h-7.07c-.1,0-.18-.06-.22-.15-.04-.09-.02-.19.05-.26l7.24-7.15h0Zm8.31,22.51c-.07.07-.17.09-.26.05-.09-.04-.15-.12-.15-.22v-6.99h7.66l-7.25,7.16h0Z"/><path class="cls-1" d="m34.41,22.34h7.66c.13,0,.24.11.24.24v7.56h-7.42c-.26,0-.48-.21-.48-.48v-7.32h0Z"/><path class="cls-2" d="m127.2,14.3c.43.42.93.63,1.52.63s1.12-.21,1.54-.63c.43-.42.64-.92.64-1.5s-.21-1.08-.64-1.51c-.4-.42-.96-.66-1.54-.65-.58,0-1.09.22-1.52.65-.43.43-.64.94-.64,1.51s.21,1.07.64,1.5Zm-46.44,5.52s-.04.08-.08.08h-3.01v5.62c0,.47.12.81.36,1.03s.58.34,1.04.36c.42.03.92.02,1.52,0h.08s.04,0,.06.02c.02.02.03.04.03.06v3s-.03.08-.07.08h-.06c-2.35.25-4.02.02-4.99-.68-.99-.72-1.49-2.01-1.49-3.86v-5.62h-2.3s-.08-.04-.08-.08v-3.19s.04-.08.08-.08h2.3v-2.23c0-.06.04-.12.1-.15l3.31-1.44s.05,0,.08,0c.02.01.04.04.04.07v3.75h3.01s.08.04.08.08v3.19h0Zm6.39-.95c.33-.86.87-1.51,1.62-1.95.75-.42,1.59-.65,2.45-.65.04,0,.08.04.08.08v3.66s-.02.07-.04.1-.06.04-.1.03c-1.02-.09-1.93.13-2.74.66-.85.56-1.27,1.49-1.27,2.78v6.37s0,.04-.02.06c-.02.02-.04.02-.06.02h-3.36s-.08-.04-.08-.08v-13.35s.04-.08.08-.08h3.36s.08.04.08.08v2.24h0Zm16.66-2.32s-.04,0-.06.02c-.02.02-.02.04-.02.06v1.51c-1.06-1.32-2.54-1.97-4.45-1.97s-3.38.69-4.68,2.07c-1.3,1.38-1.95,3.07-1.95,5.06s.65,3.69,1.95,5.06c1.3,1.38,2.86,2.07,4.68,2.07,1.91,0,3.4-.66,4.45-1.97v1.51s.04.08.08.08h3.36s.08-.04.08-.08v-13.35s0-.04-.02-.06c-.02-.02-.04-.02-.06-.02h-3.36Zm-6.58,9.51c.71.7,1.61,1.05,2.7,1.05s2-.36,2.72-1.07c.72-.71,1.08-1.62,1.08-2.74s-.36-2.03-1.08-2.74c-.72-.71-1.63-1.07-2.72-1.07s-1.99.36-2.7,1.07c-.71.71-1.07,1.62-1.07,2.74s.36,2.03,1.07,2.75h0Zm25.69-7.82c-1.3-1.38-2.87-2.07-4.71-2.07s-3.39.66-4.42,1.97v-1.51s-.04-.08-.08-.08h-3.36s-.08.04-.08.08v18.75s.04.08.08.08h3.36s.08-.04.08-.08v-6.91c1.04,1.31,2.51,1.97,4.42,1.97s3.41-.69,4.71-2.07c1.3-1.38,1.95-3.07,1.95-5.06s-.65-3.69-1.95-5.06Zm-8.07,7.82c.71.7,1.61,1.05,2.7,1.05s2-.36,2.72-1.07c.72-.71,1.08-1.62,1.08-2.74s-.36-2.03-1.08-2.74c-.72-.71-1.63-1.07-2.72-1.07s-1.99.36-2.7,1.07c-.71.71-1.07,1.62-1.07,2.74s.36,2.03,1.07,2.75h0Zm12.2,4s-.08-.04-.08-.08v-13.35s.04-.08.08-.08h3.36s.08.04.08.08v13.35s-.04.08-.08.08h-3.36Zm-62.82-8.79c-.48-.22-.72-.52-.72-.88s.15-.61.45-.81c.3-.2.68-.3,1.13-.3.87,0,1.53.34,1.98,1.01.03.05.09.07.14.04l2.97-1.3s.04-.03.04-.05c0-.02,0-.05,0-.07-.03-.06-.07-.11-.11-.17-.51-.79-1.17-1.38-1.99-1.83-.91-.5-1.92-.74-3.03-.74-1.48,0-2.71.38-3.7,1.15-.99.76-1.49,1.81-1.49,3.15,0,.88.24,1.62.72,2.2.47.57,1.07,1.02,1.76,1.28.69.27,1.38.5,2.08.67.69.18,1.28.38,1.76.61.48.22.72.52.72.88,0,.77-.63,1.16-1.88,1.16s-2.03-.44-2.49-1.31c-.04-.08-.13-.11-.21-.08l-2.97,1.3s-.04.03-.04.05c0,.02,0,.04,0,.06l.03.07c1.04,2.05,2.92,3.07,5.67,3.07,1.57,0,2.87-.37,3.92-1.12,1.05-.75,1.57-1.82,1.57-3.2,0-.92-.24-1.68-.72-2.3-.45-.59-1.06-1.04-1.76-1.31-.68-.26-1.37-.47-2.08-.65-.69-.17-1.28-.37-1.76-.6h0Z"/></svg>