<?xml version="1.0" encoding="UTF-8"?><svg id="Layer_1" xmlns="http://www.w3.org/2000/svg" viewBox="0 0 158 48"><defs><style>.cls-1{fill:#f2f2f2;}</style></defs><g id="Layer_2"><g id="Layer_1-2"><path class="cls-1" d="m60.2,23.79c-.13-3.1,2.29-5.71,5.38-5.84.02,0,.03,0,.05,0h.23c2.86,0,4.56,1.69,5.06,3.66l-1.78.6c-.33-1.52-1.72-2.57-3.27-2.46-1.85,0-3.71,1.35-3.71,4.08s1.81,4.03,3.74,4.03c1.55.04,2.93-.98,3.34-2.48l1.75.56c-.62,2.29-2.75,3.83-5.11,3.72-3.07.06-5.61-2.39-5.67-5.46,0-.13,0-.28,0-.42Z"/><path class="cls-1" d="m74.44,29.41h-1.84v-11.49h1.84v4.49c.54-.64,1.35-1,2.19-.97,1.9,0,2.81,1.36,2.81,3.07v4.9h-1.77v-4.57c.11-.81-.45-1.56-1.26-1.69-.11-.01-.22-.01-.33,0-.89,0-1.61.72-1.61,1.61h0s0,.09,0,.14l-.03,4.51Z"/><path class="cls-1" d="m83.57,24.99l1.98-.31c.45-.06.56-.29.56-.56,0-.65-.44-1.17-1.46-1.17-.8-.06-1.51.53-1.58,1.33v.08l-1.69-.38c.14-1.34,1.35-2.53,3.25-2.53,2.38,0,3.29,1.35,3.29,2.92v3.84c0,.42.03.83.1,1.24h-1.69c-.06-.33-.09-.66-.07-.99-.52.8-1.43,1.27-2.38,1.22-1.33.11-2.5-.88-2.62-2.21v-.11c-.03-1.42.99-2.18,2.31-2.37Zm2.55,1.24v-.35l-2.02.3c-.57.02-1.02.48-1.03,1.05,0,.56.47,1.01,1.04,1.01,0,0,.01,0,.02,0h.08c.96.1,1.82-.6,1.93-1.56,0,0,0,0,0-.01,0-.14,0-.29-.03-.43h0Z"/><path class="cls-1" d="m91.06,17.76c.66,0,1.21.52,1.22,1.18,0,0,0,0,0,0h0c0,.66-.54,1.2-1.2,1.2-.66,0-1.2-.54-1.2-1.2,0-.66.53-1.19,1.19-1.2h0Zm-.9,11.68v-7.76h1.84v7.73l-1.84.03Z"/><path class="cls-1" d="m96.2,29.41h-1.84v-7.73h1.79v1.03c.48-.8,1.35-1.28,2.29-1.25,1.89,0,2.81,1.36,2.81,3.07v4.89h-1.84v-4.57c0-.95-.43-1.72-1.59-1.72-.9,0-1.62.74-1.62,1.64h0v4.65Z"/><path class="cls-1" d="m103.47,29.41v-11.49h1.84v11.49h-1.84Z"/><path class="cls-1" d="m108.6,17.76c.66,0,1.2.53,1.2,1.19,0,.66-.53,1.2-1.19,1.2-.66,0-1.2-.53-1.2-1.19,0,0,0,0,0-.01,0-.66.54-1.18,1.19-1.19Zm-.9,11.68v-7.76h1.83v7.73l-1.83.03Z"/><path class="cls-1" d="m113.74,29.41h-1.84v-7.73h1.79v1.03c.48-.8,1.35-1.28,2.29-1.25,1.89,0,2.81,1.36,2.81,3.07v4.89h-1.84v-4.57c.11-.81-.45-1.56-1.26-1.69-.11-.01-.22-.01-.34,0-.89,0-1.61.74-1.61,1.63,0,.07,0,.13,0,.2v4.43Z"/><path class="cls-1" d="m125.07,24.95l3.24,4.49h-2.25l-2.25-3.18-.95,1v2.16h-1.83v-11.49h1.83v6.89l2.97-3.12h2.44l-3.21,3.26Z"/><path class="cls-1" d="m41.86,15.89l7.03,4.03v8.11l-7.01,4.06-7.02-4.02v-8.1l7-4.07m0-5.95l-2.58,1.49-7.02,4.07-2.58,1.49v14.06l2.58,1.49,7.03,4.03,2.58,1.49,2.58-1.49,7-4.06,2.58-1.49v-14.08l-2.58-1.49-7.02-4.02-2.58-1.49h0Z"/></g></g></svg>