<?xml version="1.0" encoding="UTF-8"?><svg id="Layer_1" xmlns="http://www.w3.org/2000/svg" viewBox="0 0 158 48"><defs><style>.cls-1{fill-rule:evenodd;}.cls-1,.cls-2{fill:#f2f2f2;}</style></defs><path class="cls-1" d="m77.24,17.23c-.83,0-1.52.67-1.52,1.54s.68,1.52,1.52,1.52,1.52-.67,1.52-1.52-.68-1.54-1.52-1.54Zm1.33,3.83h-2.65v9.09h2.65v-9.09Zm-18.1-3.49h2.58v3.49h1.98v2.43h-1.98v3.21c0,.47.37.84.82.84h1.15v2.58h-1.15c-1.87,0-3.4-1.54-3.4-3.44v-3.21h-1.2v-2.43h1.2v-3.48Zm10.87,3.29c-1.2,0-2.15.51-2.51,1.3v-4.59h-2.65v12.57h2.65v-5.09c0-1.06.68-1.81,1.65-1.81s1.53.64,1.53,1.72v5.2h2.65v-5.53c0-2.36-1.2-3.76-3.31-3.76Zm11.01.19v1.25c.4-.91,1.37-1.43,2.58-1.45.18,0,.42.02.7.05v2.53c-.27-.05-.57-.08-.88-.08-1.52,0-2.4.86-2.4,2.36v4.44h-2.65v-9.09h2.65Zm10.72,1.2c-.27-.79-1.32-1.35-2.66-1.35-1.27,0-2.33.46-3.18,1.37-.83.89-1.27,2.02-1.27,3.34s.43,2.43,1.27,3.36c.85.89,1.91,1.35,3.18,1.35,1.35,0,2.4-.56,2.66-1.35v1.2h2.65v-12.58h-2.65v4.67Zm-.53,4.98c-.45.44-1,.64-1.65.64s-1.18-.22-1.62-.64c-.45-.46-.67-1-.67-1.62s.22-1.16.67-1.6c.45-.46.98-.67,1.62-.67.67,0,1.22.22,1.65.67.47.44.7.98.7,1.6s-.23,1.16-.7,1.62Zm10.82-6.12l2.4,4.32,1.62-4.35h2.6l-3.7,9.62-2.91-5.23-2.91,5.23-3.68-9.62h2.6l1.6,4.35,2.4-4.32Zm10.97-.25c-1.37,0-2.51.44-3.41,1.32-.88.86-1.33,2.01-1.33,3.42v.08c0,1.42.45,2.56,1.33,3.42.92.84,2.08,1.28,3.55,1.28,1.37,0,2.48-.27,3.33-.83v-2.34c-.83.59-1.9.88-3.18.88-1.4,0-2.31-.69-2.36-1.77h6.58c.03-.27.05-.57.05-.88,0-1.3-.43-2.38-1.27-3.26-.83-.89-1.95-1.33-3.28-1.33Zm-2.08,3.73c.02-.42.23-.78.63-1.06.42-.29.88-.44,1.45-.44,1.05,0,1.87.69,1.87,1.5h-3.95Zm12.94-3.68c1.27,0,2.33.46,3.16,1.37.85.91,1.28,2.01,1.28,3.32s-.43,2.43-1.28,3.36c-.83.89-1.9,1.35-3.16,1.35-1.35,0-2.4-.56-2.66-1.35v1.2h-2.65v-12.57h2.65v4.67c.27-.79,1.32-1.35,2.66-1.35Zm-.48,6.97c.63,0,1.17-.2,1.62-.64.45-.46.67-1,.67-1.62s-.22-1.16-.67-1.6c-.43-.46-.98-.67-1.62-.67s-1.2.22-1.67.67c-.45.44-.68.98-.68,1.6s.23,1.16.68,1.62c.45.42,1,.64,1.67.64Z"/><path class="cls-2" d="m28.43,17.18c-.26-.66.23-1.38.94-1.38h4.45c.42,0,.79.25.94.63l3.54,8.84c.1.24.1.5,0,.75l-2.23,5.55c-.34.85-1.55.85-1.89,0l-5.76-14.39Z"/><path class="cls-2" d="m37.02,17.15c-.24-.66.25-1.35.96-1.35h3.88c.43,0,.81.27.96.66l3.22,8.84c.08.22.08.46,0,.69l-1.93,5.31c-.32.89-1.59.89-1.91,0l-5.16-14.15Z"/><path class="cls-2" d="m44.78,17.18c-.26-.66.23-1.38.94-1.38h4.45c.42,0,.79.25.94.63l3.54,8.84c.1.24.1.5,0,.75l-2.23,5.55c-.34.85-1.55.85-1.89,0l-5.76-14.39Z"/></svg>