<?xml version="1.0" encoding="UTF-8"?><svg id="Layer_1" xmlns="http://www.w3.org/2000/svg" viewBox="0 0 158 48"><defs><style>.cls-1{fill-rule:evenodd;}.cls-1,.cls-2{fill:#f2f2f2;}</style></defs><path class="cls-2" d="m93.35,15.23h15.17v2.8h-6.02v14.73h-3.01v-14.73h-6.14v-2.8Z"/><path class="cls-2" d="m68.4,15.23v2.8h-12.16v4.5h9.78v2.8h-9.78v4.63h12.16v2.8h-15.17v-14.73h0v-2.8h15.17Z"/><path class="cls-2" d="m75.98,15.24h-3.94l14.1,17.53h3.95l-7.05-8.76,7.04-8.76h-3.94s-5.07,6.31-5.07,6.31l-5.09-6.32Z"/><path class="cls-2" d="m80.02,27.76l-1.97-2.45-6.02,7.47h3.95l4.04-5.02Z"/><path class="cls-1" d="m53.34,32.76l-14.12-17.53h-3.76v17.53h3.01v-13.78l11.09,13.79h3.78Z"/><path class="cls-2" d="m109.19,32.65c-.22,0-.41-.08-.56-.23-.16-.15-.23-.34-.23-.56,0-.21.08-.4.23-.55s.34-.23.56-.23.4.08.55.23c.16.15.24.34.24.55,0,.14-.04.28-.11.4-.08.12-.17.21-.29.28-.12.07-.25.11-.39.11Z"/><path class="cls-2" d="m114.33,25.27h1.33v5.14c0,.47-.1.88-.3,1.22-.2.34-.48.6-.84.78-.36.18-.77.27-1.25.27-.43,0-.82-.08-1.17-.23-.35-.15-.62-.38-.82-.68-.2-.3-.3-.68-.3-1.13h1.34c0,.2.05.37.13.51s.2.25.35.33c.15.08.33.11.53.11.21,0,.4-.04.55-.13.15-.09.26-.22.34-.4.08-.17.12-.39.12-.65v-5.14Z"/><path class="cls-2" d="m121.14,27.27c-.03-.31-.18-.55-.42-.73-.25-.17-.57-.26-.97-.26-.28,0-.52.04-.72.12-.2.08-.35.2-.46.34-.11.14-.16.31-.16.49,0,.15.04.29.11.4.07.11.17.21.29.28.12.08.26.14.41.19.15.05.3.1.45.13l.7.17c.28.06.55.15.81.26.26.11.49.25.7.41.21.17.37.37.49.6.12.24.18.51.18.83,0,.43-.11.8-.33,1.13-.22.32-.54.58-.96.76-.42.18-.92.27-1.52.27s-1.08-.09-1.5-.27c-.42-.17-.75-.43-.99-.77-.24-.34-.37-.75-.39-1.23h1.32c.02.25.1.46.24.63.14.17.32.29.55.38.23.08.48.12.76.12s.55-.04.77-.13c.22-.09.39-.21.52-.36.13-.15.19-.34.19-.55,0-.19-.06-.35-.17-.47-.11-.12-.27-.23-.46-.31-.2-.08-.43-.16-.7-.23l-.84-.21c-.61-.15-1.09-.39-1.45-.71-.35-.32-.53-.73-.53-1.26,0-.43.12-.81.36-1.13.24-.32.56-.57.97-.75.41-.18.88-.27,1.39-.27s.99.09,1.38.27c.4.18.71.43.94.75.23.32.34.68.35,1.09h-1.29Z"/></svg>