<?xml version="1.0" encoding="UTF-8"?><svg id="Layer_1" xmlns="http://www.w3.org/2000/svg" viewBox="0 0 158 48"><defs><style>.cls-1{fill:#f2f2f2;}</style></defs><path class="cls-1" d="m78.88,18.13c-4.05,0-6.98,2.64-6.98,6.61s3.29,6.61,7.34,6.61c2.45,0,4.61-.97,5.94-2.6l-2.81-1.62c-.74.81-1.87,1.28-3.14,1.28-1.76,0-3.25-.92-3.81-2.39h10.29c.08-.41.13-.84.13-1.28,0-3.96-2.92-6.6-6.98-6.6h0Zm-3.47,5.32c.46-1.46,1.71-2.39,3.47-2.39s3.01.92,3.47,2.39h-6.94Zm43.01-5.32c-4.05,0-6.98,2.64-6.98,6.61s3.29,6.61,7.34,6.61c2.45,0,4.61-.97,5.94-2.6l-2.81-1.62c-.74.81-1.87,1.28-3.14,1.28-1.76,0-3.25-.92-3.81-2.39h10.29c.08-.41.13-.84.13-1.28,0-3.96-2.92-6.6-6.98-6.6h0Zm-3.47,5.32c.46-1.46,1.71-2.39,3.47-2.39s3.01.92,3.47,2.39h-6.94Zm-14.33,1.28c0,2.2,1.44,3.67,3.67,3.67,1.51,0,2.65-.69,3.23-1.81l2.82,1.63c-1.17,1.95-3.36,3.12-6.05,3.12-4.06,0-6.98-2.64-6.98-6.61s2.92-6.61,6.98-6.61c2.69,0,4.88,1.17,6.05,3.12l-2.82,1.63c-.58-1.12-1.72-1.81-3.23-1.81-2.23,0-3.67,1.47-3.67,3.67Zm30.28-10.65v16.89h-3.3V14.09h3.3Zm-90.23-1.84l13.57,23.5h-27.13l13.57-23.5Zm33.92,1.84l-10.17,17.62-10.17-17.62h3.81l6.36,11.01,6.36-11.01h3.81Zm21.63,4.41v3.56c-.37-.11-.76-.18-1.17-.18-2.13,0-3.67,1.47-3.67,3.67v5.43h-3.3v-12.48h3.3v3.38c0-1.87,2.17-3.38,4.85-3.38Z"/></svg>