<?xml version="1.0" encoding="UTF-8"?><svg id="Layer_1" xmlns="http://www.w3.org/2000/svg" viewBox="0 0 48 48"><defs><style>.cls-1{fill:#f2f2f2;}</style></defs><path class="cls-1" d="m36.22,15.17H11.78v16.29h13.85l.19-1.3,9.9-9.9h0l.49-.49v-4.6Zm-9.5,9.5v1.36h-4.07v-1.36h4.07Zm-4.07-4.07h8.14v1.36h-8.14v-1.36Zm-3.9-1.36v.27c.28.05.71.14.9.19l.82.22-.44,1.64-.82-.22c-.16-.04-.74-.16-.92-.18-.52-.08-.94-.01-1.21.11-.27.12-.34.26-.35.34-.03.14,0,.2,0,.21.01.02.04.08.15.15.26.18.67.31,1.27.48h.03c.51.17,1.2.37,1.71.75.28.21.55.48.72.87.17.39.2.81.13,1.25-.14.81-.67,1.36-1.34,1.64-.21.09-.43.15-.65.2v1.08h-1.7v-1.12c-.4-.09-.93-.27-1.27-.39h0c-.07-.03-.14-.05-.19-.06l-.81-.27.53-1.61.81.27c.08.03.18.06.27.09.4.14.86.29,1.11.34.54.08.96.03,1.22-.08.23-.1.31-.22.34-.37.03-.17,0-.25,0-.28-.02-.04-.06-.09-.16-.17-.25-.18-.65-.32-1.24-.5l-.09-.03c-.5-.15-1.15-.34-1.64-.68-.28-.19-.56-.45-.73-.83-.18-.38-.22-.8-.14-1.23.14-.78.69-1.31,1.32-1.6.21-.1.44-.17.68-.22v-1.1h1.7v.85h0Zm17.18,2.71l-1.75,1.75,3.01,3.01,1.75-1.75s-3.01-3.01-3.01-3.01Zm-2.71,2.71l-5.99,5.99-.5,3.52,3.52-.5,5.99-5.99s-3.01-3.01-3.01-3.01Z"/></svg>