<?xml version="1.0" encoding="UTF-8"?><svg id="Layer_1" xmlns="http://www.w3.org/2000/svg" viewBox="0 0 48 48"><defs><style>.cls-1{fill:#f2f2f2;}</style></defs><path class="cls-1" d="m25.75,13.84l-.39,1.25-5.24,17.04-.39,1.25,2.51.77.39-1.25,5.24-17.04.39-1.25-2.51-.77Zm2.95,5.57l.93.93,3.66,3.66-3.66,3.66-.93.93,1.86,1.86.93-.93,4.59-4.59.93-.93-.93-.93-4.59-4.59-.93-.93-1.86,1.86Zm-11.25-1.86l-.93.93-4.59,4.59-.93.93.93.93,4.59,4.59.93.93,1.86-1.86-.93-.93-3.66-3.66,3.66-3.66.93-.93-1.86-1.86Z"/></svg>