<?xml version="1.0" encoding="UTF-8"?><svg id="Layer_1" xmlns="http://www.w3.org/2000/svg" viewBox="0 0 48 48"><defs><style>.cls-1{fill:#f2f2f2;}</style></defs><path class="cls-1" d="m26.06,13h7.56v7.56h-2.75v-2.87l-4.53,4.52-.9.9-.97-.83-3.91-3.36-3.92,3.36-1.79-2.09,4.81-4.12.89-.76.89.77,3.85,3.3,3.63-3.63h-2.87v-2.75Zm-13.06,11h22v11H13v-11Zm2.06,6.88v2.06h2.06c0-1.14-.92-2.06-2.06-2.06Zm2.06-4.81h-2.06v2.06c1.14,0,2.06-.92,2.06-2.06Zm15.81,4.81c-1.14,0-2.06.92-2.06,2.06h2.06v-2.06Zm-2.06-4.81c0,1.14.92,2.06,2.06,2.06v-2.06h-2.06Zm-4.12,3.44c0-1.52-1.23-2.75-2.75-2.75s-2.75,1.23-2.75,2.75,1.23,2.75,2.75,2.75,2.75-1.23,2.75-2.75Z"/></svg>