<?xml version="1.0" encoding="UTF-8"?><svg id="Layer_1" xmlns="http://www.w3.org/2000/svg" viewBox="0 0 48 48"><defs><style>.cls-1{fill:#f2f2f2;}</style></defs><path class="cls-1" d="m17.4,14.4c1.66,0,3,1.34,3,3s-1.34,3-3,3-3-1.34-3-3,1.34-3,3-3Zm13.8,0c1.66,0,3,1.34,3,3s-1.34,3-3,3-3-1.34-3-3,1.34-3,3-3Zm-17.4,7.2h5.55c-.1.38-.15.79-.15,1.2,0,1.43.63,2.72,1.62,3.6h-8.82l1.8-4.8Zm22.2,4.8h-8.82c1-.88,1.62-2.17,1.62-3.6,0-.41-.05-.82-.15-1.2h5.55l1.8,4.8Zm-15.6-3.6c0-1.99,1.61-3.6,3.6-3.6s3.6,1.61,3.6,3.6-1.61,3.6-3.6,3.6-3.6-1.61-3.6-3.6Zm9,4.8l1.8,6h-14.4l1.8-6h10.8Z"/></svg>