<?xml version="1.0" encoding="UTF-8"?><svg id="Layer_1" xmlns="http://www.w3.org/2000/svg" viewBox="0 0 48 48"><defs><style>.cls-1{fill:#f2f2f2;}</style></defs><path class="cls-1" d="m22.8,14.4h-4.8v4.8h2.2l1.09,2.34c-.97.75-1.68,1.83-1.95,3.06h-2.54v-1.2h-4.8v4.8h4.8v-1.2h2.54c.55,2.4,2.7,4.2,5.26,4.2,1.44,0,2.75-.56,3.72-1.48l2.88,1.92v1.96h4.8v-4.8h-4.74l-1.62-1.08c.23-.6.35-1.25.35-1.92,0-.76-.16-1.49-.44-2.14l2.8-2.06h3.65v-4.8h-4.8v2.67l-3.06,2.25c-.95-.82-2.18-1.32-3.54-1.32-.39,0-.77.04-1.14.12l-.66-1.41v-4.71Zm1.8,9.6c.99,0,1.8.81,1.8,1.8s-.81,1.8-1.8,1.8-1.8-.81-1.8-1.8.81-1.8,1.8-1.8Z"/></svg>