<?xml version="1.0" encoding="UTF-8"?><svg id="Layer_1" xmlns="http://www.w3.org/2000/svg" viewBox="0 0 48 48"><defs><style>.cls-1{fill:#f2f2f2;}</style></defs><path class="cls-1" d="m36,15.75c0,.84-.67,1.62-1.8,2.25-1.36.75-3.4,1.29-5.73,1.45-.17-.08-.35-.16-.53-.23-1.85-.77-4.3-1.21-6.94-1.21-.39,0-.77,0-1.15.03l-.05-.03c-1.13-.63-1.8-1.41-1.8-2.25,0-2.07,4.03-3.75,9-3.75s9,1.68,9,3.75Zm-16.47,3.8c.48-.03.97-.05,1.47-.05,2.92,0,5.5.58,7.15,1.47,1.16.63,1.85,1.42,1.85,2.28,0,.19-.03.37-.1.55-.22.62-.8,1.19-1.64,1.66h0s-.01,0-.02,0h0s-.03.01-.04.02c-1.64.91-4.26,1.5-7.2,1.5s-5.29-.53-6.95-1.36c-.09-.04-.17-.09-.26-.14-1.13-.62-1.8-1.4-1.8-2.25,0-1.63,2.5-3.02,6-3.53.49-.07,1-.13,1.53-.16Zm11.97,3.7c0-1.03-.5-1.87-1.13-2.5,1.33-.21,2.54-.53,3.57-.96.76-.32,1.48-.71,2.06-1.2v1.66c0,.9-.77,1.74-2.05,2.39-.68.35-1.52.64-2.46.87,0-.08,0-.16,0-.25h0Zm-1.5,4.5c0,.84-.67,1.62-1.8,2.25-.08.05-.17.09-.26.14-1.65.83-4.15,1.36-6.94,1.36-2.94,0-5.56-.59-7.2-1.5-1.13-.63-1.8-1.41-1.8-2.25v-1.66c.59.48,1.29.88,2.06,1.2,1.85.77,4.31,1.21,6.94,1.21s5.09-.44,6.94-1.21c.37-.15.72-.32,1.05-.51.29-.16.55-.34.81-.53.07-.05.14-.11.2-.16v1.66Zm1.5,0v-2.71c.89-.2,1.71-.45,2.44-.75.76-.32,1.48-.71,2.06-1.2v1.66c0,.49-.23.98-.7,1.45-.76.76-2.11,1.39-3.81,1.8,0-.08,0-.16,0-.25Zm-10.5,5.25c2.63,0,5.09-.44,6.94-1.21.76-.32,1.48-.71,2.06-1.2v1.66c0,2.07-4.03,3.75-9,3.75s-9-1.68-9-3.75v-1.66c.59.48,1.29.88,2.06,1.2,1.85.77,4.31,1.21,6.94,1.21Z"/></svg>